<svg xmlns="http://www.w3.org/2000/svg" width="512" height="512" viewBox="0 0 512 512"><path fill="#F3F2F2" d="M7.9 256C7.9 119 119 7.9 256 7.9S504.1 119 504.1 256 393 504.1 256 504.1 7.9 393 7.9 256z"/><path fill="#EE3B3F" d="M116.7 213.3c-48.4 0-50.2 37.6-50 47.4 0 0-2.4 44 48.8 44 44 0 46.1-27.6 46.1-27.6h-20.2s-3.9 15.2-25.8 14.8c-28.1-.5-29.2-27.8-29.2-27.8h77.9c0 .1 5.9-50.8-47.6-50.8zM87 250.8s1.4-24.6 29.2-24.7c27.7 0 27.7 24.7 27.7 24.7H87z"/><path fill="#0468B2" d="M218.4 213.3c-24.3-.1-34.8 14.4-34.8 14.4v-48.6h-19.5l.3 102.8s-.1 12-.8 19.9h18.9l.8-11.5s8.8 14.5 34.6 14.5 46.2-15.9 46.7-45.4c.7-29.5-21.8-46-46.2-46.1zm-4.4 78.3c-30.7.4-30.2-32.6-30.2-32.6s-1.1-31.7 30.2-32.5c31.3-.8 30.3 33.2 30.3 33.2s.4 31.5-30.3 31.9z"/><path fill="#F7AB1B" d="M354.8 281.4c0-13.3.4-25.2 0-33.5-.5-9.7.4-33.1-41.6-34.9 0 0-40.2-3.7-44.4 26.3h20.6s1.6-13.7 22.5-13.3c19.8.4 23.4 10.1 23.3 22 0 0-16.9.1-22.6.1-10.2 0-45.8 1.2-49.2 22.9-4 25.8 19.1 33.9 37.1 33.8 18-.1 28.3-5.5 36-15.2l.8 12 17.9-.1s-.4-6.8-.4-20.1zm-50.9 10.9s-19.5 0-20.7-15.6C282 260 313.3 261 313.3 261h22.1s3.5 31.7-31.5 31.3z"/><path fill="#6BB745" d="M344.2 216.6h22.6l33.1 65.9 33.1-65.9h20.5l-59.9 117.5h-21.9l17.4-32.6z"/><path fill="#231F20" d="M461.1 221.3v-2.4h-.8v-.9h.8v-1.3h1.4v1.3h1.6v.9h-1.6v2.3c0 .4.3.6.7.6.3 0 .6-.1.8-.2v.9c-.3.1-.7.2-1.2.2-1-.1-1.7-.4-1.7-1.4zM465.5 217.9h1.4v.7c.4-.4.9-.8 1.8-.8.8 0 1.5.3 1.8.8.5-.5 1.1-.8 2-.8 1.3 0 2.1.6 2.1 1.8v3h-1.4V220c0-.7-.4-1.1-1.2-1.1-.7 0-1.3.4-1.3 1.1v2.6h-1.4V220c0-.7-.5-1.1-1.2-1.1-.8 0-1.3.4-1.3 1.1v2.6h-1.4v-4.7z"/></svg>