<svg xmlns="http://www.w3.org/2000/svg" width="32" height="32" viewBox="0 0 32 32"><g transform="translate(-766.497 -1582.394)"><path fill="#e6e7e8" d="m 778.49659,1591.3944 13.5,0 c 0.83101,0 1.50001,0.669 1.50001,1.5 l 0,14 c 0,0.831 -0.669,1.5 -1.50001,1.5 l -9.5,0 z"/><path fill="#376ad7" d="m 785.5033,1605.4022 -3.00671,2.9922 -0.70558,-2.9987 z"/><path d="m 783.49023,1594.8945 a 0.50005,0.50005 0 1 0 0,1 l 7,0 a 0.50005,0.50005 0 1 0 0,-1 l -7,0 z" style="line-height:normal;text-indent:0;text-align:start;text-decoration-line:none;text-decoration-style:solid;text-decoration-color:#000;text-transform:none;block-progression:tb;white-space:normal;isolation:auto;mix-blend-mode:normal;solid-color:#000;solid-opacity:1" fill="#5f7987" fill-rule="evenodd" color="#000" enable-background="accumulate" font-family="sans-serif" font-weight="400" overflow="visible"/><path d="m 785.47461,1594.9258 a 0.50005,0.50005 0 0 0 -0.46094,0.5371 c 0.19708,3.1079 1.98898,5.8952 4.73438,7.3652 a 0.50005,0.50005 0 1 0 0.47265,-0.8808 c -2.4415,-1.3073 -4.03371,-3.783 -4.20898,-6.5469 a 0.50005,0.50005 0 0 0 -0.53711,-0.4746 z" style="line-height:normal;text-indent:0;text-align:start;text-decoration-line:none;text-decoration-style:solid;text-decoration-color:#000;text-transform:none;block-progression:tb;white-space:normal;isolation:auto;mix-blend-mode:normal;solid-color:#000;solid-opacity:1" fill="#5f7987" color="#000" enable-background="accumulate" font-family="sans-serif" font-weight="400" overflow="visible"/><path d="m 788.50391,1594.9199 a 0.50005,0.50005 0 0 0 -0.52344,0.4766 c -0.15598,2.4818 -1.45607,4.749 -3.51953,6.1367 a 0.50027213,0.50027213 0 0 0 0.55859,0.8301 c 2.32067,-1.5607 3.78357,-4.1132 3.95899,-6.9043 a 0.50005,0.50005 0 0 0 -0.47461,-0.5391 z" style="line-height:normal;text-indent:0;text-align:start;text-decoration-line:none;text-decoration-style:solid;text-decoration-color:#000;text-transform:none;block-progression:tb;white-space:normal;isolation:auto;mix-blend-mode:normal;solid-color:#000;solid-opacity:1" fill="#5f7987" color="#000" enable-background="accumulate" font-family="sans-serif" font-weight="400" overflow="visible"/><path d="m 786.98828,1592.8945 a 0.50005,0.50005 0 0 0 -0.49219,0.5078 l 0,2 a 0.50005,0.50005 0 1 0 1,0 l 0,-2 a 0.50005,0.50005 0 0 0 -0.50781,-0.5078 z" style="line-height:normal;text-indent:0;text-align:start;text-decoration-line:none;text-decoration-style:solid;text-decoration-color:#000;text-transform:none;block-progression:tb;white-space:normal;isolation:auto;mix-blend-mode:normal;solid-color:#000;solid-opacity:1" fill="#5f7987" fill-rule="evenodd" color="#000" enable-background="accumulate" font-family="sans-serif" font-weight="400" overflow="visible"/><path fill="#518ff5" d="m 785.49659,1605.3944 -13.5,0 c -0.83101,0 -1.50001,-0.669 -1.50001,-1.5 l 0,-14 c 0,-0.831 0.669,-1.5 1.50001,-1.5 l 9.5,0 z"/><path d="m 775.60547,1590.9199 c -0.63892,0.084 -1.25118,0.3723 -1.73047,0.8516 -0.95862,0.9585 -1.15441,2.449 -0.47656,3.623 0.67783,1.174 2.06558,1.7493 3.375,1.3985 1.30943,-0.3509 2.22264,-1.5428 2.22265,-2.8985 l 0,-0.5 -3,0 0,1 1.83008,0 c -0.18643,0.6684 -0.61555,1.2449 -1.3125,1.4317 -0.87694,0.2349 -1.79607,-0.1455 -2.25,-0.9317 -0.45393,-0.7862 -0.32356,-1.7741 0.31836,-2.416 0.64198,-0.642 1.62784,-0.7703 2.41406,-0.3164 l 0.5,-0.8672 c -0.587,-0.3389 -1.2517,-0.4591 -1.89062,-0.375 z" style="line-height:normal;text-indent:0;text-align:start;text-decoration-line:none;text-decoration-style:solid;text-decoration-color:#000;text-transform:none;block-progression:tb;white-space:normal;isolation:auto;mix-blend-mode:normal;solid-color:#000;solid-opacity:1" fill="#f9f9f9" color="#000" enable-background="accumulate" font-family="sans-serif" font-weight="400" overflow="visible"/></g></svg>