<svg width="1200" height="1200" xmlns="http://www.w3.org/2000/svg" p-id="22997" version="1.1" class="icon" t="1597416718318">

 <g>
  <title>Layer 1</title>
  <g id="svg_16">
   <path id="svg_1" p-id="22998" fill="#542E18" d="m258.37202,429.11489c6.9,43.9 46.8,79.2 74.3,106.3c52.1,-45.2 123.9,-105.4 99.4,-191c-12.3,-42.8 -84,-104 -111.6,-131.2c-52.1,45.3 -77.2,119.3 -62.1,215.9z"/>
   <path id="svg_2" p-id="22999" fill="#231815" d="m332.77202,545.51489c-2.5,0 -5.1,-1 -7,-2.9c-2.5,-2.4 -5,-4.9 -7.7,-7.5c-28,-27.2 -62.7,-61.1 -69.5,-104.4c-7.6,-48.5 -5.6,-92.8 6.1,-131.6c11.3,-37.6 31.3,-69 59.3,-93.3c3.9,-3.4 9.9,-3.2 13.6,0.4c4.6,4.5 10.3,9.9 17,16.2c34.3,32.3 86.2,81.1 97.1,119.3c25.9,90.2 -46.7,153 -99.6,198.9l-2.8,2.4c-1.9,1.6 -4.2,2.5 -6.5,2.5zm-12.4,-318.5c-21.6,20.9 -37.3,47 -46.6,77.8c-10.8,35.9 -12.7,77.2 -5.5,122.7c5.8,36.7 37.9,68 63.7,93.2c0.4,0.4 0.8,0.7 1.1,1.1c50.8,-44.1 111.1,-98.8 89.4,-174.7c-9.4,-32.9 -60.9,-81.3 -91.6,-110.2c-3.8,-3.5 -7.3,-6.8 -10.5,-9.9z"/>
   <path id="svg_3" p-id="23000" fill="#542E18" d="m941.47202,429.11489c-6.9,43.9 -46.8,79.2 -74.3,106.3c-52.1,-45.2 -123.9,-105.4 -99.4,-191c12.3,-42.8 84,-104 111.6,-131.2c52.1,45.3 77.3,119.3 62.1,215.9z"/>
   <path id="svg_4" p-id="23001" fill="#231815" d="m867.17202,545.51489c-2.3,0 -4.7,-0.8 -6.5,-2.4l-2.8,-2.4c-53,-45.9 -125.5,-108.7 -99.6,-198.9c11,-38.2 62.8,-87 97.1,-119.3c6.7,-6.3 12.5,-11.7 17,-16.2c3.7,-3.7 9.6,-3.9 13.6,-0.4c28,24.3 48,55.7 59.3,93.3c11.7,38.8 13.8,83.1 6.1,131.6c-6.8,43.3 -41.6,77.2 -69.5,104.4c-2.6,2.6 -5.2,5.1 -7.7,7.5c-1.9,1.8 -4.5,2.8 -7,2.8zm12.4,-318.5c-3.2,3 -6.7,6.4 -10.5,10c-30.7,28.9 -82.2,77.3 -91.6,110.2c-21.7,75.8 38.5,130.6 89.4,174.7c0.4,-0.4 0.8,-0.7 1.1,-1.1c25.8,-25.2 58,-56.5 63.7,-93.2c7.2,-45.5 5.3,-86.8 -5.5,-122.7c-9.4,-30.9 -25,-57 -46.6,-77.9z"/>
   <path id="svg_5" p-id="23002" fill="#F4BF56" d="m984.67202,658.01489c0,202 -172.2,328.5 -384.7,328.5s-384.7,-126.5 -384.7,-328.5s172.2,-353.4 384.7,-353.4s384.7,151.4 384.7,353.4z"/>
   <path id="svg_6" p-id="23003" d="m599.97202,996.61489c-107.9,0 -206.7,-32.2 -278.3,-90.8c-36.7,-30 -65.3,-65.9 -85.1,-106.9c-20.7,-42.9 -31.2,-90.3 -31.2,-140.9c0,-99.8 41.2,-192.1 116,-259.8c73.7,-66.8 172.6,-103.5 278.7,-103.5s205.1,36.8 278.7,103.5c74.8,67.8 116,160 116,259.8c0,50.6 -10.5,98 -31.2,140.9c-19.8,40.9 -48.4,76.9 -85.1,106.9c-71.8,58.5 -170.7,90.8 -278.5,90.8zm0,-681.9c-101.1,0 -195.3,34.9 -265.3,98.3c-70.5,63.9 -109.4,150.9 -109.4,245c0,47.6 9.8,92.1 29.2,132.2c18.5,38.3 45.3,71.9 79.8,100.1c68.1,55.6 162.4,86.3 265.7,86.3s197.6,-30.7 265.7,-86.3c34.4,-28.1 61.3,-61.8 79.8,-100.1c19.4,-40.1 29.2,-84.6 29.2,-132.2c0,-94.1 -38.8,-181.1 -109.4,-245c-70,-63.4 -164.2,-98.3 -265.3,-98.3z"/>
   <path id="svg_7" p-id="23004" fill="#231815" d="m456.27202,522.31489m-45.5,0a45.5,45.5 0 1 0 91,0a45.5,45.5 0 1 0 -91,0z"/>
   <path id="svg_8" p-id="23005" fill="#FFFFFF" d="m417.17202,511.21489a17.5,16.7 0 1 0 35,0a17.5,16.7 0 1 0 -35,0z"/>
   <path id="svg_9" p-id="23006" fill="#231815" d="m743.57202,522.31489m-45.5,0a45.5,45.5 0 1 0 91,0a45.5,45.5 0 1 0 -91,0z"/>
   <path id="svg_10" p-id="23007" fill="#FFFFFF" d="m704.47202,511.21489a17.5,16.7 0 1 0 35,0a17.5,16.7 0 1 0 -35,0z"/>
   <path id="svg_11" p-id="23008" d="m544.17202,734.21489a55.8,43.9 0 1 0 111.6,0a55.8,43.9 0 1 0 -111.6,0z"/>
   <path id="svg_12" p-id="23009" d="m651.47202,901.31489c-15.8,0 -30.6,-4.6 -41.8,-13.1c-12.7,-9.6 -19.7,-23.5 -19.7,-39.1c0,-5.5 4.5,-10 10,-10s10,4.5 10,10c0,21.1 20.9,32.1 41.5,32.1c21.2,0 38.4,-17.2 38.4,-38.4c0,-5.5 4.5,-10 10,-10s10,4.5 10,10c0,32.3 -26.2,58.5 -58.4,58.5z"/>
   <path id="svg_13" p-id="23010" d="m548.47202,901.31489c-32.2,0 -58.4,-26.2 -58.4,-58.4c0,-5.5 4.5,-10 10,-10s10,4.5 10,10c0,21.2 17.2,38.4 38.4,38.4c20.6,0 41.5,-11 41.5,-32.1l0,-91.7c0,-5.5 4.5,-10 10,-10s10,4.5 10,10l0,91.7c0,15.6 -7,29.5 -19.7,39.1c-11.2,8.3 -26,13 -41.8,13z"/>
   <path id="svg_14" p-id="23011" d="m99.47202,757.41489c-1.8,0 -3.6,-1 -4.5,-2.7c-1.3,-2.5 -0.3,-5.5 2.2,-6.7c57.5,-29.5 124.8,-41.5 171.2,-46.5c50.2,-5.4 87.4,-3.8 87.8,-3.8c2.8,0.1 4.9,2.5 4.8,5.2s-2.5,4.9 -5.2,4.8c-1.5,-0.1 -146.5,-5.9 -253.9,49.2c-0.9,0.3 -1.6,0.5 -2.4,0.5zm0,107.6c-1.3,0 -2.7,-0.5 -3.6,-1.6c-1.9,-2 -1.8,-5.2 0.2,-7.1c57.6,-54.3 125.3,-76.7 171.9,-85.8c50.5,-9.9 86.9,-7.1 88.4,-6.9c2.8,0.2 4.8,2.6 4.6,5.4c-0.2,2.8 -2.6,4.8 -5.4,4.6c-0.5,0 -36.9,-2.9 -86,6.8c-45.2,8.9 -110.8,30.6 -166.7,83.2c-0.9,0.9 -2.2,1.4 -3.4,1.4zm70.3,60.4c-1.1,0 -2.2,-0.4 -3.2,-1.1c-2.1,-1.8 -2.4,-4.9 -0.7,-7c42.1,-51.3 91.5,-72.5 125.6,-81.1c37,-9.4 63.8,-6.7 64.9,-6.6c2.7,0.3 4.7,2.8 4.4,5.5c-0.3,2.7 -2.8,4.7 -5.5,4.4c-0.4,0 -26.5,-2.6 -61.8,6.4c-32.5,8.3 -79.7,28.6 -119.9,77.7c-0.9,1.1 -2.4,1.8 -3.8,1.8z"/>
   <path id="svg_15" p-id="23012" d="m1100.47202,757.41489c-0.8,0 -1.5,-0.2 -2.3,-0.6c-107.4,-55.1 -252.5,-49.2 -253.9,-49.2l-0.2,0c-2.7,0 -4.9,-2.1 -5,-4.8c-0.1,-2.8 2,-5.1 4.8,-5.2c0.4,0 37.6,-1.6 87.8,3.8c46.4,5 113.7,17.1 171.2,46.5c2.5,1.3 3.4,4.3 2.2,6.7c-1.1,1.8 -2.8,2.8 -4.6,2.8zm0,107.6c-1.2,0 -2.5,-0.5 -3.4,-1.4c-55.9,-52.6 -121.5,-74.3 -166.7,-83.2c-49.2,-9.7 -85.6,-6.9 -86,-6.8c-2.8,0.2 -5.2,-1.8 -5.4,-4.6c-0.2,-2.8 1.8,-5.2 4.6,-5.4c1.5,-0.1 37.9,-3 88.4,6.9c46.6,9.2 114.3,31.5 171.9,85.8c2,1.9 2.1,5.1 0.2,7.1c-1,1.1 -2.3,1.6 -3.6,1.6zm-70.3,60.4c-1.4,0 -2.9,-0.6 -3.9,-1.8c-40.2,-49.1 -87.4,-69.3 -119.9,-77.7c-35.4,-9.1 -61.5,-6.5 -61.8,-6.4c-2.8,0.3 -5.2,-1.7 -5.5,-4.4c-0.3,-2.7 1.7,-5.2 4.4,-5.5c1.1,-0.1 27.9,-2.9 64.9,6.6c34.1,8.7 83.5,29.8 125.6,81.1c1.8,2.1 1.4,5.3 -0.7,7c-0.9,0.7 -2,1.1 -3.1,1.1z"/>
  </g>
  <rect opacity="0" id="svg_17" height="1200" width="1200" y="0" x="0" fill="none"/>
 </g>
</svg>