<svg width="42" height="42" xmlns="http://www.w3.org/2000/svg" version="1">
 <g id="Layer_1">
  <title>Layer 1</title>
  <rect stroke="#000" stroke-width="0" id="svg_1" height="42" width="42" y="0" x="0" fill="none"/>
  <g stroke="null">
   <title stroke="null">lop-logo-noir</title>
   <polygon stroke="null" points="8.425176620483398,8.46388053894043 8.425176620483398,33.53612041473389 33.497413635253906,33.53612041473389 33.497413635253906,31.21390438079834 10.747397422790527,31.21390438079834 10.747397422790527,8.46388053894043 8.425176620483398,8.46388053894043 "/>
   <path stroke="null" d="m21.54263,29.43818a4.48963,4.48963 0 1 1 4.48963,-4.48963a4.48963,4.48963 0 0 1 -4.48963,4.48963m0,-6.6462a2.16741,2.16741 0 1 0 2.16741,2.16741a2.16741,2.16741 0 0 0 -2.16741,-2.16741"/>
   <path stroke="null" d="m31.2526,8.51807l-17.67055,0l0,9.85396l17.67055,0l0,9.13407l2.32222,0l0,-18.98802l-2.32222,0zm-15.34833,2.32222l15.34833,0l0,5.20951l-15.34833,0l0,-5.20951z"/>
  </g>
 </g>

</svg>