<svg width="48" height="48" xmlns="http://www.w3.org/2000/svg">

 <g>
  <title>Layer 1</title>
  <path stroke="null" id="svg_1" clip-rule="evenodd" d="m6.70656,0.23076l34.58556,0c3.57727,0 6.47712,2.89985 6.47712,6.4758l0,34.58556c0,3.57727 -2.89985,6.47712 -6.4758,6.47712l-34.58689,0c-3.57595,0 -6.4758,-2.89985 -6.4758,-6.4758l0,-34.58689c0,-3.57595 2.89985,-6.4758 6.4758,-6.4758z" fill-rule="evenodd" fill="#212121"/>
  <path id="svg_2" clip-rule="evenodd" d="m29.208,20.607c1.576,1.126 3.507,1.788 5.592,1.788l0,-4.011c-0.395,0 -0.788,-0.041 -1.174,-0.123l0,3.157c-2.085,0 -4.015,-0.663 -5.592,-1.788l0,8.184c0,4.094 -3.321,7.413 -7.417,7.413c-1.528,0 -2.949,-0.462 -4.129,-1.254c1.347,1.376 3.225,2.23 5.303,2.23c4.096,0 7.417,-3.319 7.417,-7.413l0,-8.183l0,0zm1.449,-4.046c-0.805,-0.879 -1.334,-2.016 -1.449,-3.273l0,-0.516l-1.113,0c0.28,1.597 1.236,2.962 2.562,3.789l0,0zm-11.578,14.271c-0.45,-0.59 -0.693,-1.311 -0.692,-2.053c0,-1.873 1.519,-3.391 3.393,-3.391c0.349,0 0.696,0.053 1.029,0.159l0,-4.1c-0.389,-0.053 -0.781,-0.076 -1.174,-0.068l0,3.191c-0.333,-0.106 -0.68,-0.159 -1.03,-0.159c-1.874,0 -3.393,1.518 -3.393,3.391c0.001,1.325 0.76,2.472 1.867,3.03z" fill-rule="evenodd" fill="#ec407a"/>
  <path id="svg_3" clip-rule="evenodd" d="m28.034,19.63c1.576,1.126 3.507,1.788 5.592,1.788l0,-3.157c-1.164,-0.248 -2.194,-0.856 -2.969,-1.701c-1.326,-0.827 -2.281,-2.191 -2.561,-3.788l-2.923,0l0,16.018c-0.007,1.867 -1.523,3.379 -3.393,3.379c-1.102,0 -2.081,-0.525 -2.701,-1.338c-1.107,-0.558 -1.866,-1.705 -1.866,-3.029c0,-1.873 1.519,-3.391 3.393,-3.391c0.359,0 0.705,0.056 1.03,0.159l0,-3.19c-4.024,0.083 -7.26,3.369 -7.26,7.411c0,2.018 0.806,3.847 2.114,5.183c1.18,0.792 2.601,1.254 4.129,1.254c4.096,0 7.417,-3.319 7.417,-7.413l-0.002,-8.185l0,0z" fill-rule="evenodd" fill="#fff"/>
  <path id="svg_4" clip-rule="evenodd" d="m33.626,18.262l0,-0.854c-1.05,0.002 -2.078,-0.292 -2.969,-0.848c0.788,0.863 1.826,1.458 2.969,1.702zm-5.531,-5.49c-0.027,-0.153 -0.047,-0.306 -0.061,-0.461l0,-0.516l-4.036,0l0,16.019c-0.006,1.867 -1.523,3.379 -3.393,3.379c-0.549,0 -1.067,-0.13 -1.526,-0.362c0.62,0.813 1.599,1.338 2.701,1.338c1.87,0 3.386,-1.512 3.393,-3.379l0,-16.018l2.922,0zm-6.46,8.608l0,-0.909c-0.337,-0.046 -0.677,-0.069 -1.018,-0.069c-4.097,0 -7.417,3.319 -7.417,7.413c0,2.567 1.305,4.829 3.288,6.159c-1.308,-1.336 -2.114,-3.165 -2.114,-5.183c0,-4.042 3.237,-7.328 7.261,-7.411z" fill-rule="evenodd" fill="#81d4fa"/>
 </g>
</svg>