<svg width="150" height="150" xmlns="http://www.w3.org/2000/svg">
 <g id="Layer_1">
  <title>Layer 1</title>
  <rect id="svg_1" height="150" width="150" y="0" x="0" fill="#212121"/>
  <g stroke="null">
   <path stroke="null" clip-rule="evenodd" d="m23.10104,3.66666l103.79397,0c10.73567,0 19.43833,8.70267 19.43833,19.43437l0,103.79397c0,10.73567 -8.70267,19.43833 -19.43437,19.43833l-103.79793,0c-10.7317,0 -19.43437,-8.70267 -19.43437,-19.43437l0,-103.79793c0,-10.7317 8.70267,-19.43437 19.43437,-19.43437z" fill-rule="evenodd" fill="#212121"/>
   <path stroke="null" clip-rule="evenodd" d="m95.63911,61.55366c6.24563,4.4623 13.89811,7.08578 22.16089,7.08578l0,-15.89545c-1.56537,0 -3.12281,-0.16248 -4.65252,-0.48744l0,12.51107c-8.26278,0 -15.9113,-2.62744 -22.16089,-7.08578l0,32.43289c0,16.22437 -13.161,29.37745 -29.3933,29.37745c-6.05541,0 -11.68678,-1.83089 -16.36307,-4.96956c5.33811,5.45304 12.78056,8.83741 21.01559,8.83741c16.2323,0 29.3933,-13.15307 29.3933,-29.37745l0,-32.42893l0,0zm5.74233,-16.03415c-3.19019,-3.48344 -5.28659,-7.98933 -5.74233,-12.97078l0,-2.04489l-4.41078,0c1.10963,6.32885 4.89822,11.7383 10.15311,15.01567l0,0zm-45.88319,56.55545c-1.78333,-2.33815 -2.74633,-5.19544 -2.74237,-8.13596c0,-7.42263 6.01974,-13.43841 13.44633,-13.43841c1.38307,0 2.75822,0.21004 4.07789,0.63011l0,-16.24815c-1.54159,-0.21004 -3.09507,-0.30119 -4.65252,-0.26948l0,12.64582c-1.31967,-0.42007 -2.69481,-0.63011 -4.08185,-0.63011c-7.42659,0 -13.44633,6.01578 -13.44633,13.43841c0.00396,5.25093 3.01185,9.79644 7.39885,12.00778z" fill-rule="evenodd" fill="#ec407a"/>
   <path stroke="null" clip-rule="evenodd" d="m90.98659,57.68184c6.24563,4.4623 13.89811,7.08578 22.16089,7.08578l0,-12.51107c-4.61289,-0.98281 -8.69474,-3.3923 -11.76604,-6.741c-5.25489,-3.27737 -9.03952,-8.68285 -10.14915,-15.0117l-11.58374,0l0,63.47874c-0.02774,7.39885 -6.03559,13.39085 -13.44633,13.39085c-4.36719,0 -8.24693,-2.08056 -10.70396,-5.30244c-4.387,-2.21133 -7.39489,-6.75685 -7.39489,-12.00382c0,-7.42263 6.01974,-13.43841 13.44633,-13.43841c1.4227,0 2.79389,0.22193 4.08185,0.63011l0,-12.64185c-15.94696,0.32893 -28.77111,13.35122 -28.77111,29.36952c0,7.99726 3.19415,15.24552 8.3777,20.54004c4.6763,3.13867 10.30767,4.96956 16.36307,4.96956c16.2323,0 29.3933,-13.15307 29.3933,-29.37745l-0.00793,-32.43685l0,0z" fill-rule="evenodd" fill="#fff"/>
   <path stroke="null" clip-rule="evenodd" d="m113.14748,52.26051l0,-3.38437c-4.16111,0.00793 -8.23504,-1.15719 -11.76604,-3.36059c3.12281,3.42004 7.23637,5.778 11.76604,6.74496zm-21.91915,-21.75667c-0.107,-0.60633 -0.18626,-1.21267 -0.24174,-1.82693l0,-2.04489l-15.99452,0l0,63.48271c-0.02378,7.39885 -6.03559,13.39085 -13.44633,13.39085c-2.17567,0 -4.22848,-0.51519 -6.04748,-1.43459c2.45704,3.22189 6.33678,5.30244 10.70396,5.30244c7.41074,0 13.41859,-5.992 13.44633,-13.39085l0,-63.47874l11.57978,0zm-25.60074,34.11319l0,-3.60233c-1.33552,-0.1823 -2.68293,-0.27344 -4.0343,-0.27344c-16.23626,0 -29.3933,13.15307 -29.3933,29.37745c0,10.17293 5.17167,19.13715 13.03022,24.40789c-5.18356,-5.29452 -8.3777,-12.54278 -8.3777,-20.54004c0,-16.0183 12.82811,-29.04059 28.77508,-29.36952z" fill-rule="evenodd" fill="#81d4fa"/>
  </g>
 </g>

</svg>