<?xml version="1.0" encoding="utf-8"?><!--Generator: Adobe Illustrator 18.1.1, SVG Export Plug-In . SVG Version: 6.00 Build 0)--><svg xmlns="http://www.w3.org/2000/svg" xmlns:xlink="http://www.w3.org/1999/xlink" id="Vector" width="512px" height="512px" x="0px" y="0px" enable-background="new 0 0 512 512" version="1.1" viewBox="0 0 512 512" xml:space="preserve"><path fill="#2B9A9A" d="M512,472c0,22.1-17.9,40-40,40H40c-22.1,0-40-17.9-40-40V40C0,17.9,17.9,0,40,0h432c22.1,0,40,17.9,40,40
	V472z"/><polyline fill="#FAAF3B" fill-rule="evenodd" points="184.8,334.8 229.3,262.3 146.7,262.3 184.8,334.8 " clip-rule="evenodd"/><polyline fill="#FFFFFF" fill-rule="evenodd" points="191.5,331.7 159.5,385.7 196.5,385.7 274,262.8 
	233.6,262.8 208.4,303.1 " clip-rule="evenodd"/><polyline fill="#FFFFFF" fill-rule="evenodd" points="295.9,262.8 218.4,385.4 255.5,385.4 332.9,262.8 " clip-rule="evenodd"/><polyline fill="#FFFFFF" fill-rule="evenodd" points="248.7,262.8 356.6,262.8 343.1,289.7 253.8,289.7 " clip-rule="evenodd"/><path fill="#FFFFFF" d="M144.3,239.2c2.8-25.4,24.1-45.2,50.1-45.2c11.8,0,22.7,4.1,31.3,11c9.7-32.5,39.7-56.2,75.1-56.2
	c43.3,0,78.4,35.4,78.4,79c0,4.2-0.3,8.4-1,12.5c19.8,4.7,34.6,22.6,34.6,44c0,24.9-20.1,45.2-44.8,45.2h-67.4
	c-2.2,3.8-10.9,15.1-13.3,22.6H368c37.1,0,67.2-30.3,67.2-67.8c0-25-13.5-47-33.6-58.7c-1.2-55.1-45.8-99.4-100.8-99.4
	c-36.2,0-68,19.3-85.7,48.2c-6.6-2-13.5-3-20.7-3c-31.2,0-57.8,19.8-68.1,47.6c-28.5,7.9-49.4,34.1-49.4,65.4
	c0,37.3,30.1,67.8,67.2,67.8h18.5c0.1,0.6,8.6-15.1,12.7-22.6H144c-24.7,0-44.8-20.3-44.8-45.2c0-24.9,20.1-45.2,44.8-45.2H144.3z"/></svg>