<?xml version="1.0" encoding="utf-8"?><!--Generator: Adobe Illustrator 18.1.1, SVG Export Plug-In . SVG Version: 6.00 Build 0)--><svg xmlns="http://www.w3.org/2000/svg" xmlns:xlink="http://www.w3.org/1999/xlink" id="Layer_1" width="512px" height="512px" x="0px" y="0px" enable-background="new 0 0 512 512" version="1.1" viewBox="0 0 512 512" xml:space="preserve"><path fill="#233F8A" d="M512,472c0,22.1-17.9,40-40,40H40c-22.1,0-40-17.9-40-40V40C0,17.9,17.9,0,40,0h432c22.1,0,40,17.9,40,40
	V472z"/><polygon fill="#E04C26" fill-rule="evenodd" points="196,211.5 89.3,211.5 85.5,207.1 73.3,207.1 75.8,197.6 
	199.6,197.6 196,211.5 " clip-rule="evenodd"/><path fill="#FFFFFF" fill-rule="evenodd" d="M266,227.7v0.1h-26c-1.5,4.9-2.7,9.9-3.9,14.8l26,0.1l-6.9,26.8
	v0.1h-26c-1.4,5-2.6,9.9-3.9,14.9l26.1,0.1l-6.9,27.1v0.1h-58.1l3.4-13l51.6-0.1l1.3-4.6l-51.8-0.1c1.3-5,2.6-10.2,3.9-15.3h24.9
	l1.2-4.6l-24.9-0.1l3.9-14.9h51.6c0.5-1.5,0.8-3.2,1.2-4.8l-51.6-0.1c1.2-5,2.6-9.9,3.8-14.8h24.9l1.2-4.5l-24.9-0.1L210,220h51.6
	c0.5-1.6,0.8-3.2,1.2-4.8l-51.6-0.1l3.8-14.8h58.1L266,227.7L266,227.7z" clip-rule="evenodd"/><path fill="#FFFFFF" fill-rule="evenodd" d="M328.1,245L328.1,245l3.1-5.6H374l1.2-4.5l-41.3-0.1l8.1-14.6
	l37.1-0.1c0.4-1.6,0.8-3.2,1.2-4.8l-35.4-0.1l8.2-14.7h35.6L360,311.7h-27.4c1.2-4.3,2.2-8.7,3.4-13.1h22.8l1.2-4.5l-22.7-0.1
	l3.6-15.2l23-0.1c0.5-1.5,0.9-3.1,1.2-4.6l-22.7-0.1l3.7-14.9h22.9c0.4-1.6,0.8-3.2,1.3-4.8l-23.3-0.1c0.5-2.6,1.2-5.3,1.7-7.8
	l-33.1,65.2l-10.3,0.1v-13h11.2c0.8-1.5,1.5-3.1,2.3-4.6l-13.5-0.1v-15.3h21.3c0.8-1.5,1.5-3.1,2.3-4.6l-23.6-0.1v-14.9h31.2
	c0.8-1.6,1.7-3.2,2.4-4.8l-33.6-0.1c0-2.8,0.1-5.6,0-8.3l-17.1,65.7h-27.6l3.4-13h20.9c0.4-1.5,0.8-3,1.2-4.5l-21-0.1l3.9-15.4h20.9
	c0.4-1.5,0.7-3.1,1.2-4.6l-20.8-0.1c1.2-5,2.6-9.9,3.9-15h20.8c0.5-1.5,0.8-3.2,1.2-4.8l-20.8-0.1l3.8-14.8H322l0.1-4.5l-41.8-0.1
	l3.8-14.7H321v-4.9l-35.5-0.1l3.8-14.8h36.2L328.1,245L328.1,245z" clip-rule="evenodd"/><path fill="#FFFFFF" fill-rule="evenodd" d="M466.4,215l-5.1,19.7l-28.4,0.1c0.6-2.3,1.2-4.5,1.8-6.8l-9.2-0.1
	c-1.4,4.8-2.6,9.8-3.8,14.7l20.3,0.1l14,12.8l-11,43.1l-22.8,13.1H395l-17.5-13.1l-0.1-0.1H439l1.2-4.5l-61.7-0.1l4-15.2l29.8-0.1
	l-1.4,5.7l9.1,0.1l1.5-5.8H444c0.4-1.5,0.9-3,1.3-4.6l-22.5-0.1c0.2-1.5,0.8-2.9,1-4.4l-23-0.1c-3.3-3.5-6.8-6.9-10.2-10.5l58.4-0.1
	c0.4-1.6,0.9-3.2,1.4-4.8l-61.6-0.1c1.2-5,2.5-9.9,3.8-14.8l24.4-0.1c0.4-1.5,0.7-3.1,1.3-4.5l-24.6-0.1c1.2-5,2.6-9.8,3.8-14.7
	l61.6-0.1l1.2-4.9l-61.6-0.1l24.9-14.7h27.1L466.4,215L466.4,215z" clip-rule="evenodd"/><polygon fill="#E04C26" fill-rule="evenodd" points="190.7,231.8 106.8,231.8 101.2,225.3 68.6,225.3 
	70.7,217.4 194.5,217.4 190.7,231.8 " clip-rule="evenodd"/><polygon fill="#E04C26" fill-rule="evenodd" points="185.7,251.4 123.8,251.4 116.7,243.2 64.1,243.2 
	65.6,237.1 189.4,237.1 185.7,251.4 " clip-rule="evenodd"/><polygon fill="#E04C26" fill-rule="evenodd" points="180.8,270.2 140,270.2 131.6,260.4 59.6,260.4 60.7,256.3 
	184.5,256.3 180.8,270.2 " clip-rule="evenodd"/><polygon fill="#E04C26" fill-rule="evenodd" points="175.6,289.8 156.9,289.8 146.9,278.2 55.1,278.2 
	55.9,274.7 133.9,274.6 179.6,274.6 175.6,289.8 " clip-rule="evenodd"/><polygon fill="#E04C26" fill-rule="evenodd" points="171.2,306.6 162.5,296.4 50.4,296.3 50.8,294.2 
	174.5,294.3 171.2,306.6 " clip-rule="evenodd"/><polygon fill="#E04C26" fill-rule="evenodd" points="169.2,314.3 45.6,314.4 46,312.4 169.8,312.4 169.2,314.3 
	" clip-rule="evenodd"/></svg>