<?xml version="1.0" encoding="UTF-8"?><svg xmlns="http://www.w3.org/2000/svg" xmlns:xlink="http://www.w3.org/1999/xlink" width="32px" height="32px" version="1.1" viewBox="0 0 32 32"><title>ups</title><g id="ups" fill="none" fill-rule="evenodd" stroke="none" stroke-width="1"><path id="bg" fill="#FFFFFF" d="M32,29.5 C32,30.880875 30.880875,32 29.5,32 L2.5,32 C1.119125,32 0,30.880875 0,29.5 L0,2.5 C0,1.119125 1.119125,0 2.5,0 L29.5,0 C30.880875,0 32,1.119125 32,2.5 L32,29.5 Z"/><g fill-rule="nonzero" transform="translate(6.966375, 5.250000)"><path id="路径" fill="#330000" d="M2.70506738,17.7460723 C1.18189379,16.4989163 0.376398918,14.7047451 0.376398918,12.5617674 L0.376398918,2.36882484 C2.78285212,1.09408329 5.69368545,0.449183836 9.03361389,0.449183836 C12.3735483,0.449183836 15.2843817,1.09408329 17.690815,2.36882484 L17.690815,12.5617674 C17.690815,14.7047451 16.88534,16.4989163 15.3621484,17.7460723 C13.9695108,18.8903019 9.53548585,20.8275469 9.03361389,21.0533833 C8.53174192,20.8275469 4.09774704,18.8903019 2.70506738,17.7460723 Z"/><path id="形状" fill="#FFBE00" d="M17.2366143,2.22829106 C16.1224802,2.12540671 14.9632029,2.0576558 13.7812938,2.0576558 C9.40499192,2.0576558 4.71002723,3.01120652 0.830589436,6.55687959 L0.830589436,12.6395341 C0.830589436,14.6219224 1.56331769,16.2755477 2.95599735,17.4072576 C4.18306768,18.4110015 7.97467487,20.1198822 9.03361389,20.5915985 C10.0875571,20.1274061 13.8590605,18.4386292 15.1112124,17.4072576 C16.511434,16.2529761 17.2366143,14.647022 17.2366143,12.6395341 L17.2366143,2.22829106 Z M1.6310686,12.0071682 L1.6310686,7.06627542 L3.20442337,7.06627542 L3.20442337,12.0849951 C3.20442337,12.5291439 3.30981769,13.1890773 4.03250609,13.1890773 C4.29694892,13.2030416 4.55941749,13.1365908 4.78530802,12.9983924 L4.78530802,7.06627542 L6.35367297,7.06627542 L6.35367297,13.8841621 C5.64529194,14.3276489 4.81997198,14.5480079 3.98482886,14.516528 C2.43154777,14.516528 1.64110845,13.6708455 1.64110845,12.0071682 L1.6310686,12.0071682 Z M8.72248698,17.7083928 L7.15162411,17.7083928 L7.15162411,7.46528109 C7.78772185,7.07602635 8.52421806,6.88227175 9.26950214,6.90821404 C11.143968,6.90821404 12.1752794,8.33100722 12.1752794,10.6220545 C12.1752794,12.9130417 11.1715957,14.4889004 9.43009154,14.4889004 C9.19107336,14.4937759 8.9525969,14.4633794 8.72248698,14.3985538 L8.72248698,17.7083928 Z M8.72248698,13.1163065 C8.88349771,13.1747518 9.05305556,13.2061113 9.22429875,13.2091811 C10.1301722,13.2091811 10.5618014,12.3810743 10.5618014,10.6622019 C10.5618014,8.90565002 10.1854275,8.17283974 9.27203016,8.17283974 C9.08050262,8.17132069 8.89072062,8.20978269 8.71490292,8.28586402 L8.72248698,13.1163065 Z M12.5316097,8.95584925 C12.5316097,7.68612161 13.6081245,6.94836139 14.6419639,6.90821404 C15.2572958,6.87185872 15.8662474,7.0491812 16.3658923,7.41008601 L16.3658923,8.78267995 C15.9958986,8.39595323 15.4925821,8.16451911 14.9581468,8.13526632 C14.5115301,8.13526632 14.0472775,8.3284792 14.0322298,8.88807427 C14.017182,9.44766933 14.4813745,9.68855343 15.0560173,10.0373599 C16.3709483,10.8077436 16.6243521,11.5028284 16.5942567,12.4186936 C16.5641612,13.4224375 15.8715442,14.5215239 14.3182571,14.5215239 C13.7077405,14.510208 13.1110678,14.3370387 12.5893328,14.0196519 L12.5893328,12.581811 C13.0059744,12.9563792 13.5360158,13.1807709 14.0949487,13.2191728 C14.6721195,13.2191728 15.0510214,12.8929981 15.0384415,12.3459228 C15.0259218,11.8440508 14.7473582,11.5931148 14.0548014,11.1765936 C12.7599741,10.4237856 12.5266139,9.79141973 12.5240859,8.95584925 L12.5316097,8.95584925 Z M2.4290378,18.0522034 C0.840629283,16.7473242 0,14.8753262 0,12.6395341 L0,2.0074686 C2.50933852,0.677519931 5.54814378,0 9.03361389,0 C12.51909,0 15.5578893,0.675009969 18.0672491,2.0074686 L18.0672491,12.6395341 C18.0672491,14.8753262 17.2266226,16.7473242 15.638184,18.0522034 C14.1852953,19.2441042 9.56311349,21.2691678 9.03361389,21.5 C8.50417448,21.2691678 3.8819445,19.2441042 2.4290378,18.0522034 Z M14.8050813,20.2804716 L14.8050813,21.2039208 L14.9707267,21.2039208 L14.9707267,20.8274868 L14.9958264,20.8274868 L15.2467623,21.2139727 L15.4474991,21.2139727 L15.1689355,20.8074432 C15.2273809,20.7967292 15.2801683,20.7656707 15.3178478,20.7196848 C15.3555273,20.6737591 15.3756913,20.6159156 15.3747283,20.5565072 C15.3765942,20.5159385 15.3692509,20.4755504 15.3532401,20.438232 C15.3372293,20.4009738 15.3129724,20.3678086 15.282275,20.3412042 C15.2516378,20.31466 15.2153427,20.2953989 15.1761584,20.2848655 C15.1369741,20.2743321 15.0958637,20.2728273 15.0560173,20.2804716 L14.8050813,20.2804716 Z M15.0560173,20.4159614 C15.1965631,20.4159614 15.2141389,20.4837364 15.2141389,20.5439273 C15.2141389,20.6041784 15.1789874,20.689469 15.0008222,20.689469 L14.9782506,20.689469 L14.9782506,20.4159614 L15.0560173,20.4159614 Z M15.7059589,20.7447242 C15.7054774,20.8681758 15.6683998,20.9887382 15.599421,21.091123 C15.5304422,21.193568 15.4326921,21.2732608 15.3185099,21.3201495 C15.2042675,21.3670984 15.0787093,21.3790764 14.9576653,21.3546991 C14.8366815,21.3303218 14.7255691,21.2706124 14.6384126,21.1830948 C14.5513163,21.0956373 14.4920283,20.9842841 14.4681325,20.86318 C14.4442367,20.7420156 14.4567564,20.6165175 14.5041267,20.5025159 C14.5514367,20.3884541 14.6315509,20.2910652 14.7342366,20.2225077 C14.8369223,20.1539503 14.9576653,20.11735 15.0811169,20.11735 C15.1634581,20.1170532 15.245077,20.133064 15.3212185,20.1644837 C15.39736,20.1959033 15.4664592,20.24213 15.5246037,20.3005152 C15.5826879,20.3588402 15.6286738,20.4281801 15.6597925,20.504442 C15.6909112,20.5806438 15.706621,20.6623228 15.7059589,20.7447242 L15.7059589,20.7447242 Z M15.0811169,19.9919163 C14.9322045,19.9919163 14.7866629,20.0360362 14.6629103,20.1187386 C14.5390976,20.2015011 14.4426115,20.319054 14.3856107,20.4565902 C14.3286701,20.5941867 14.3137428,20.7455067 14.342815,20.8915901 C14.371827,21.0376133 14.4435144,21.1717187 14.5487883,21.2769926 C14.6540623,21.3822665 14.7882278,21.4540141 14.934251,21.4830262 C15.0802742,21.5120984 15.2316544,21.497171 15.3691907,21.4401702 C15.5067872,21.3832296 15.62434,21.2867435 15.7070424,21.1629308 C15.7897447,21.0391181 15.8339249,20.8935764 15.8339249,20.7447242 C15.8339249,20.5450709 15.7545932,20.3535434 15.6134455,20.2123956 C15.4722376,20.0711877 15.2807702,19.9919163 15.0811169,19.9919163"/></g></g></svg>