<svg width="42" height="42" xmlns="http://www.w3.org/2000/svg">
 <metadata>
 </metadata>

 <g>
  <title>Layer 1</title>
  <rect id="svg_2" height="42" width="42" y="0" x="0" stroke="#000" fill="#000000"/>
  <g id="svg_1">
   <rect x="2.5" y="2.5" ry="4" rx="4" height="37" width="37" data-name="圆角矩形 1070" id="圆角矩形_1070"/>
   <g data-name="组 105" id="组_105">
    <path fill-rule="evenodd" fill="#fff" d="m28,20.515a6.332,6.332 0 0 0 -6.51,6.493a6.51,6.51 0 1 0 6.51,-6.493zm0,12.045a5.57,5.57 0 0 1 -5.572,-5.567a5.407,5.407 0 0 1 5.572,-5.567a5.567,5.567 0 1 1 0,11.133l0,0.001zm-7.583,-22.646l-0.2,-0.522a0.5,0.5 0 0 1 0.283,-0.642l5.688,-2.217a0.493,0.493 0 0 1 0.639,0.283l0.794,2.054a0.5,0.5 0 0 1 -0.282,0.642l-5.688,2.217a0.493,0.493 0 0 1 -0.639,-0.283l-0.273,-0.707l-0.322,-0.825zm-8.917,4.586l0,2l0,0a2,2 0 0 1 1,1l0,7a0.851,0.851 0 0 1 -1,1l-3,0c-0.182,0 -0.551,-0.019 -1,0a1.156,1.156 0 0 1 -1,-1l0,-7c0,-0.061 0,0.057 0,0c0.076,-1.14 0.818,-1 1,-1l1,0l0,-1l1,0l0,1l1,0l0,-2l1,0zm6,10l-3,0l0,-5l20,0c0.243,0 0,-0.3 0,-0.544a0.441,0.441 0 0 0 -0.44,-0.442l-1.56,-0.014l0,-2l1.56,-0.018a0.441,0.441 0 0 0 0.44,-0.442c0,-0.244 0.243,-0.54 0,-0.54l-6,0l0,-1c0,-0.244 -0.757,0 -1,0s0,-0.244 0,0l0,1l-6,0a8.146,8.146 0 0 0 -1,0c0,1.239 0.757,1 1,1l1,0l0,2l-5.053,0.014l-3.6,0a0.44,0.44 0 0 0 -0.406,0.27a1.159,1.159 0 0 1 0.059,-0.284l0,6a0.892,0.892 0 0 0 1,1l3,0l0,-1zm14,-6l-8,0l0,-2l8,0l0,2zm-24,-1l4,0l0,5l-4,0l0,-5zm0,6l4,0l0,1l-4,0l0,-1z" class="cls-1" data-name="形状 1" id="形状_1"/>
    <path fill="#fff" d="m18,22.5l0,0a0.5,0.5 0 0 1 0.5,0.5l0,2.5a0,0 0 0 1 0,0l-1,0a0,0 0 0 1 0,0l0,-2.5a0.5,0.5 0 0 1 0.5,-0.5z" class="cls-2" data-name="圆角矩形 1073" id="圆角矩形_1073"/>
    <rect fill="#fff" ry="0.5" rx="0.5" height="5" width="1" y="11.5" x="17.5" class="cls-2" data-name="圆角矩形 1072" id="圆角矩形_1072"/>
    <path fill-rule="evenodd" fill="#fff" d="m5.589,15.3l17.741,-6.279a0.448,0.448 0 1 1 0.3,0.845l-17.741,6.279a0.448,0.448 0 1 1 -0.3,-0.845z" class="cls-1" data-name="圆角矩形 1071" id="圆角矩形_1071"/>
    <rect fill="#fff" ry="0.5" rx="0.5" height="1" width="9" y="26.5" x="23.5" class="cls-2" data-name="圆角矩形 1070" id="圆角矩形_1070-2"/>
   </g>
  </g>
 </g>
</svg>