<svg width="150" height="150" xmlns="http://www.w3.org/2000/svg" t="1597416718318" class="icon" version="1.1" p-id="22997">
 <g id="Layer_1">
  <title>Layer 1</title>
  <ellipse fill="#212121" stroke="#000000" stroke-width="0" cx="75" cy="75" id="svg_5" rx="75" ry="75"/>
  <g stroke="null" id="svg_4">
   <path stroke="null" id="svg_1" fill="#ec407a" fill-rule="evenodd" d="m98.72533,59.54756c7.17956,5.12956 15.97633,8.14533 25.47467,8.14533l0,-18.27233c-1.79944,0 -3.58978,-0.18678 -5.34822,-0.56033l0,14.38189c-9.49833,0 -18.29056,-3.02033 -25.47467,-8.14533l0,37.28267c0,18.65045 -15.129,33.77034 -33.78856,33.77034c-6.96089,0 -13.43433,-2.10467 -18.80989,-5.71267c6.13633,6.26844 14.69167,10.15889 24.15811,10.15889c18.65956,0 33.78856,-15.11989 33.78856,-33.77034l0,-37.27811l0,0zm6.601,-18.43178c-3.66722,-4.00433 -6.07711,-9.184 -6.601,-14.91033l0,-2.35067l-5.07033,0c1.27556,7.27522 5.63067,13.49356 11.67133,17.261l0,0zm-52.74423,65.01234c-2.05,-2.68778 -3.157,-5.97233 -3.15244,-9.35256c0,-8.53256 6.91989,-15.44789 15.457,-15.44789c1.58989,0 3.17067,0.24144 4.68767,0.72433l0,-18.67778c-1.77211,-0.24144 -3.55789,-0.34622 -5.34822,-0.30978l0,14.53678c-1.517,-0.48289 -3.09778,-0.72433 -4.69222,-0.72433c-8.53711,0 -15.457,6.91533 -15.457,15.44789c0.00456,6.03611 3.46222,11.26133 8.50522,13.80333z" clip-rule="evenodd"/>
   <path stroke="null" id="svg_2" fill="#fff" fill-rule="evenodd" d="m93.37711,55.09678c7.17956,5.12956 15.97633,8.14533 25.47467,8.14533l0,-14.38189c-5.30267,-1.12978 -9.99489,-3.89956 -13.52545,-7.749c-6.04067,-3.76744 -10.39122,-9.98122 -11.66678,-17.25645l-13.31589,0l0,72.97089c-0.03189,8.50522 -6.93811,15.39322 -15.457,15.39322c-5.02022,0 -9.48011,-2.39167 -12.30456,-6.09533c-5.043,-2.542 -8.50067,-7.76722 -8.50067,-13.79878c0,-8.53256 6.91989,-15.44789 15.457,-15.44789c1.63544,0 3.21167,0.25511 4.69222,0.72433l0,-14.53222c-18.33156,0.37811 -33.07334,15.34767 -33.07334,33.76122c0,9.19311 3.67178,17.52522 9.63045,23.61145c5.37556,3.608 11.849,5.71267 18.80989,5.71267c18.65956,0 33.78856,-15.11989 33.78856,-33.77034l-0.00911,-37.28722l0,0z" clip-rule="evenodd"/>
   <path stroke="null" id="svg_3" fill="#81d4fa" fill-rule="evenodd" d="m118.85178,48.86478l0,-3.89044c-4.78333,0.00911 -9.46644,-1.33022 -13.52545,-3.86311c3.58978,3.93144 8.31844,6.642 13.52545,7.75356zm-25.19678,-25.01c-0.123,-0.697 -0.21411,-1.394 -0.27789,-2.10011l0,-2.35067l-18.38622,0l0,72.97545c-0.02733,8.50522 -6.93811,15.39322 -15.457,15.39322c-2.501,0 -4.86078,-0.59222 -6.95178,-1.64911c2.82444,3.70367 7.28433,6.09533 12.30456,6.09533c8.51889,0 15.42511,-6.888 15.457,-15.39322l0,-72.97089l13.31133,0zm-29.42889,39.21422l0,-4.141c-1.53522,-0.20956 -3.08411,-0.31433 -4.63756,-0.31433c-18.66411,0 -33.78856,15.11989 -33.78856,33.77034c0,11.69411 5.945,21.99878 14.97867,28.05767c-5.95867,-6.08622 -9.63045,-14.41833 -9.63045,-23.61145c0,-18.41356 14.74633,-33.38311 33.07789,-33.76122z" clip-rule="evenodd"/>
  </g>
 </g>

</svg>