<svg width="200" height="50" xmlns="http://www.w3.org/2000/svg">
 <g id="Layer_1">
  <title>Layer 1</title>
  <g stroke="null">
   <path stroke="null" paint-order="fill markers stroke" overflow="visible" font-weight="400" font-family="sans-serif" enable-background="accumulate" color="#000" d="m26.84433,8.63716l-5.63893,0.00164l0,23.27999c0,2.00413 -1.19647,3.7919 -3.04804,4.55884c-1.85157,0.76695 -3.95961,0.34696 -5.37675,-1.07017c-1.41713,-1.41713 -1.83712,-3.52738 -1.07017,-5.37896c0.76695,-1.85157 2.55471,-3.04529 4.55884,-3.04529l1.82365,0l0,-5.63947l-1.82365,0c-4.26911,0 -8.13553,2.58429 -9.76926,6.52844c-1.63372,3.94415 -0.7269,8.50534 2.29182,11.52406c3.01872,3.01872 7.58046,3.92553 11.5246,2.2918c3.94415,-1.63371 6.5279,-5.50014 6.5279,-9.76926l0,-12.90873c1.5353,0.91474 3.34895,1.58626 5.57943,1.58626l2.81837,0l0,-5.64113l-2.81837,0c-3.17132,0 -4.03113,-1.28989 -4.78411,-2.92687c-0.75226,-1.63542 -0.79532,-3.39117 -0.79532,-3.39117z" fill="#ff005d"/>
   <path stroke="null" paint-order="fill markers stroke" overflow="visible" font-weight="400" font-family="sans-serif" enable-background="accumulate" color="#000" d="m25.71632,7.50915l-5.63892,0.00165l0,23.27999c0,2.00413 -1.19647,3.7919 -3.04804,4.55884c-1.85157,0.76695 -3.95962,0.34696 -5.37675,-1.07017c-1.41714,-1.41713 -2.40186,-3.52738 -1.63491,-5.37896c0.76695,-1.85157 3.15108,-3.72788 5.12357,-3.37319l1.82365,0.32791l0,-5.63947l-1.82365,0c-4.26911,0 -8.13553,2.58429 -9.76926,6.52844c-1.63371,3.94415 -0.7269,8.50534 2.29182,11.52406c3.01872,3.01872 7.01367,3.25568 10.95782,1.62196c3.94415,-1.63371 5.97375,-5.24689 6.16721,-9.51162l0.61832,-13.63011c1.5353,0.91474 3.6599,2.03916 5.87038,2.33728l2.83658,0.38257l-0.89266,-2.79413l0.89264,-1.09817l0.00001,-1.74883l-2.81836,0c-3.17133,0 -4.03113,-1.28989 -4.78411,-2.92686c-0.75226,-1.63543 -0.79534,-3.39118 -0.79534,-3.39118z" fill="#00e0ff"/>
   <path stroke="null" transform="translate(0 8.06625) scale(0.26458 0.26458)" paint-order="fill markers stroke" overflow="visible" font-weight="400" font-family="sans-serif" enable-background="accumulate" color="#000" d="m98.14078,1.40743l-15.64686,0.00431l0,87.98776c0,7.57466 -4.52191,14.33178 -11.51998,17.23049c-6.99808,2.8987 -14.96631,1.31097 -20.32241,-4.04512c-1.13493,-1.13492 -2.08924,-2.39288 -2.87893,-3.72882c-1.3369,-0.79014 -2.59487,-1.74498 -3.73097,-2.88108c-5.3561,-5.35609 -6.94382,-13.33295 -4.04512,-20.33102c2.8987,-6.99808 9.65581,-11.50921 17.23049,-11.50921l6.89176,0l0,-14.70444l-0.28187,0c-16.13524,0 -30.74777,9.76821 -36.92246,24.67522c-5.5713,13.4503 -3.32379,28.79669 5.54913,40.04881c11.25321,8.87835 26.60596,11.13041 40.05957,5.55774c14.90701,-6.17469 24.67307,-20.78724 24.67307,-36.92246l0,-48.78885c5.80273,3.45729 12.65603,5.99452 21.08625,5.99452l10.65286,0l0,-14.71089l-4.04296,0c-10.23283,0 -14.0938,-3.55814 -16.77647,-8.44741c-4.17502,-1.96762 -6.12543,-5.33622 -7.91381,-9.22415c-0.97308,-2.11547 -1.61522,-4.26762 -2.06128,-6.20539z" fill="#59586e"/>
  </g>
  <text xml:space="preserve" text-anchor="start" font-family="Noto Sans JP" font-size="24" id="svg_1" y="32.78302" x="43.20753" stroke-width="0" stroke="#000" fill="#ffffff">TikTok 工具箱</text>
 </g>

</svg>