<svg width="3000" height="500" xmlns="http://www.w3.org/2000/svg" p-id="22997" version="1.1" class="icon" t="1597416718318">
 <g id="Layer_1">
  <title>Layer 1</title>
  <rect id="svg_7" height="500" width="3000" y="0" x="0" stroke-width="0" stroke="null" fill="none"/>
  <g stroke="null">
   <circle stroke="null" fill="#ee3e54" r="12.70512" cy="116.59615" cx="12.70512"/>
   <circle stroke="null" fill="#f1bc19" r="6.35256" cy="14.95512" cx="419.26924"/>
   <circle stroke="null" fill="#fce0a2" r="235.04489" cy="250" cx="247.75"/>
   <circle stroke="null" fill="#f1bc19" r="25.41025" cy="27.66025" cx="457.38463"/>
   <circle stroke="null" fill="#ee3e54" r="12.70511" cy="84.83333" cx="482.79488"/>
   <circle stroke="null" fill="#fbcd59" r="12.70515" cy="415.16667" cx="444.6795"/>
   <circle stroke="null" fill="#fbcd59" r="25.41024" cy="332.58333" cx="25.41025"/>
   <circle stroke="null" fill="#ee3e54" r="12.70511" cy="485.04488" cx="88.93589"/>
   <circle stroke="null" fill="#fff" r="15.8814" cy="272.23397" cx="47.64423"/>
   <circle stroke="null" fill="#f1bc19" r="6.35256" cy="357.99359" cx="63.52564"/>
   <circle stroke="null" fill="#fff" r="6.35257" cy="148.35897" cx="438.32693"/>
   <g stroke="null">
    <path stroke="null" d="m161.59017,391.66218c-30.6003,0 -55.50235,-24.90205 -55.50235,-55.50235l0,-172.31331c0,-30.6003 24.90205,-55.50235 55.50235,-55.50235l172.31331,0c30.6003,0 55.50235,24.90205 55.50235,55.50235l0,172.31331c0,30.6003 -24.90205,55.50235 -55.50235,55.50235l-172.31331,0z" fill="#472b29"/>
    <path stroke="null" d="m333.90348,112.78461c28.15457,0 51.05556,22.90735 51.05556,51.05556l0,172.31331c0,28.15457 -22.90735,51.05556 -51.05556,51.05556l-172.31331,0c-28.15457,0 -51.05556,-22.90735 -51.05556,-51.05556l0,-172.30695c0,-28.15457 22.90735,-51.05556 51.05556,-51.05556l172.31331,0m0,-8.89994l-172.31331,0c-32.96981,0 -59.94915,26.97934 -59.94915,59.9555l0,172.31331c0,32.96981 26.97934,59.94915 59.94915,59.94915l172.31331,0c32.97616,0 59.9555,-26.97934 59.9555,-59.94915l0,-172.31331c0,-32.97616 -26.97934,-59.9555 -59.9555,-59.9555l0,0z" fill="#472b29"/>
   </g>
   <g stroke="null">
    <path stroke="null" d="m349.39103,205.53205c0,0 -44.46795,0 -50.82051,-50.82051l-38.11539,0l0,89.08836l0,44.31549l-0.31763,19.05769c-1.60085,14.27421 -13.56908,25.41026 -28.26891,25.41026c-15.78612,0 -28.58654,-12.80042 -28.58654,-28.58654s12.80042,-28.58654 28.58654,-28.58654c1.08629,0 2.12176,0.20328 3.17628,0.31763l0,-38.2742c-1.06088,-0.05082 -2.1027,-0.15881 -3.17628,-0.15881c-36.83852,0 -66.70193,29.8634 -66.70193,66.70193c0,36.83852 29.8634,66.70193 66.70193,66.70193c35.76494,0 64.87239,-28.17362 66.54311,-63.52564l0.15881,0l0,-81.05872c12.57808,10.31021 29.12015,17.53308 50.82051,17.53308c0,-12.70513 0,-38.11539 0,-38.11539z" fill="#ee3e54"/>
   </g>
   <g stroke="null">
    <path stroke="null" d="m298.57052,294.46795c-0.87665,0 -1.58814,-0.71149 -1.58814,-1.58814l0,-54.79087c0,-0.87665 0.71149,-1.58814 1.58814,-1.58814s1.58814,0.71149 1.58814,1.58814l0,54.79087c0,0.87665 -0.71149,1.58814 -1.58814,1.58814z" fill="#472b29"/>
   </g>
   <g stroke="null">
    <path stroke="null" d="m231.86859,372.28686c-5.0757,0 -10.13234,-0.55903 -15.03017,-1.65802c-0.8576,-0.19058 -1.39756,-1.04182 -1.20063,-1.89942c0.19058,-0.85124 1.01006,-1.40392 1.89942,-1.20063c9.32556,2.08999 19.29909,2.1027 28.58654,0.01271c2.05823,-0.45103 4.11011,-1.01641 6.11752,-1.68343c2.52832,-0.83854 5.00582,-1.82954 7.34992,-2.94124c21.84012,-10.31656 36.10162,-31.70565 37.23238,-55.81998c0.04447,-0.85124 0.7369,-1.51191 1.58814,-1.51191c0.87665,0 1.67072,0.71149 1.67072,1.58814c0,0.21599 -0.03812,0.41927 -0.11435,0.6162c-1.37215,25.06722 -16.28162,47.25673 -39.0238,57.99891c-2.46479,1.17522 -5.05664,2.21069 -7.71837,3.08735c-2.1027,0.69243 -4.26257,1.28957 -6.42244,1.76601c-4.85336,1.09264 -9.87824,1.64531 -14.93488,1.64531z" fill="#472b29"/>
   </g>
   <g stroke="null">
    <path stroke="null" d="m205.53086,294.45524c-0.20328,0 -0.41292,-0.03812 -0.62255,-0.12705c-0.80678,-0.34304 -1.18793,-1.27687 -0.84489,-2.08364c4.73901,-11.19322 15.65272,-18.42244 27.80517,-18.42244c0.53997,0 1.06723,0.04447 1.58814,0.10799l0,-36.47007c0,-0.87665 0.71149,-1.58814 1.58814,-1.58814s1.58814,0.71149 1.58814,1.58814l0,38.2742c0,0.45103 -0.19058,0.88301 -0.52726,1.18793c-0.34304,0.29857 -0.78772,0.42562 -1.2324,0.39386l-0.97829,-0.12705c-0.66067,-0.08894 -1.33404,-0.18422 -2.02012,-0.18422c-10.87559,0 -20.63948,6.47326 -24.87664,16.49126c-0.26681,0.59079 -0.85124,0.95924 -1.46744,0.95924z" fill="#472b29"/>
   </g>
   <g stroke="null">
    <path stroke="null" d="m349.39103,245.23558c-9.21122,0 -17.98411,-1.30228 -26.08363,-3.86871c-0.83854,-0.26681 -1.30228,-1.16252 -1.03547,-1.98835c0.26681,-0.83854 1.18793,-1.30228 1.98835,-1.03547c7.32451,2.31869 15.2398,3.57014 23.5426,3.7099l0,-34.99628c-4.19269,-0.27951 -15.91317,-1.75966 -27.2398,-9.5479c-0.72419,-0.4955 -0.90842,-1.4865 -0.40656,-2.21069c0.50185,-0.71784 1.49921,-0.89571 2.21069,-0.40656c13.01005,8.94441 26.8904,9.0524 27.03016,9.0524c0.87665,0 1.58814,0.71149 1.58814,1.58814l0,38.11539c-0.00635,0.87665 -0.71784,1.58814 -1.59449,1.58814z" fill="#472b29"/>
   </g>
   <g stroke="null">
    <path stroke="null" d="m219.16346,361.16987c-38.5283,0 -69.87821,-31.3499 -69.87821,-69.87821s31.3499,-69.87821 69.87821,-69.87821c0.76231,0 1.50556,0.05082 2.25516,0.10164l1.06723,0.06988c1.69613,0.07623 3.03017,1.47379 3.03017,3.16993l0,38.2742c0,0.90842 -0.38751,1.75966 -1.06088,2.36951c-0.58444,0.52091 -1.34039,0.80678 -2.1154,0.80678c-0.1207,0 -1.37215,-0.14611 -1.37215,-0.14611c-0.59714,-0.08258 -1.18793,-0.17787 -1.80413,-0.17787c-14.01376,0 -25.41026,11.3965 -25.41026,25.41026s11.3965,25.41026 25.41026,25.41026c12.8703,0 23.66965,-9.70672 25.10533,-22.58972l0.30492,-18.75912l0,-133.34668c0,-1.75331 1.42297,-3.17628 3.17628,-3.17628l38.11539,0c1.60085,0 2.95394,1.19428 3.15087,2.78242c5.92059,47.3266 45.97351,48.03809 47.676,48.04444c1.74696,0.00635 3.16993,1.42933 3.16993,3.17628l0,38.11539c0,1.75331 -1.42297,3.17628 -3.17628,3.17628c-17.96505,0 -33.96081,-4.81524 -47.64423,-14.32503l0,74.66804c0,0.40656 -0.08258,0.80042 -0.21599,1.16887c-2.26787,36.82582 -32.67124,65.53305 -69.66222,65.53305z" fill="#fff"/>
    <path stroke="null" d="m285.86539,142.0064c6.35256,50.82051 50.82051,50.82051 50.82051,50.82051s0,25.41026 0,38.11539c-21.70036,0 -38.24244,-7.21651 -50.82051,-17.53308l0,81.05872l-0.15881,0c-1.67072,35.35202 -30.77817,63.52564 -66.54311,63.52564c-36.83852,0 -66.70193,-29.8634 -66.70193,-66.70193c0,-36.83852 29.8634,-66.70193 66.70193,-66.70193c1.07358,0 2.1154,0.10799 3.17628,0.15881l0,38.2742c-1.05453,-0.11435 -2.08999,-0.31763 -3.17628,-0.31763c-15.78612,0 -28.58654,12.80042 -28.58654,28.58654s12.80042,28.58654 28.58654,28.58654c14.69983,0 26.66807,-11.13605 28.26891,-25.41026l0.31763,-19.05769l0,-44.31549l0,-89.08836l38.11539,0m0,-6.35256l-38.11539,0c-3.50662,0 -6.35256,2.84595 -6.35256,6.35256l0,89.08836l0,44.31549l-0.31128,18.63207c-1.39121,11.12969 -10.76124,19.48331 -21.9227,19.48331c-12.26045,0 -22.23398,-9.97353 -22.23398,-22.23398s9.97353,-22.23398 22.23398,-22.23398c0.47644,0 0.93383,0.08258 1.39121,0.14611l1.07358,0.13976c0.23504,0.02541 0.47009,0.03812 0.70513,0.03812c1.55638,0 3.06194,-0.57173 4.23716,-1.6199c1.3531,-1.20699 2.12176,-2.92853 2.12176,-4.73901l0,-38.2742c0,-3.39227 -2.66172,-6.1874 -6.05399,-6.34621l-0.991,-0.06353c-0.82583,-0.05082 -1.64531,-0.10164 -2.48385,-0.10164c-40.28161,0 -73.05449,32.77288 -73.05449,73.05449s32.77288,73.05449 73.05449,73.05449c38.55371,0 70.25936,-29.82529 72.80674,-68.15666c0.15881,-0.54632 0.24775,-1.1244 0.24775,-1.72154l0,-68.85544c13.06722,7.75648 27.97034,11.68237 44.46795,11.68237c3.50662,0 6.35256,-2.84595 6.35256,-6.35256l0,-38.11539c0,-3.50662 -2.84595,-6.35256 -6.35256,-6.35256c-1.56273,-0.01271 -38.96663,-0.83219 -44.51877,-45.25567c-0.39386,-3.17628 -3.10005,-5.56485 -6.30174,-5.56485l0,0z" fill="#472b29"/>
   </g>
   <g stroke="null">
    <path stroke="null" d="m336.6859,198.49341c0,-3.43038 0,-5.66649 0,-5.66649s-16.82794,-0.04447 -31.26097,-11.88565c10.21492,12.1334 23.51084,16.22445 31.26097,17.55214z" fill="#83ccb7"/>
    <path stroke="null" d="m202.43081,314.37689c5.1964,7.15299 13.56908,11.85389 23.08522,11.85389c14.69983,0 26.66807,-11.13605 28.26891,-25.41026l0.31763,-19.05769l0,-44.31549l0,-89.08836l32.91264,0c-0.42562,-2.05823 -0.86395,-4.0974 -1.14981,-6.35256l-38.11539,0l0,89.08836l0,44.31549l-0.31763,19.05769c-1.60085,14.27421 -13.56908,25.41026 -28.26891,25.41026c-6.26998,0 -12.01905,-2.07729 -16.73265,-5.50132z" fill="#83ccb7"/>
    <path stroke="null" d="m158.8141,297.64423c0,-35.76494 28.17362,-64.87239 63.52564,-66.54311l0,-6.35256c-1.06088,-0.05082 -2.1027,-0.15881 -3.17628,-0.15881c-36.83852,0 -66.70193,29.8634 -66.70193,66.70193c0,20.03599 8.88088,37.96292 22.86288,50.19161c-10.25304,-11.72683 -16.51031,-27.03651 -16.51031,-43.83905z" fill="#83ccb7"/>
   </g>
   <g stroke="null">
    <path stroke="null" d="m254.10257,226.17788c-0.87665,0 -1.58814,-0.71149 -1.58814,-1.58814l0,-76.23077c0,-0.87665 0.71149,-1.58814 1.58814,-1.58814l32.91264,0c0.87665,0 1.58814,0.71149 1.58814,1.58814s-0.71149,1.58814 -1.58814,1.58814l-31.32449,0l0,74.64263c0,0.87665 -0.71149,1.58814 -1.58814,1.58814z" fill="#472b29"/>
    <path stroke="null" d="m254.10257,283.35096c-0.87665,0 -1.58814,-0.71149 -1.58814,-1.58814l0,-44.31549c0,-0.87665 0.71149,-1.58814 1.58814,-1.58814s1.58814,0.71149 1.58814,1.58814l0,44.31549c0,0.87665 -0.71149,1.58814 -1.58814,1.58814z" fill="#472b29"/>
    <path stroke="null" d="m225.51603,327.81891c-0.87665,0 -1.58814,-0.71149 -1.58814,-1.58814s0.71149,-1.58814 1.58814,-1.58814c13.68342,0 25.15615,-10.31656 26.68712,-23.99364l0.13976,-9.12228c0.01271,-0.8703 0.72419,-1.56273 1.58814,-1.56273c0.00635,0 0.01906,0 0.02541,0c0.88301,0.01271 1.57544,0.7369 1.56273,1.61355l-0.15246,9.26839c-1.71519,15.44308 -14.54737,26.97299 -29.8507,26.97299z" fill="#472b29"/>
    <path stroke="null" d="m199.26088,237.97459c-0.6162,0 -1.20063,-0.3621 -1.45474,-0.95924c-0.34939,-0.80678 0.02541,-1.7406 0.83219,-2.08364c7.50238,-3.20804 15.44944,-5.03123 23.63154,-5.41874c0.76866,0.08258 1.6199,0.64161 1.66437,1.51191c0.03812,0.87665 -0.64161,1.6199 -1.51191,1.66437c-7.80095,0.36845 -15.37956,2.1027 -22.52619,5.15828c-0.20963,0.08894 -0.42562,0.12705 -0.63526,0.12705z" fill="#472b29"/>
    <path stroke="null" d="m158.8141,299.23237c-0.87665,0 -1.58814,-0.71149 -1.58814,-1.58814c0,-23.58707 11.94917,-45.17944 31.9534,-57.76387c0.7369,-0.44468 1.72154,-0.24775 2.19163,0.50185c0.46374,0.7369 0.2414,1.72154 -0.50185,2.19163c-19.07675,11.99364 -30.4669,32.5823 -30.4669,55.07038c0,0.87665 -0.71149,1.58814 -1.58814,1.58814z" fill="#472b29"/>
   </g>
  </g>
  <text style="cursor: move;" font-style="normal" font-weight="bold" transform="matrix(17.613 0 0 17.613 -10518.3 -2327.64)" stroke="#000000" xml:space="preserve" text-anchor="start" font-family="'Rubik'" font-size="24" stroke-width="0" id="svg_1" y="154.56262" x="626.52967" fill="#ffffff">TikTok工具箱</text>
 </g>

</svg>