<svg width="178" height="40" xmlns="http://www.w3.org/2000/svg" version="1">
 <g id="Layer_1">
  <title>Layer 1</title>
  <g stroke="null">
   <path stroke="null" d="m42.98798,23.6879c0.62381,-1.18442 0.98106,-2.53097 0.98106,-3.96271c0,-3.63899 -2.28584,-6.73661 -5.49668,-7.9573c0,-0.00385 0.00055,-0.00769 0.00055,-0.01209c0,-6.37441 -5.16746,-11.54187 -11.54187,-11.54187c-5.37741,0 -9.88259,3.68296 -11.16429,8.66025c-0.81123,-0.26656 -1.67577,-0.41606 -2.57604,-0.41606c-4.22762,0 -7.70722,3.18391 -8.18374,7.28347c-2.86019,0.60512 -5.00697,3.14214 -5.00697,6.18205c0,3.49059 2.82996,6.32055 6.32055,6.32055c0.09728,0 0.19346,-0.0066 0.2891,-0.01209c-0.0022,0.09618 -0.01429,0.19017 -0.01429,0.2869c0,6.22272 5.04435,11.26707 11.26707,11.26707c3.53786,0 6.69154,-1.63345 8.75753,-4.18475c1.19706,1.22289 2.86128,1.9863 4.70798,1.9863c2.5557,0 4.76734,-1.45647 5.86217,-3.58238c0.57819,0.18412 1.19321,0.2847 1.83241,0.2847c3.3389,0 6.04574,-2.70684 6.04574,-6.04574c0,-1.81977 -0.80793,-3.44772 -2.08028,-4.55629z" fill="#c7ede6"/>
   <path stroke="null" d="m14.01513,14.77868l0,0.27481l1.64884,0l0,-0.27481c0,0 2.33146,0 3.02287,0c1.36579,0 2.47326,-1.10747 2.47326,-2.47326c0,-1.28225 -0.97941,-2.32431 -2.22868,-2.44853c0.01209,-0.09948 0.03023,-0.19676 0.03023,-0.29954c0,-1.36579 -1.10747,-2.47326 -2.47326,-2.47326c-0.79034,0 -1.4856,0.37703 -1.93848,0.95413c-0.07695,-1.44878 -1.26521,-2.60297 -2.73323,-2.60297c-1.51748,0 -2.74806,1.23058 -2.74806,2.74806c0,0.24513 0.04232,0.47816 0.10278,0.7046c-0.35285,-0.42705 -0.87993,-0.7046 -1.47681,-0.7046c-0.97886,0 -1.77745,0.73373 -1.89891,1.67907c-0.09948,-0.01209 -0.19676,-0.03023 -0.29954,-0.03023c-1.36579,0 -2.47326,1.10747 -2.47326,2.47326s1.10747,2.47326 2.47326,2.47326s5.22132,0 5.22132,0l3.29768,0z" fill="#fdfcef"/>
   <path stroke="null" d="m11.81668,5.16045c-1.66698,0 -3.02287,1.3559 -3.02287,3.02287c0,0.00879 0,0.01704 0,0.02583c-0.33087,-0.19511 -0.709,-0.30064 -1.09923,-0.30064c-1.00634,0 -1.87473,0.69306 -2.12041,1.65159c-0.02583,-0.00165 -0.05166,-0.00275 -0.07805,-0.00275c-1.51528,0 -2.74806,1.23278 -2.74806,2.74806s1.23278,2.74806 2.74806,2.74806l8.519,0c0.15169,0 0.27481,-0.12311 0.27481,-0.27481s-0.12311,-0.27481 -0.27481,-0.27481l-8.519,0c-1.21245,0 -2.19845,-0.98601 -2.19845,-2.19845s0.98601,-2.19845 2.19845,-2.19845c0.0643,0 0.12641,0.00934 0.18852,0.01759l0.0775,0.01044c0.01154,0.00165 0.02253,0.0022 0.03408,0.0022c0.1352,0 0.25392,-0.10168 0.27206,-0.24018c0.10498,-0.82057 0.80408,-1.43889 1.6263,-1.43889c0.48641,0 0.94698,0.22039 1.26466,0.60457c0.05386,0.06485 0.13246,0.10003 0.21215,0.10003c0.04287,0 0.08574,-0.00989 0.12531,-0.03078c0.11487,-0.05881 0.17258,-0.19017 0.1396,-0.31493c-0.06321,-0.23908 -0.09288,-0.44024 -0.09288,-0.6337c0,-1.36359 1.10967,-2.47326 2.47326,-2.47326c1.30863,0 2.38917,1.02888 2.45897,2.343c0.00605,0.11432 0.08244,0.2127 0.19181,0.24733c0.02748,0.00879 0.05551,0.01319 0.08354,0.01319c0.08244,0 0.16269,-0.03792 0.21545,-0.10553c0.42375,-0.53972 1.05086,-0.84915 1.72194,-0.84915c1.21245,0 2.19845,0.98601 2.19845,2.19845c0,0.0643 -0.00934,0.12641 -0.01759,0.18852l-0.01044,0.0775c-0.00879,0.07365 0.01209,0.1473 0.05826,0.20501c0.04617,0.05771 0.11377,0.09453 0.18687,0.10168c1.13,0.11267 1.98135,1.04811 1.98135,2.17537c0,1.21245 -0.98601,2.19845 -2.19845,2.19845l-3.02287,0c-0.15169,0 -0.27481,0.12311 -0.27481,0.27481s0.12311,0.27481 0.27481,0.27481l3.02287,0c1.51528,0 2.74806,-1.23278 2.74806,-2.74806c0,-1.31742 -0.9283,-2.42544 -2.2001,-2.68046c0.0011,-0.02253 0.00165,-0.04507 0.00165,-0.0676c0,-1.51528 -1.23278,-2.74806 -2.74806,-2.74806c-0.64634,0 -1.26026,0.22864 -1.74942,0.63975c-0.32867,-1.32127 -1.51803,-2.28859 -2.92229,-2.28859l0,0z" fill="#472b29"/>
   <path stroke="null" d="m10.99226,9.00774c-0.77111,0 -1.43394,0.54906 -1.60102,1.28664c-0.20171,-0.12201 -0.432,-0.18742 -0.66613,-0.18742c-0.66063,0 -1.20805,0.493 -1.29324,1.1366c-0.11157,-0.02528 -0.21765,-0.03737 -0.32152,-0.03737c-0.84036,0 -1.54496,0.65954 -1.60377,1.50154c-0.00495,0.07585 0.05221,0.1418 0.12751,0.1473c0.0033,0 0.0066,0 0.00989,0c0.07145,0 0.13191,-0.05551 0.13685,-0.12751c0.04892,-0.69856 0.6326,-1.24652 1.32951,-1.24652c0.12586,0 0.25832,0.02308 0.40561,0.0698c0.01209,0.00385 0.02473,0.0055 0.03682,0.0055c0.03023,0 0.06046,-0.01099 0.08574,-0.02968c0.03518,-0.02528 0.05606,-0.07035 0.05606,-0.11432c0,-0.5683 0.46222,-1.03052 1.03052,-1.03052c0.24568,0 0.48641,0.09233 0.67657,0.25997c0.02583,0.02253 0.05826,0.03463 0.09069,0.03463c0.01759,0 0.03463,-0.0033 0.05111,-0.01044c0.04837,-0.01924 0.08134,-0.0643 0.08519,-0.11652c0.05716,-0.71065 0.65569,-1.26686 1.36359,-1.26686c0.11432,0 0.23359,0.01869 0.37484,0.05881c0.01264,0.00385 0.02583,0.0055 0.03847,0.0055c0.05991,0 0.11377,-0.04012 0.13136,-0.10003c0.02089,-0.0731 -0.02143,-0.14895 -0.09453,-0.16983c-0.16598,-0.04727 -0.30943,-0.06925 -0.45013,-0.06925l0,0z" fill="#472b29"/>
   <path stroke="null" d="m18.62254,9.83216c-0.72879,0 -1.37843,0.493 -1.57959,1.19926c-0.02089,0.0731 0.02143,0.14895 0.09453,0.16983c0.01319,0.0033 0.02583,0.00495 0.03792,0.00495c0.05991,0 0.11487,-0.03957 0.13191,-0.10003c0.16763,-0.58809 0.70845,-0.9992 1.31522,-0.9992c0.0643,0 0.12641,0.00769 0.18797,0.01594c0.0066,0.0011 0.01264,0.00165 0.01924,0.00165c0.0665,0 0.12586,-0.05056 0.1352,-0.11927c0.01044,-0.0753 -0.04232,-0.14455 -0.11762,-0.15444c-0.07365,-0.00989 -0.1484,-0.01869 -0.22479,-0.01869l0,0z" fill="#472b29"/>
   <path stroke="null" d="m9.06861,31.54187l-5.49613,0c-0.15169,0 -0.27481,-0.12311 -0.27481,-0.27481s0.12311,-0.27481 0.27481,-0.27481l5.49613,0c0.15169,0 0.27481,0.12311 0.27481,0.27481s-0.12256,0.27481 -0.27481,0.27481z" fill="#fff"/>
   <path stroke="null" d="m10.71745,31.54187l-0.54961,0c-0.15169,0 -0.27481,-0.12311 -0.27481,-0.27481s0.12311,-0.27481 0.27481,-0.27481l0.54961,0c0.15169,0 0.27481,0.12311 0.27481,0.27481s-0.12256,0.27481 -0.27481,0.27481z" fill="#fff"/>
   <path stroke="null" d="m13.46057,32.6411l-4.94157,0c-0.15169,0 -0.27481,-0.12311 -0.27481,-0.27481s0.12311,-0.27481 0.27481,-0.27481l4.94157,0c0.15169,0 0.27481,0.12311 0.27481,0.27481s-0.12311,0.27481 -0.27481,0.27481z" fill="#fff"/>
   <path stroke="null" d="m7.41978,32.6411l-0.54961,0c-0.15169,0 -0.27481,-0.12311 -0.27481,-0.27481s0.12311,-0.27481 0.27481,-0.27481l0.54961,0c0.15169,0 0.27481,0.12311 0.27481,0.27481s-0.12256,0.27481 -0.27481,0.27481z" fill="#fff"/>
   <path stroke="null" d="m5.77094,32.6411l-1.09923,0c-0.15169,0 -0.27481,-0.12311 -0.27481,-0.27481s0.12311,-0.27481 0.27481,-0.27481l1.09923,0c0.15169,0 0.27481,0.12311 0.27481,0.27481s-0.12256,0.27481 -0.27481,0.27481z" fill="#fff"/>
   <path stroke="null" d="m9.06861,33.74032l-1.09923,0c-0.15169,0 -0.27481,-0.12311 -0.27481,-0.27481s0.12311,-0.27481 0.27481,-0.27481l1.09923,0c0.15169,0 0.27481,0.12311 0.27481,0.27481s-0.12311,0.27481 -0.27481,0.27481z" fill="#fff"/>
   <path stroke="null" d="m10.71745,28.79381c-0.09728,0 -0.45233,0 -0.54961,0c-0.15169,0 -0.27481,0.12311 -0.27481,0.27481c0,0.15169 0.12311,0.27481 0.27481,0.27481c0.09728,0 0.45233,0 0.54961,0c0.15169,0 0.27481,-0.12311 0.27481,-0.27481c0,-0.15169 -0.12311,-0.27481 -0.27481,-0.27481z" fill="#fff"/>
   <path stroke="null" d="m10.71745,29.89303c-0.09728,0 -2.65078,0 -2.74806,0c-0.15169,0 -0.27481,0.12311 -0.27481,0.27481c0,0.15169 0.12311,0.27481 0.27481,0.27481c0.09728,0 2.65078,0 2.74806,0c0.15169,0 0.27481,-0.12311 0.27481,-0.27481c0,-0.15169 -0.12311,-0.27481 -0.27481,-0.27481z" fill="#fff"/>
   <path stroke="null" d="m13.46552,30.99226c-0.09728,0 -1.55156,0 -1.64884,0c-0.15169,0 -0.27481,0.12311 -0.27481,0.27481c0,0.15169 0.12311,0.27481 0.27481,0.27481c0.09728,0 1.55156,0 1.64884,0c0.15169,0 0.27481,-0.12311 0.27481,-0.27481c0,-0.15169 -0.12311,-0.27481 -0.27481,-0.27481z" fill="#fff"/>
   <g stroke="null">
    <path stroke="null" d="m42.595,17.25193l-5.49613,0c-0.15169,0 -0.27481,-0.12311 -0.27481,-0.27481s0.12311,-0.27481 0.27481,-0.27481l5.49613,0c0.15169,0 0.27481,0.12311 0.27481,0.27481s-0.12311,0.27481 -0.27481,0.27481z" fill="#fff"/>
    <path stroke="null" d="m44.79346,17.25193l-1.09923,0c-0.15169,0 -0.27481,-0.12311 -0.27481,-0.27481s0.12311,-0.27481 0.27481,-0.27481l1.09923,0c0.15169,0 0.27481,0.12311 0.27481,0.27481s-0.12311,0.27481 -0.27481,0.27481z" fill="#fff"/>
    <path stroke="null" d="m47.54152,18.35116l-5.49613,0c-0.15169,0 -0.27481,-0.12311 -0.27481,-0.27481s0.12311,-0.27481 0.27481,-0.27481l5.49613,0c0.15169,0 0.27481,0.12311 0.27481,0.27481s-0.12256,0.27481 -0.27481,0.27481z" fill="#fff"/>
    <path stroke="null" d="m40.94616,18.35116l-0.54961,0c-0.15169,0 -0.27481,-0.12311 -0.27481,-0.27481s0.12311,-0.27481 0.27481,-0.27481l0.54961,0c0.15169,0 0.27481,0.12311 0.27481,0.27481s-0.12311,0.27481 -0.27481,0.27481z" fill="#fff"/>
    <path stroke="null" d="m39.28084,18.35116l-1.08274,0c-0.15169,0 -0.27481,-0.12311 -0.27481,-0.27481s0.12311,-0.27481 0.27481,-0.27481l1.08274,0c0.15169,0 0.27481,0.12311 0.27481,0.27481s-0.12311,0.27481 -0.27481,0.27481z" fill="#fff"/>
    <path stroke="null" d="m44.24384,16.15271l-2.74806,0c-0.15169,0 -0.27481,-0.12311 -0.27481,-0.27481s0.12311,-0.27481 0.27481,-0.27481l2.74806,0c0.15169,0 0.27481,0.12311 0.27481,0.27481s-0.12256,0.27481 -0.27481,0.27481z" fill="#fff"/>
    <path stroke="null" d="m42.595,19.45039l-1.09923,0c-0.15169,0 -0.27481,-0.12311 -0.27481,-0.27481s0.12311,-0.27481 0.27481,-0.27481l1.09923,0c0.15169,0 0.27481,0.12311 0.27481,0.27481s-0.12311,0.27481 -0.27481,0.27481z" fill="#fff"/>
   </g>
   <g stroke="null">
    <path stroke="null" d="m15.59527,33.35559c-2.02313,0 -3.66867,-1.64554 -3.66867,-3.66867l0,-16.07618c0,-2.02313 1.64554,-3.66867 3.66867,-3.66867l16.07618,0c2.02313,0 3.66867,1.64554 3.66867,3.66867l0,16.07618c0,2.02313 -1.64554,3.66867 -3.66867,3.66867l-16.07618,0z" fill="#472b29"/>
    <path stroke="null" d="m31.67145,10.32681c1.81097,0 3.28394,1.47296 3.28394,3.28394l0,16.07618c0,1.81097 -1.47296,3.28394 -3.28394,3.28394l-16.07618,0c-1.81097,0 -3.28394,-1.47296 -3.28394,-3.28394l0,-16.07618c0,-1.81097 1.47296,-3.28394 3.28394,-3.28394l16.07618,0m0,-0.76946l-16.07618,0c-2.22923,0 -4.0534,1.82417 -4.0534,4.0534l0,16.07618c0,2.22923 1.82417,4.0534 4.0534,4.0534l16.07618,0c2.22923,0 4.0534,-1.82417 4.0534,-4.0534l0,-16.07618c0,-2.22923 -1.82417,-4.0534 -4.0534,-4.0534l0,0z" fill="#472b29"/>
   </g>
   <g stroke="null">
    <path stroke="null" d="m32.42716,17.25193c0,0 -3.84729,0 -4.3969,-4.3969l-3.29768,0l0,7.70777l0,3.8341l-0.02748,1.64884c-0.1385,1.23498 -1.17397,2.19845 -2.44578,2.19845c-1.36579,0 -2.47326,-1.10747 -2.47326,-2.47326s1.10747,-2.47326 2.47326,-2.47326c0.09398,0 0.18357,0.01759 0.27481,0.02748l0,-3.31142c-0.09179,-0.0044 -0.18192,-0.01374 -0.27481,-0.01374c-3.18721,0 -5.77094,2.58373 -5.77094,5.77094c0,3.18721 2.58373,5.77094 5.77094,5.77094c3.09432,0 5.61265,-2.43753 5.7572,-5.49613l0.01374,0l0,-7.01306c1.08823,0.89202 2.51943,1.51693 4.3969,1.51693c0,-1.09923 0,-3.29768 0,-3.29768z" fill="#ee3e54"/>
   </g>
   <g stroke="null">
    <path stroke="null" d="m28.03026,24.94652c-0.07585,0 -0.1374,-0.06156 -0.1374,-0.1374l0,-4.74041c0,-0.07585 0.06156,-0.1374 0.1374,-0.1374s0.1374,0.06156 0.1374,0.1374l0,4.74041c0,0.07585 -0.06156,0.1374 -0.1374,0.1374z" fill="#472b29"/>
   </g>
   <g stroke="null">
    <path stroke="null" d="m22.25932,31.67927c-0.43914,0 -0.87663,-0.04837 -1.30038,-0.14345c-0.0742,-0.01649 -0.12091,-0.09014 -0.10388,-0.16433c0.01649,-0.07365 0.08684,-0.12146 0.16433,-0.10388c0.80683,0.18137 1.66972,0.18137 2.47326,0.0011c0.17807,-0.03902 0.3556,-0.08794 0.52928,-0.14565c0.21875,-0.07255 0.43309,-0.15829 0.6359,-0.25447c1.88957,-0.89257 3.12345,-2.74312 3.22128,-4.82945c0.00385,-0.07365 0.06376,-0.13081 0.1374,-0.13081c0.07585,0 0.14455,0.06156 0.14455,0.1374c0,0.01869 -0.0033,0.03627 -0.00989,0.05331c-0.11872,2.16877 -1.40866,4.08857 -3.37627,5.01797c-0.21325,0.10168 -0.43749,0.19127 -0.66778,0.26711c-0.18192,0.05991 -0.36879,0.11157 -0.55566,0.15279c-0.4199,0.09453 -0.85465,0.14235 -1.29214,0.14235z" fill="#472b29"/>
   </g>
   <g stroke="null">
    <path stroke="null" d="m19.98063,24.94542c-0.01759,0 -0.03572,-0.0033 -0.05386,-0.01099c-0.0698,-0.02968 -0.10278,-0.11047 -0.0731,-0.18027c0.41001,-0.96842 1.35425,-1.59388 2.40566,-1.59388c0.04672,0 0.09233,0.00385 0.1374,0.00934l0,-3.15533c0,-0.07585 0.06156,-0.1374 0.1374,-0.1374s0.1374,0.06156 0.1374,0.1374l0,3.31142c0,0.03902 -0.01649,0.0764 -0.04562,0.10278c-0.02968,0.02583 -0.06815,0.03682 -0.10662,0.03408l-0.08464,-0.01099c-0.05716,-0.00769 -0.11542,-0.01594 -0.17478,-0.01594c-0.94094,0 -1.78569,0.56006 -2.15228,1.4268c-0.02308,0.05111 -0.07365,0.08299 -0.12696,0.08299z" fill="#472b29"/>
   </g>
   <g stroke="null">
    <path stroke="null" d="m32.42716,20.68702c-0.79694,0 -1.55595,-0.11267 -2.25671,-0.33471c-0.07255,-0.02308 -0.11267,-0.10058 -0.08959,-0.17203c0.02308,-0.07255 0.10278,-0.11322 0.17203,-0.08959c0.6337,0.20061 1.31852,0.30888 2.03687,0.32097l0,-3.02782c-0.36274,-0.02418 -1.37678,-0.15224 -2.35674,-0.82607c-0.06266,-0.04287 -0.07859,-0.12861 -0.03518,-0.19127c0.04342,-0.06211 0.12916,-0.0775 0.19127,-0.03518c1.12561,0.77386 2.32651,0.7832 2.3386,0.7832c0.07585,0 0.1374,0.06156 0.1374,0.1374l0,3.29768c-0.00055,0.07585 -0.06211,0.1374 -0.13795,0.1374z" fill="#472b29"/>
   </g>
   <g stroke="null">
    <path stroke="null" d="m21.1601,30.71745c-3.3334,0 -6.04574,-2.71234 -6.04574,-6.04574s2.71234,-6.04574 6.04574,-6.04574c0.06595,0 0.13026,0.0044 0.19511,0.00879l0.09233,0.00605c0.14675,0.0066 0.26217,0.12751 0.26217,0.27426l0,3.31142c0,0.07859 -0.03353,0.15224 -0.09179,0.20501c-0.05056,0.04507 -0.11597,0.0698 -0.18302,0.0698c-0.01044,0 -0.11872,-0.01264 -0.11872,-0.01264c-0.05166,-0.00714 -0.10278,-0.01539 -0.15609,-0.01539c-1.21245,0 -2.19845,0.98601 -2.19845,2.19845s0.98601,2.19845 2.19845,2.19845c1.11352,0 2.04786,-0.83981 2.17207,-1.95442l0.02638,-1.62301l0,-11.53693c0,-0.15169 0.12311,-0.27481 0.27481,-0.27481l3.29768,0c0.1385,0 0.25557,0.10333 0.27261,0.24073c0.51224,4.09462 3.97755,4.15617 4.12485,4.15672c0.15114,0.00055 0.27426,0.12366 0.27426,0.27481l0,3.29768c0,0.15169 -0.12311,0.27481 -0.27481,0.27481c-1.55431,0 -2.93823,-0.41661 -4.1221,-1.23938l0,6.46015c0,0.03518 -0.00714,0.06925 -0.01869,0.10113c-0.19621,3.18611 -2.82666,5.66981 -6.02706,5.66981z" fill="#fff"/>
    <path stroke="null" d="m26.93103,11.75581c0.54961,4.3969 4.3969,4.3969 4.3969,4.3969s0,2.19845 0,3.29768c-1.87748,0 -3.30867,-0.62436 -4.3969,-1.51693l0,7.01306l-0.01374,0c-0.14455,3.0586 -2.66287,5.49613 -5.7572,5.49613c-3.18721,0 -5.77094,-2.58373 -5.77094,-5.77094c0,-3.18721 2.58373,-5.77094 5.77094,-5.77094c0.09288,0 0.18302,0.00934 0.27481,0.01374l0,3.31142c-0.09124,-0.00989 -0.18082,-0.02748 -0.27481,-0.02748c-1.36579,0 -2.47326,1.10747 -2.47326,2.47326s1.10747,2.47326 2.47326,2.47326c1.2718,0 2.30728,-0.96347 2.44578,-2.19845l0.02748,-1.64884l0,-3.8341l0,-7.70777l3.29768,0m0,-0.54961l-3.29768,0c-0.30339,0 -0.54961,0.24623 -0.54961,0.54961l0,7.70777l0,3.8341l-0.02693,1.61201c-0.12037,0.96292 -0.93104,1.68566 -1.89671,1.68566c-1.06075,0 -1.92365,-0.86289 -1.92365,-1.92365s0.86289,-1.92365 1.92365,-1.92365c0.04122,0 0.08079,0.00714 0.12037,0.01264l0.09288,0.01209c0.02034,0.0022 0.04067,0.0033 0.06101,0.0033c0.13466,0 0.26491,-0.04947 0.36659,-0.14015c0.11707,-0.10443 0.18357,-0.25337 0.18357,-0.41001l0,-3.31142c0,-0.29349 -0.23029,-0.53532 -0.52378,-0.54906l-0.08574,-0.0055c-0.07145,-0.0044 -0.14235,-0.00879 -0.2149,-0.00879c-3.4851,0 -6.32055,2.83545 -6.32055,6.32055s2.83545,6.32055 6.32055,6.32055c3.3356,0 6.07872,-2.58043 6.29911,-5.8968c0.01374,-0.04727 0.02143,-0.09728 0.02143,-0.14895l0,-5.95725c1.13055,0.67108 2.41995,1.01074 3.84729,1.01074c0.30339,0 0.54961,-0.24623 0.54961,-0.54961l0,-3.29768c0,-0.30339 -0.24623,-0.54961 -0.54961,-0.54961c-0.1352,-0.0011 -3.37133,-0.072 -3.85169,-3.91544c-0.03408,-0.27481 -0.26821,-0.48146 -0.54522,-0.48146l0,0z" fill="#472b29"/>
   </g>
   <g stroke="null">
    <path stroke="null" d="m31.32794,16.64296c0,-0.29679 0,-0.49025 0,-0.49025s-1.45592,-0.00385 -2.70465,-1.02833c0.88378,1.04976 2.03412,1.40371 2.70465,1.51858z" fill="#83ccb7"/>
    <path stroke="null" d="m19.71242,26.669c0.44958,0.61886 1.17397,1.02558 1.99729,1.02558c1.2718,0 2.30728,-0.96347 2.44578,-2.19845l0.02748,-1.64884l0,-3.8341l0,-7.70777l2.84754,0c-0.03682,-0.17807 -0.07475,-0.3545 -0.09948,-0.54961l-3.29768,0l0,7.70777l0,3.8341l-0.02748,1.64884c-0.1385,1.23498 -1.17397,2.19845 -2.44578,2.19845c-0.54247,0 -1.03987,-0.17972 -1.44768,-0.47596z" fill="#83ccb7"/>
    <path stroke="null" d="m15.93878,25.22132c0,-3.09432 2.43753,-5.61265 5.49613,-5.7572l0,-0.54961c-0.09179,-0.0044 -0.18192,-0.01374 -0.27481,-0.01374c-3.18721,0 -5.77094,2.58373 -5.77094,5.77094c0,1.73348 0.76836,3.28449 1.97806,4.34249c-0.88708,-1.01459 -1.42844,-2.33915 -1.42844,-3.79288z" fill="#83ccb7"/>
   </g>
   <g stroke="null">
    <path stroke="null" d="m24.18297,19.03818c-0.07585,0 -0.1374,-0.06156 -0.1374,-0.1374l0,-6.59536c0,-0.07585 0.06156,-0.1374 0.1374,-0.1374l2.84754,0c0.07585,0 0.1374,0.06156 0.1374,0.1374s-0.06156,0.1374 -0.1374,0.1374l-2.71014,0l0,6.45795c0,0.07585 -0.06156,0.1374 -0.1374,0.1374z" fill="#472b29"/>
    <path stroke="null" d="m24.18297,23.98469c-0.07585,0 -0.1374,-0.06156 -0.1374,-0.1374l0,-3.8341c0,-0.07585 0.06156,-0.1374 0.1374,-0.1374s0.1374,0.06156 0.1374,0.1374l0,3.8341c0,0.07585 -0.06156,0.1374 -0.1374,0.1374z" fill="#472b29"/>
    <path stroke="null" d="m21.70971,27.83198c-0.07585,0 -0.1374,-0.06156 -0.1374,-0.1374s0.06156,-0.1374 0.1374,-0.1374c1.18387,0 2.17647,-0.89257 2.30892,-2.07589l0.01209,-0.78924c0.0011,-0.0753 0.06266,-0.1352 0.1374,-0.1352c0.00055,0 0.00165,0 0.0022,0c0.0764,0.0011 0.1363,0.06376 0.1352,0.1396l-0.01319,0.80189c-0.1484,1.33611 -1.25861,2.33366 -2.58263,2.33366z" fill="#472b29"/>
    <path stroke="null" d="m19.43816,20.05881c-0.05331,0 -0.10388,-0.03133 -0.12586,-0.08299c-0.03023,-0.0698 0.0022,-0.15059 0.072,-0.18027c0.64909,-0.27755 1.33666,-0.43529 2.04456,-0.46882c0.07585,0 0.1396,0.05551 0.144,0.13081c0.0033,0.07585 -0.05551,0.14015 -0.13081,0.144c-0.67492,0.03188 -1.33061,0.18192 -1.94893,0.44629c-0.01814,0.00769 -0.03682,0.01099 -0.05496,0.01099z" fill="#472b29"/>
    <path stroke="null" d="m15.93878,25.35873c-0.07585,0 -0.1374,-0.06156 -0.1374,-0.1374c0,-2.04071 1.03382,-3.90885 2.76455,-4.99763c0.06321,-0.03847 0.14895,-0.02143 0.18962,0.04342c0.04012,0.06376 0.02089,0.14895 -0.04342,0.18962c-1.65049,1.03767 -2.63594,2.81896 -2.63594,4.76459c0,0.07585 -0.06156,0.1374 -0.1374,0.1374z" fill="#472b29"/>
   </g>
   <g stroke="null">
    <path stroke="null" d="m39.84694,30.71745c0,0 0.86124,0 1.92365,0s1.92365,-0.86124 1.92365,-1.92365c0,-0.97886 -0.73373,-1.77745 -1.67907,-1.89891c0.01539,-0.09838 0.03023,-0.19676 0.03023,-0.29954c0,-1.0624 -0.86124,-1.92365 -1.92365,-1.92365c-0.5672,0 -1.07175,0.25007 -1.4235,0.6403c-0.21105,-0.9937 -1.09208,-1.73952 -2.14899,-1.73952c-1.21409,0 -2.19845,0.98436 -2.19845,2.19845c0,0.10498 0.01649,0.20556 0.03078,0.30668c-0.23523,-0.18907 -0.52983,-0.30668 -0.8552,-0.30668c-0.67492,0 -1.23388,0.48751 -1.3493,1.12945c-0.09838,-0.01539 -0.19676,-0.03023 -0.29954,-0.03023c-1.0624,0 -1.92365,0.86124 -1.92365,1.92365s0.86124,1.92365 1.92365,1.92365s4.1221,0 4.1221,0l0,0.27481l3.84729,0l0,-0.27481z" fill="#fdfcef"/>
    <path stroke="null" d="m40.80876,28.24419c-0.07585,0 -0.1374,-0.06156 -0.1374,-0.1374c0,-0.67218 0.54686,-1.21904 1.21904,-1.21904c0.01869,0.00495 0.40506,-0.00055 0.68372,0.07475c0.0731,0.01979 0.11652,0.09508 0.09673,0.16818c-0.01979,0.07365 -0.09508,0.11707 -0.16818,0.09673c-0.24403,-0.06595 -0.60457,-0.06595 -0.61172,-0.06485c-0.52103,0 -0.94478,0.42375 -0.94478,0.94424c0,0.07585 -0.06156,0.1374 -0.1374,0.1374z" fill="#472b29"/>
    <circle stroke="null" fill="#472b29" r="0.2748" cy="30.71745" cx="37.09887"/>
    <path stroke="null" d="m41.77058,30.99226l-1.92365,0c-0.15169,0 -0.27481,-0.12311 -0.27481,-0.27481s0.12311,-0.27481 0.27481,-0.27481l1.92365,0c0.90906,0 1.64884,-0.73978 1.64884,-1.64884c0,-0.82222 -0.61831,-1.52133 -1.43889,-1.6263c-0.07365,-0.00989 -0.14015,-0.04837 -0.18467,-0.10772s-0.06321,-0.13411 -0.05166,-0.2072c0.01264,-0.08464 0.02638,-0.16928 0.02638,-0.25722c0,-0.90906 -0.73978,-1.64884 -1.64884,-1.64884c-0.46717,0 -0.90027,0.19511 -1.21959,0.54961c-0.0687,0.0764 -0.17643,0.10882 -0.27481,0.08134c-0.10003,-0.02693 -0.17643,-0.10717 -0.19786,-0.2083c-0.18742,-0.88158 -0.97831,-1.52188 -1.88023,-1.52188c-1.06075,0 -1.92365,0.86289 -1.92365,1.92365c0,0.07859 0.01154,0.15389 0.02253,0.22974c0.01594,0.11157 -0.03463,0.24073 -0.13301,0.29679c-0.09838,0.05606 -0.21765,0.06485 -0.30558,-0.0055c-0.20061,-0.16104 -0.43639,-0.24623 -0.68317,-0.24623c-0.53093,0 -0.98491,0.37978 -1.07889,0.90356c-0.02638,0.14675 -0.16269,0.24513 -0.31273,0.22259c-0.08464,-0.01319 -0.16928,-0.02693 -0.25722,-0.02693c-0.90906,0 -1.64884,0.73978 -1.64884,1.64884s0.73978,1.64884 1.64884,1.64884l4.1221,0c0.15169,0 0.27481,0.12311 0.27481,0.27481s-0.12311,0.27481 -0.27481,0.27481l-4.1221,0c-1.21245,0 -2.19845,-0.98601 -2.19845,-2.19845s0.98601,-2.19845 2.19845,-2.19845c0.03243,0 0.06376,0.0011 0.09563,0.0033c0.22754,-0.65184 0.84476,-1.10252 1.55321,-1.10252c0.19181,0 0.37868,0.03353 0.55566,0.09893c0.09069,-1.28225 1.16243,-2.29738 2.46721,-2.29738c1.00634,0 1.90496,0.61941 2.28254,1.52463c0.37374,-0.27371 0.82552,-0.4254 1.28994,-0.4254c1.21245,0 2.19845,0.98601 2.19845,2.19845c0,0.02638 -0.00055,0.05221 -0.0022,0.07805c0.95798,0.24623 1.65104,1.11407 1.65104,2.12041c0,1.21245 -0.98601,2.19845 -2.19845,2.19845z" fill="#472b29"/>
    <path stroke="null" d="m38.74771,30.44265c-0.08739,0 -0.46222,0 -0.54961,0c-0.15169,0 -0.27481,0.12311 -0.27481,0.27481c0,0.15169 0.12311,0.27481 0.27481,0.27481c0.08739,0 0.46222,0 0.54961,0c0.15169,0 0.27481,-0.12311 0.27481,-0.27481c0,-0.15169 -0.12311,-0.27481 -0.27481,-0.27481z" fill="#472b29"/>
   </g>
  </g>
  <g stroke="null">
   <g stroke="#fff" fill="white" stroke-width="0.25mm" font-size="9pt" fill-rule="evenodd" stroke-linecap="round" id="svg_4">
    <path stroke="null" vector-effect="non-scaling-stroke" d="m132.52694,26.9711l-18.16646,0.63473a1.78491,1.78491 0 0 1 -0.60409,-0.09609q-0.59139,-0.21165 -0.86236,-0.88884a6.53073,6.53073 0 0 1 -0.05122,-0.15978q-0.06654,-0.21865 -0.0777,-0.32634a0.3815,0.3815 0 0 1 -0.00241,-0.03918q0,-0.19108 0.15168,-0.23047a0.35479,0.35479 0 0 1 0.08908,-0.01029q0.10134,0 0.28738,0.03918a4.25489,4.25489 0 0 1 0.11753,0.02648a1.92783,1.92783 0 0 0 0.18911,0.03458q0.21296,0.02911 0.50253,0.03086a6.25911,6.25911 0 0 0 0.04159,0.00022l7.68244,-0.28453l0.04377,-10.37458l-4.50878,0.28453q-0.77787,0 -1.17009,-0.2285a0.90066,0.90066 0 0 1 -0.16503,-0.12169q-0.36771,-0.34057 -0.50669,-0.68113a1.08714,1.08714 0 0 1 -0.08427,-0.41323q0,-0.26265 0.24076,-0.26265q0.10134,0 0.28738,0.03918a4.25489,4.25489 0 0 1 0.11753,0.02648a2.00466,2.00466 0 0 0 0.20749,0.03743q0.21668,0.02823 0.50385,0.02823l10.57157,-0.67851q0.65662,-0.04377 0.93021,-0.13132a2.0771,2.0771 0 0 1 0.22106,-0.05822q0.14489,-0.02933 0.2714,-0.02933a0.58658,0.58658 0 0 1 0.15562,0.0232q0.14621,0.04049 0.33115,0.15124a2.51398,2.51398 0 0 1 0.07135,0.04443q0.33925,0.21887 0.6019,0.5253q0.21887,0.25521 0.25542,0.44978a0.40885,0.40885 0 0 1 0.00722,0.07551q0,0.40426 -0.66187,0.45701a2.27912,2.27912 0 0 1 -0.03852,0.00263l-5.84391,0.37208l-0.06566,10.39647l6.78506,-0.24076a8.90879,8.90879 0 0 0 0.32678,-0.02977q0.35851,-0.04005 0.58155,-0.10156a3.76046,3.76046 0 0 1 0.16722,-0.04224q0.19939,-0.04531 0.32525,-0.04531a0.43906,0.43906 0 0 1 0.10987,0.01598q0.10703,0.02802 0.2528,0.10506a2.74707,2.74707 0 0 1 0.15168,0.08689a2.77093,2.77093 0 0 1 0.55178,0.4476a3.13207,3.13207 0 0 1 0.07201,0.0777q0.24689,0.27534 0.2795,0.4929a0.43818,0.43818 0 0 1 0.00503,0.06522q0,0.36793 -0.43468,0.46948a1.503,1.503 0 0 1 -0.24382,0.03393zm8.88624,-2.2325l-5.18729,0.21887q-0.94772,0 -1.39116,-1.10575a3.44572,3.44572 0 0 1 -0.05341,-0.14183a0.35764,0.35764 0 0 1 -0.01248,-0.05034q-0.00941,-0.05297 -0.00941,-0.12476a0.25302,0.25302 0 0 1 0.01204,-0.08142q0.0383,-0.11272 0.19896,-0.11556a0.47342,0.47342 0 0 1 0.00788,0a0.49334,0.49334 0 0 1 0.06369,0.00482q0.10637,0.01401 0.28913,0.06938a4.25555,4.25555 0 0 1 0.00832,0.00241a1.34651,1.34651 0 0 0 0.1716,0.03874q0.2296,0.03787 0.58352,0.03787l3.69895,-0.15321l-0.30642,-10.5059q-0.04837,-0.5973 -0.14446,-0.92058a1.21387,1.21387 0 0 0 -0.07442,-0.19567a2.15809,2.15809 0 0 1 -0.07398,-0.16372q-0.06916,-0.17313 -0.07792,-0.30292a0.54696,0.54696 0 0 1 -0.00131,-0.03677a0.23682,0.23682 0 0 1 0.13745,-0.2261q0.10243,-0.05253 0.28081,-0.05778a1.38503,1.38503 0 0 1 0.04137,-0.00066a0.91248,0.91248 0 0 1 0.19305,0.02626q0.31583,0.07091 0.92474,0.33488a18.46916,18.46916 0 0 1 0.41433,0.18604l8.01075,-0.5253a1.98671,1.98671 0 0 1 0.51435,0.06391a1.60259,1.60259 0 0 1 0.47058,0.20968a1.61594,1.61594 0 0 1 0.17707,0.13307q0.23879,0.20946 0.23879,0.42505q0,0.2447 -0.05669,0.37602a0.36836,0.36836 0 0 1 -0.01992,0.03983a1.48877,1.48877 0 0 0 -0.04246,0.07792q-0.03743,0.07376 -0.05319,0.13023a0.40557,0.40557 0 0 0 -0.00285,0.01072l-0.41586,10.48402l1.90419,-0.08755a10.66087,10.66087 0 0 0 0.36267,-0.02583q0.50166,-0.04509 0.73169,-0.12738a2.89788,2.89788 0 0 1 0.16197,-0.05297q0.15781,-0.04596 0.27053,-0.0545a0.65005,0.65005 0 0 1 0.04903,-0.00197a0.52836,0.52836 0 0 1 0.1392,0.02079q0.13198,0.03611 0.2992,0.13592a2.27759,2.27759 0 0 1 0.06501,0.04027q0.83172,0.54718 0.83172,0.98493q0,0.39397 -0.72228,0.43775l-11.31573,0.50341a0.03152,0.03152 0 0 0 -0.00854,0.00109q-0.00985,0.00285 -0.01226,0.01269a0.03217,0.03217 0 0 0 -0.00109,0.0081a0.15781,0.15781 0 0 0 0.01445,0.05165q0.05165,0.12607 0.28672,0.49378a19.45168,19.45168 0 0 0 0.11469,0.17685a2.03661,2.03661 0 0 1 0.10462,0.17379q0.09499,0.17882 0.11097,0.31824a0.48196,0.48196 0 0 1 0.00328,0.05516q0,0.20136 -0.18363,0.38741a1.10465,1.10465 0 0 1 -0.07901,0.07223a26.84433,26.84433 0 0 1 -1.27625,1.04052q-0.90351,0.68923 -1.72231,1.17009q-1.31586,0.77284 -2.21324,1.11713a7.08689,7.08689 0 0 1 -0.08492,0.03196a18.37679,18.37679 0 0 1 -0.32087,0.11535q-0.47736,0.16612 -0.70805,0.20902a0.74876,0.74876 0 0 1 -0.1311,0.01488a0.68617,0.68617 0 0 1 -0.12673,-0.01072q-0.21077,-0.03962 -0.22259,-0.2285a0.36836,0.36836 0 0 1 -0.00088,-0.02342q0,-0.27512 0.55287,-0.6529a4.10102,4.10102 0 0 1 0.03808,-0.02561q2.60459,-1.75098 4.07104,-3.41442a9.4853,9.4853 0 0 0 0.23069,-0.26965q0.33466,-0.40776 0.41936,-0.62992a0.37362,0.37362 0 0 0 0.02845,-0.12914a0.14577,0.14577 0 0 0 -0.00153,-0.0232q-0.00657,-0.04049 -0.03896,-0.04246a0.05537,0.05537 0 0 0 -0.00328,0q-0.04224,0 -0.12563,0.0615a0.88096,0.88096 0 0 0 -0.00569,0.00416zm-72.77527,-2.36383l-0.37208,0.21887l0,2.9329l0.10944,2.32005a0.32065,0.32065 0 0 1 -0.05056,0.18363q-0.0847,0.12541 -0.31102,0.15649a1.21256,1.21256 0 0 1 -0.16372,0.01007a2.09658,2.09658 0 0 1 -0.50932,-0.06566a2.76371,2.76371 0 0 1 -0.36617,-0.12038a1.09064,1.09064 0 0 1 -0.20114,-0.10462q-0.109,-0.07354 -0.17203,-0.16591a0.4975,0.4975 0 0 1 -0.08645,-0.2876l0.04377,-1.92608a2718.47408,2718.47408 0 0 0 -0.00219,-3.68254q-0.01007,-7.34997 -0.06347,-9.25286a0.32065,0.32065 0 0 1 0.05078,-0.18363q0.0847,-0.12541 0.3108,-0.15649a1.21256,1.21256 0 0 1 0.16372,-0.01007a2.09658,2.09658 0 0 1 0.50932,0.06566a2.76371,2.76371 0 0 1 0.36617,0.12038q0.26046,0.10528 0.37318,0.27053a0.4975,0.4975 0 0 1 0.08645,0.2876l-0.08755,1.94797l0,5.80013l3.91783,-2.71403a4.86905,4.86905 0 0 0 0.2215,-0.17357q0.23113,-0.19129 0.53186,-0.47517a18.58801,18.58801 0 0 0 0.10024,-0.09543q0.10243,-0.14336 0.3966,-0.15255a1.31915,1.31915 0 0 1 0.04115,-0.00066a1.70283,1.70283 0 0 1 0.32437,0.03283a2.29773,2.29773 0 0 1 0.28847,0.07661q0.83172,0.30642 0.83172,0.72228a0.18976,0.18976 0 0 1 -0.04005,0.10353q-0.13395,0.19436 -0.71506,0.5312q-0.75511,0.43775 -4.23519,2.86724q0.5253,0.50341 1.36796,1.40079q0.84266,0.89738 1.71815,1.79476q0.87549,0.89738 1.554,1.59777a6.05578,6.05578 0 0 0 0.46686,0.38062q0.23835,0.17422 0.46664,0.29832a3.07801,3.07801 0 0 0 0.27031,0.13089a0.35808,0.35808 0 0 1 0.11009,0.07376q0.08689,0.08733 0.08689,0.23266a0.35063,0.35063 0 0 1 -0.04005,0.15715q-0.0626,0.12541 -0.22259,0.25871q-0.37887,0.33531 -0.73848,0.44738a1.19198,1.19198 0 0 1 -0.35589,0.05603a0.59424,0.59424 0 0 1 -0.27228,-0.10396q-0.75358,-0.45 -2.92327,-2.85082a130.80988,130.80988 0 0 0 -0.8385,-0.92343q-1.18607,-1.29266 -1.94118,-2.03136zm36.09216,0l-0.37208,0.21887l0,2.9329l0.10944,2.32005a0.32065,0.32065 0 0 1 -0.05056,0.18363q-0.0847,0.12541 -0.31102,0.15649a1.21256,1.21256 0 0 1 -0.16372,0.01007a2.09658,2.09658 0 0 1 -0.50932,-0.06566a2.76371,2.76371 0 0 1 -0.36617,-0.12038a1.09064,1.09064 0 0 1 -0.20114,-0.10462q-0.109,-0.07354 -0.17203,-0.16591a0.4975,0.4975 0 0 1 -0.08645,-0.2876l0.04377,-1.92608a2718.47408,2718.47408 0 0 0 -0.00219,-3.68254q-0.01007,-7.34997 -0.06347,-9.25286a0.32065,0.32065 0 0 1 0.05078,-0.18363q0.0847,-0.12541 0.3108,-0.15649a1.21256,1.21256 0 0 1 0.16372,-0.01007a2.09658,2.09658 0 0 1 0.50932,0.06566a2.76371,2.76371 0 0 1 0.36617,0.12038q0.26046,0.10528 0.37318,0.27053a0.4975,0.4975 0 0 1 0.08645,0.2876l-0.08755,1.94797l0,5.80013l3.91783,-2.71403a4.86905,4.86905 0 0 0 0.2215,-0.17357q0.23113,-0.19129 0.53186,-0.47517a18.58801,18.58801 0 0 0 0.10024,-0.09543q0.10243,-0.14336 0.3966,-0.15255a1.31915,1.31915 0 0 1 0.04115,-0.00066a1.70283,1.70283 0 0 1 0.32437,0.03283a2.29773,2.29773 0 0 1 0.28847,0.07661q0.83172,0.30642 0.83172,0.72228a0.18976,0.18976 0 0 1 -0.04005,0.10353q-0.13395,0.19436 -0.71506,0.5312q-0.75511,0.43775 -4.23519,2.86724q0.5253,0.50341 1.36796,1.40079q0.84266,0.89738 1.71815,1.79476q0.87549,0.89738 1.554,1.59777a6.05578,6.05578 0 0 0 0.46686,0.38062q0.23835,0.17422 0.46664,0.29832a3.07801,3.07801 0 0 0 0.27031,0.13089a0.35808,0.35808 0 0 1 0.11009,0.07376q0.08689,0.08733 0.08689,0.23266a0.35063,0.35063 0 0 1 -0.04005,0.15715q-0.0626,0.12541 -0.22259,0.25871q-0.37887,0.33531 -0.73848,0.44738a1.19198,1.19198 0 0 1 -0.35589,0.05603a0.59424,0.59424 0 0 1 -0.27228,-0.10396q-0.75358,-0.45 -2.92327,-2.85082a130.80988,130.80988 0 0 0 -0.8385,-0.92343q-1.18607,-1.29266 -1.94118,-2.03136zm57.01641,0.50341l-0.02189,0.08755a1.97949,1.97949 0 0 1 -0.23157,0.39419q-0.62423,0.87046 -2.67944,2.73569a20.86078,20.86078 0 0 1 -0.51369,0.45372q-1.01885,0.86783 -1.37934,0.88118a0.29986,0.29986 0 0 1 -0.01116,0.00022a0.3502,0.3502 0 0 1 -0.12016,-0.01904q-0.16437,-0.05975 -0.16437,-0.30927q0,-0.21296 0.6634,-0.88206a12.24835,12.24835 0 0 1 0.03699,-0.03721a23.10051,23.10051 0 0 0 2.6488,-3.30367a28.61983,28.61983 0 0 0 1.40035,-2.34325l-2.36383,0.13132a0.8976,0.8976 0 0 1 -0.66428,-0.27884a1.13661,1.13661 0 0 1 -0.03611,-0.03852a2.93815,2.93815 0 0 1 -0.23551,-0.29745a2.15502,2.15502 0 0 1 -0.19129,-0.33728q-0.11732,-0.26177 -0.13789,-0.3375a0.10156,0.10156 0 0 1 -0.00438,-0.02364q0,-0.20662 0.17619,-0.25061a0.44781,0.44781 0 0 1 0.10834,-0.01204l0.96304,0.13132l2.82346,-0.1751l0,-1.59777q0,-0.44978 -0.11338,-0.69842a0.73454,0.73454 0 0 0 -0.02889,-0.05669a1.40232,1.40232 0 0 1 -0.07945,-0.16284q-0.06282,-0.15496 -0.06282,-0.28585a0.27578,0.27578 0 0 1 0.02473,-0.12104q0.05625,-0.11644 0.24032,-0.13723a0.76606,0.76606 0 0 1 0.08514,-0.00438q0.21887,0 0.54718,0.08755q0.57235,0.13964 0.77963,0.36836a0.41936,0.41936 0 0 1 0.11775,0.28826l0,2.25439q0.89738,-0.04377 1.88231,-0.24076q0.65662,0 1.11625,0.65662q0.16591,0.22128 0.19217,0.3804a0.35392,0.35392 0 0 1 0.00482,0.05734q0,0.3502 -0.41586,0.41586l-2.77969,0.1751l0,0.80983l0.28453,0a0.39156,0.39156 0 0 1 0.14271,0.03962q0.37646,0.1635 1.43318,1.00003a15.80744,15.80744 0 0 1 0.44628,0.36574q0.82515,0.7039 0.86499,0.99565a0.21099,0.21099 0 0 1 0.00197,0.02845a0.83806,0.83806 0 0 1 -0.18604,0.52486a1.20096,1.20096 0 0 1 -0.13132,0.14271q-0.25149,0.23419 -0.44103,0.28278a0.38303,0.38303 0 0 1 -0.09521,0.01269a0.29307,0.29307 0 0 1 -0.11797,-0.03283q-0.24623,-0.11491 -0.77437,-0.63057a12.5504,12.5504 0 0 1 -0.03787,-0.03699a20.44493,20.44493 0 0 0 -0.8709,-0.81092a16.66827,16.66827 0 0 0 -0.51895,-0.43665l-0.02189,6.52242a1.80242,1.80242 0 0 1 -0.0162,0.25302q-0.07004,0.49115 -0.44344,0.49115a1.00682,1.00682 0 0 1 -0.33444,-0.0615q-0.13964,-0.04903 -0.28826,-0.13723a2.51988,2.51988 0 0 1 -0.2528,-0.17335a1.05891,1.05891 0 0 1 -0.13417,-0.12126q-0.06588,-0.07157 -0.10287,-0.14533a0.42636,0.42636 0 0 1 -0.0475,-0.19305a4.15487,4.15487 0 0 1 0.03393,-0.52026a4.87146,4.87146 0 0 1 0.03174,-0.21296a2.43102,2.43102 0 0 0 0.02189,-0.23332q0.04377,-0.72425 0.04377,-3.27959a99.45129,99.45129 0 0 0 -0.00088,-0.46686q-0.00722,-1.52489 -0.06479,-1.52489zm-110.13689,4.57445l0.04377,-1.94797l0.02189,-11.35951a968.25623,968.25623 0 0 0 -0.77087,0.04684q-2.37893,0.14555 -2.85038,0.18845a4.03908,4.03908 0 0 0 -0.05581,0.00547q-0.38544,0.06698 -0.6297,0.09565a4.16318,4.16318 0 0 1 -0.13636,0.01379a0.63167,0.63167 0 0 1 -0.47824,-0.21647q-0.07967,-0.08558 -0.14752,-0.20508a1.42114,1.42114 0 0 1 -0.00897,-0.0162a2.09308,2.09308 0 0 1 -0.16875,-0.39222a1.56275,1.56275 0 0 1 -0.07201,-0.46138q0,-0.48152 0.41586,-0.48152l1.554,0.04377a1996.36197,1996.36197 0 0 0 2.06966,-0.11447q6.37095,-0.35633 7.40075,-0.46292a3.90645,3.90645 0 0 0 0.11622,-0.01357q0.39397,0 0.61284,0.44869a2.53936,2.53936 0 0 1 0.13351,0.32568q0.08536,0.26265 0.08536,0.49509a0.94356,0.94356 0 0 1 -0.0162,0.18385q-0.05756,0.28826 -0.31846,0.31649a0.54959,0.54959 0 0 1 -0.05931,0.00306l-1.75098,-0.06566l-3.12988,0.1751q0.02189,11.46894 0.08755,13.789q0,0.30927 -0.37777,0.36136a1.24123,1.24123 0 0 1 -0.16941,0.01072a2.30561,2.30561 0 0 1 -0.71024,-0.11556a2.77006,2.77006 0 0 1 -0.21997,-0.08142q-0.47058,-0.19699 -0.47058,-0.56907zm29.54785,0l0.04377,-1.94797l0.02189,-11.35951a968.25623,968.25623 0 0 0 -0.77087,0.04684q-2.37893,0.14555 -2.85038,0.18845a4.03908,4.03908 0 0 0 -0.05581,0.00547q-0.38544,0.06698 -0.6297,0.09565a4.16318,4.16318 0 0 1 -0.13636,0.01379a0.63167,0.63167 0 0 1 -0.47824,-0.21647q-0.07967,-0.08558 -0.14752,-0.20508a1.42114,1.42114 0 0 1 -0.00897,-0.0162a2.09308,2.09308 0 0 1 -0.16875,-0.39222a1.56275,1.56275 0 0 1 -0.07201,-0.46138q0,-0.48152 0.41586,-0.48152l1.554,0.04377a1996.36197,1996.36197 0 0 0 2.06966,-0.11447q6.37095,-0.35633 7.40075,-0.46292a3.90645,3.90645 0 0 0 0.11622,-0.01357q0.39397,0 0.61284,0.44869a2.53936,2.53936 0 0 1 0.13351,0.32568q0.08536,0.26265 0.08536,0.49509a0.94356,0.94356 0 0 1 -0.0162,0.18385q-0.05756,0.28826 -0.31846,0.31649a0.54959,0.54959 0 0 1 -0.05931,0.00306l-1.75098,-0.06566l-3.12988,0.1751q0.02189,11.46894 0.08755,13.789q0,0.30927 -0.37777,0.36136a1.24123,1.24123 0 0 1 -0.16941,0.01072a2.30561,2.30561 0 0 1 -0.71024,-0.11556a2.77006,2.77006 0 0 1 -0.21997,-0.08142q-0.47058,-0.19699 -0.47058,-0.56907zm85.97331,-0.37208l-0.15321,-8.20774q0,-0.76606 -0.24076,-1.22569q-0.05319,-0.16 -0.06325,-0.2911a0.77612,0.77612 0 0 1 -0.00241,-0.0591q0,-0.31583 0.35633,-0.34691a0.94356,0.94356 0 0 1 0.08142,-0.00328a0.8048,0.8048 0 0 1 0.16963,0.02298q0.36661,0.0823 1.18739,0.45854l5.40616,-0.32831a0.85054,0.85054 0 0 1 0.4082,0.10812q0.11994,0.06457 0.23704,0.16788a1.63389,1.63389 0 0 1 0.03327,0.03042a1.52708,1.52708 0 0 1 0.15693,0.16831q0.07223,0.09149 0.11403,0.18101a0.56776,0.56776 0 0 1 0.05734,0.24164a1.72034,1.72034 0 0 1 -0.00635,0.15343q-0.01423,0.15715 -0.05931,0.26243a1.04052,1.04052 0 0 0 -0.02014,0.16766q-0.08383,1.03899 -0.35195,8.41216q0.49509,0.49509 0.55944,0.75818a0.31036,0.31036 0 0 1 0.00963,0.07354q0,0.39113 -0.46226,0.508a1.57764,1.57764 0 0 1 -0.23813,0.03918l-5.64692,0.15321l0.02189,0.65662a0.78772,0.78772 0 0 1 -0.02714,0.21647q-0.09455,0.33072 -0.52004,0.33072a0.81596,0.81596 0 0 1 -0.16328,-0.01817q-0.15759,-0.03217 -0.35633,-0.12235a2.75539,2.75539 0 0 1 -0.02758,-0.01269a1.39991,1.39991 0 0 1 -0.27884,-0.17357a0.78882,0.78882 0 0 1 -0.31211,-0.63626q0.13132,-1.09436 0.13132,-1.68532zm8.51416,-13.89843l-3.89594,0.26265a9.95522,9.95522 0 0 1 1.00222,0.77984a8.38568,8.38568 0 0 1 0.45329,0.4349a9.18982,9.18982 0 0 1 0.21209,0.22631q0.40535,0.44935 0.4117,0.61131a0.12979,0.12979 0 0 1 0,0.00503a0.43753,0.43753 0 0 1 -0.02036,0.12366q-0.05297,0.17729 -0.24229,0.44541q-0.22478,0.31868 -0.44978,0.36442a0.37756,0.37756 0 0 1 -0.07551,0.00766a0.52442,0.52442 0 0 1 -0.22653,-0.05559q-0.16503,-0.07879 -0.34297,-0.26878a2.16947,2.16947 0 0 1 -0.04334,-0.04771a14.45875,14.45875 0 0 0 -1.46032,-1.40035a16.37454,16.37454 0 0 0 -0.37821,-0.30686a0.9974,0.9974 0 0 1 -0.12979,-0.12826q-0.06544,-0.07879 -0.09849,-0.16043a0.44978,0.44978 0 0 1 -0.03436,-0.17094a0.51523,0.51523 0 0 1 0.07748,-0.26899a0.71878,0.71878 0 0 1 0.07573,-0.10309l-1.13814,0.08755a20.09429,20.09429 0 0 1 -1.08123,1.3673q-0.56579,0.6518 -1.12785,1.16419a10.68801,10.68801 0 0 1 -0.43928,0.37953q-0.46948,0.34319 -0.70061,0.40316a0.35195,0.35195 0 0 1 -0.08733,0.01269a0.44103,0.44103 0 0 1 -0.12126,-0.0151q-0.13592,-0.03896 -0.17203,-0.17772a0.45153,0.45153 0 0 1 -0.01313,-0.1136q0,-0.21887 0.28453,-0.59096a21.5603,21.5603 0 0 0 2.68601,-4.20608a19.88724,19.88724 0 0 0 0.29066,-0.63101q0.1751,-0.30642 0.1751,-0.94115q0,-0.33772 0.25739,-0.38587a0.50472,0.50472 0 0 1 0.0928,-0.0081a0.44628,0.44628 0 0 1 0.09018,0.01094q0.14095,0.02955 0.38237,0.13964a4.81915,4.81915 0 0 1 0.05275,0.02451a3.46563,3.46563 0 0 1 0.36683,0.19567q0.57432,0.35698 0.57432,0.76737a0.4697,0.4697 0 0 1 -0.0151,0.11294q-0.02539,0.10178 -0.09302,0.22807a1.71881,1.71881 0 0 1 -0.0232,0.04202q-0.13132,0.22982 -0.27359,0.49246a86.94138,86.94138 0 0 0 -0.04903,0.09083q-0.0974,0.18013 -0.11513,0.21559a595.29032,595.29032 0 0 0 1.01316,-0.08317q3.31921,-0.27512 3.46279,-0.33269a0.94947,0.94947 0 0 1 0.17138,-0.05122a0.76409,0.76409 0 0 1 0.14599,-0.01445a0.42593,0.42593 0 0 1 0.10068,0.01357q0.10068,0.02451 0.23376,0.09433a2.08433,2.08433 0 0 1 0.08142,0.04531a2.37455,2.37455 0 0 1 0.29898,0.18035q0.33991,0.24448 0.40688,0.53033a0.62379,0.62379 0 0 1 0.01642,0.14292a0.38347,0.38347 0 0 1 -0.20049,0.35217q-0.07726,0.04531 -0.18429,0.07376a1.3058,1.3058 0 0 1 -0.18429,0.03371zm-14.42373,-2.34194l0,-0.21887a0.85776,0.85776 0 0 1 0.01335,-0.15846q0.04968,-0.2633 0.28585,-0.27841a0.46029,0.46029 0 0 1 0.02911,-0.00088a0.36508,0.36508 0 0 1 0.07354,0.00897q0.11688,0.02473 0.32306,0.11644a4.69264,4.69264 0 0 1 0.08492,0.03874a3.6403,3.6403 0 0 1 0.59621,0.35436a4.06797,4.06797 0 0 1 0.0823,0.0615a1.03987,1.03987 0 0 1 0.17313,0.16481q0.11097,0.13548 0.14271,0.28935a0.62335,0.62335 0 0 1 0.01248,0.12585a0.552,0.552 0 0 1 -0.03261,0.16809q-0.09083,0.27512 -0.43512,0.77744a10.98392,10.98392 0 0 1 -0.167,0.23638a250.73411,250.73411 0 0 0 0.78488,-0.058q2.58314,-0.19502 2.8703,-0.28125a4.93515,4.93515 0 0 1 0.14314,-0.04071q0.20027,-0.05362 0.30139,-0.05756a0.39594,0.39594 0 0 1 0.0151,-0.00022a0.3375,0.3375 0 0 1 0.10068,0.01729q0.09477,0.02999 0.21822,0.11119a1.94709,1.94709 0 0 1 0.09696,0.06851q0.71506,0.47671 0.72228,0.84616a0.38522,0.38522 0 0 1 0,0.00744a0.35523,0.35523 0 0 1 -0.20202,0.32634q-0.14752,0.0823 -0.40295,0.11053a2.03924,2.03924 0 0 1 -0.00788,0.00088l-3.43631,0.24076a14.65267,14.65267 0 0 1 0.60256,0.42987q1.17031,0.88468 1.17031,1.36489a0.51501,0.51501 0 0 1 -0.05231,0.21887q-0.07179,0.15365 -0.24185,0.31737a1.89303,1.89303 0 0 1 -0.0232,0.02189q-0.25149,0.23419 -0.44103,0.28278a0.38303,0.38303 0 0 1 -0.09521,0.01269a0.3224,0.3224 0 0 1 -0.1357,-0.03655q-0.19151,-0.09127 -0.49115,-0.41104a5.93321,5.93321 0 0 1 -0.1392,-0.15431q-0.5253,-0.6019 -1.03965,-0.98493a3.29798,3.29798 0 0 1 -0.19414,-0.15518q-0.32021,-0.27863 -0.32021,-0.46861a0.60562,0.60562 0 0 1 0.03196,-0.19961a0.52945,0.52945 0 0 1 0.09937,-0.17247l-0.96304,0.08755q-1.59777,2.01363 -3.23932,3.08611a9.03157,9.03157 0 0 1 -0.23004,0.14883q-0.35173,0.21931 -0.52858,0.27206a0.34232,0.34232 0 0 1 -0.09499,0.01685a0.44103,0.44103 0 0 1 -0.12126,-0.0151q-0.13592,-0.03896 -0.17203,-0.17772a0.45153,0.45153 0 0 1 -0.01313,-0.1136a0.2725,0.2725 0 0 1 0.02626,-0.10396q0.07048,-0.16394 0.33072,-0.45701a7.12738,7.12738 0 0 1 0.1902,-0.20508a19.37179,19.37179 0 0 0 1.13814,-1.29704q0.56404,-0.69996 1.13748,-1.52314a32.86553,32.86553 0 0 0 0.17576,-0.25499a20.5734,20.5734 0 0 0 0.42396,-0.64502q0.6448,-1.0252 0.78488,-1.58573a1.15259,1.15259 0 0 0 0.03874,-0.27534zm-70.41144,16.16377a3.79745,3.79745 0 0 0 0.57454,0.51457q1.17425,0.85339 3.05875,0.85339a5.90848,5.90848 0 0 0 0.04049,-0.00022q1.26837,-0.00854 2.28306,-0.56272a5.0192,5.0192 0 0 0 1.52861,-1.31937q1.3789,-1.7291 1.3789,-4.00538a10.04233,10.04233 0 0 0 -0.01466,-0.55047q-0.16131,-2.93574 -2.08652,-4.19908a3.76921,3.76921 0 0 0 -1.13289,-0.50757a4.70117,4.70117 0 0 0 -1.20905,-0.14905q-1.35701,0 -2.49515,0.8536a0.31934,0.31934 0 0 0 -0.12498,-0.10265q-0.10572,-0.05056 -0.26899,-0.05056a0.49706,0.49706 0 0 0 -0.18954,0.04202q-0.17269,0.07157 -0.38281,0.26527a3.24129,3.24129 0 0 0 -0.1937,0.19611a4.5484,4.5484 0 0 0 -0.16985,0.19742q-0.18582,0.22872 -0.36814,0.50844a8.626,8.626 0 0 0 -0.35939,0.60737q-0.48831,0.84266 -0.76299,1.66015a6.44647,6.44647 0 0 0 -0.35326,2.06069a8.50409,8.50409 0 0 0 0.00066,0.10944q0.01051,0.81596 0.1786,1.51197a4.61122,4.61122 0 0 0 1.06832,2.0666zm-29.94182,0.47058l0.04377,-1.92608a799.74505,799.74505 0 0 0 -0.00416,-2.66478q-0.01226,-3.67707 -0.0615,-5.43352q0,-0.32831 0.5253,-0.32831a2.12504,2.12504 0 0 1 0.48524,0.05888a2.88059,2.88059 0 0 1 0.40119,0.12717q0.47058,0.18604 0.47058,0.53624l-0.04377,1.94797q0,5.75636 0.06566,8.07641a0.27534,0.27534 0 0 1 -0.15365,0.26265q-0.11556,0.06107 -0.31802,0.06544a1.47148,1.47148 0 0 1 -0.03174,0.00022q-0.40973,0 -0.88315,-0.18057a3.53655,3.53655 0 0 1 -0.01423,-0.00547a1.24758,1.24758 0 0 1 -0.19917,-0.0963q-0.28235,-0.17182 -0.28235,-0.43993zm33.44379,-0.70039q1.0287,0 1.83853,-0.55813a3.87887,3.87887 0 0 0 1.08911,-1.15368a4.76071,4.76071 0 0 0 0.21318,-0.37843a4.17741,4.17741 0 0 0 0.33663,-0.95494q0.10593,-0.46204 0.13986,-1.00244a8.41348,8.41348 0 0 0 0.01598,-0.52683q0,-1.48834 -0.67851,-2.51704a2.19398,2.19398 0 0 0 -1.39619,-0.94269a3.61359,3.61359 0 0 0 -0.81443,-0.08602q-1.53211,0 -2.64836,1.45551a5.3788,5.3788 0 0 0 -0.92474,1.79957a5.0111,5.0111 0 0 0 -0.19151,1.38503a5.83297,5.83297 0 0 0 0.13439,1.31324q0.41783,1.80023 2.13357,2.1049a4.30895,4.30895 0 0 0 0.75249,0.06194zm46.79504,-13.85466l0.04377,1.554l7.46357,-0.50341l0.04377,-1.53211l-7.55112,0.48152zm0.08755,2.9329l0.04377,1.51022l7.28847,-0.43775l0.04377,-1.53211l-7.37602,0.45963zm11.24963,13.99955a2.46473,2.46473 0 0 0 0.14271,-0.14489a1.85867,1.85867 0 0 0 0.12169,-0.1473q0.21756,-0.2946 0.21756,-0.57498a0.55112,0.55112 0 0 0 -0.00635,-0.08317q-0.03371,-0.22172 -0.24689,-0.46073a2.1548,2.1548 0 0 0 -0.2064,-0.20027a52.04953,52.04953 0 0 0 -1.12129,-0.88665q-1.78666,-1.3719 -3.27806,-2.24323a17.7889,17.7889 0 0 0 -0.21428,-0.12323q-0.45963,-0.25958 -0.64283,-0.3189a0.2957,0.2957 0 0 0 -0.08405,-0.01751a0.21493,0.21493 0 0 0 -0.0151,0.00066q-0.14905,0.01051 -0.35282,0.22653a2.27234,2.27234 0 0 0 -0.12454,0.14489a2.5409,2.5409 0 0 0 -0.05516,0.07201q-0.14861,0.20158 -0.2053,0.36924a0.60562,0.60562 0 0 0 -0.03502,0.19348q0,0.30642 0.39397,0.54718q1.48834,0.91927 3.19555,2.32005q0.8536,0.65662 1.36796,1.10531q0.38784,0.33838 0.60759,0.42155a0.36267,0.36267 0 0 0 0.12563,0.02714a0.35676,0.35676 0 0 0 0.14249,-0.03349q0.12257,-0.05384 0.27293,-0.1937zm-11.09642,-8.26508l0.04377,1.68532l6.93827,-0.30642l0.06566,-1.7291l-7.04771,0.3502zm-0.08755,-2.82346l0.04377,1.42267l7.13526,-0.32831l0.04377,-1.53211l-7.22281,0.43775zm27.33724,6.21599l0.04377,2.14496l4.33369,-0.13132l0.06566,-2.18873l-4.44312,0.1751zm-0.10944,-6.19411l0.04377,1.70721l4.61822,-0.24076l0.04377,-1.75098l-4.70577,0.28453zm0.06566,3.04233l0.02189,1.81665l4.4869,-0.19699l0.04377,-1.83853l-4.55256,0.21887zm-105.87981,-7.10243q-0.31737,0.33925 -0.84266,0.33925q-0.5253,0 -0.89738,-0.47058a1.89894,1.89894 0 0 1 -0.24076,-0.38784a1.39838,1.39838 0 0 1 -0.13132,-0.58614q0,-0.48152 0.30642,-0.83172a1.00178,1.00178 0 0 1 0.60278,-0.32962a1.46732,1.46732 0 0 1 0.25083,-0.02057a1.04205,1.04205 0 0 1 0.74001,0.30577a1.55137,1.55137 0 0 1 0.15737,0.17576q0.33575,0.43446 0.36858,0.86893a1.24933,1.24933 0 0 1 0.0035,0.09412a1.31499,1.31499 0 0 1 -0.0696,0.43578a1.13967,1.13967 0 0 1 -0.24776,0.40688z"/>
   </g>
  </g>
 </g>

</svg>