<svg width="180" height="40" xmlns="http://www.w3.org/2000/svg" version="1">
 <g id="Layer_1">
  <title>Layer 1</title>
  <g stroke="null">
   <path stroke="null" d="m42.98798,23.6879c0.62381,-1.18442 0.98106,-2.53097 0.98106,-3.96271c0,-3.63899 -2.28584,-6.73661 -5.49668,-7.9573c0,-0.00385 0.00055,-0.00769 0.00055,-0.01209c0,-6.37441 -5.16746,-11.54187 -11.54187,-11.54187c-5.37741,0 -9.88259,3.68296 -11.16429,8.66025c-0.81123,-0.26656 -1.67577,-0.41606 -2.57604,-0.41606c-4.22762,0 -7.70722,3.18391 -8.18374,7.28347c-2.86019,0.60512 -5.00697,3.14214 -5.00697,6.18205c0,3.49059 2.82996,6.32055 6.32055,6.32055c0.09728,0 0.19346,-0.0066 0.2891,-0.01209c-0.0022,0.09618 -0.01429,0.19017 -0.01429,0.2869c0,6.22272 5.04435,11.26707 11.26707,11.26707c3.53786,0 6.69154,-1.63345 8.75753,-4.18475c1.19706,1.22289 2.86128,1.9863 4.70798,1.9863c2.5557,0 4.76734,-1.45647 5.86217,-3.58238c0.57819,0.18412 1.19321,0.2847 1.83241,0.2847c3.3389,0 6.04574,-2.70684 6.04574,-6.04574c0,-1.81977 -0.80793,-3.44772 -2.08028,-4.55629z" fill="#c7ede6"/>
   <path stroke="null" d="m14.01513,14.77868l0,0.27481l1.64884,0l0,-0.27481c0,0 2.33146,0 3.02287,0c1.36579,0 2.47326,-1.10747 2.47326,-2.47326c0,-1.28225 -0.97941,-2.32431 -2.22868,-2.44853c0.01209,-0.09948 0.03023,-0.19676 0.03023,-0.29954c0,-1.36579 -1.10747,-2.47326 -2.47326,-2.47326c-0.79034,0 -1.4856,0.37703 -1.93848,0.95413c-0.07695,-1.44878 -1.26521,-2.60297 -2.73323,-2.60297c-1.51748,0 -2.74806,1.23058 -2.74806,2.74806c0,0.24513 0.04232,0.47816 0.10278,0.7046c-0.35285,-0.42705 -0.87993,-0.7046 -1.47681,-0.7046c-0.97886,0 -1.77745,0.73373 -1.89891,1.67907c-0.09948,-0.01209 -0.19676,-0.03023 -0.29954,-0.03023c-1.36579,0 -2.47326,1.10747 -2.47326,2.47326s1.10747,2.47326 2.47326,2.47326s5.22132,0 5.22132,0l3.29768,0z" fill="#fdfcef"/>
   <path stroke="null" d="m11.81668,5.16045c-1.66698,0 -3.02287,1.3559 -3.02287,3.02287c0,0.00879 0,0.01704 0,0.02583c-0.33087,-0.19511 -0.709,-0.30064 -1.09923,-0.30064c-1.00634,0 -1.87473,0.69306 -2.12041,1.65159c-0.02583,-0.00165 -0.05166,-0.00275 -0.07805,-0.00275c-1.51528,0 -2.74806,1.23278 -2.74806,2.74806s1.23278,2.74806 2.74806,2.74806l8.519,0c0.15169,0 0.27481,-0.12311 0.27481,-0.27481s-0.12311,-0.27481 -0.27481,-0.27481l-8.519,0c-1.21245,0 -2.19845,-0.98601 -2.19845,-2.19845s0.98601,-2.19845 2.19845,-2.19845c0.0643,0 0.12641,0.00934 0.18852,0.01759l0.0775,0.01044c0.01154,0.00165 0.02253,0.0022 0.03408,0.0022c0.1352,0 0.25392,-0.10168 0.27206,-0.24018c0.10498,-0.82057 0.80408,-1.43889 1.6263,-1.43889c0.48641,0 0.94698,0.22039 1.26466,0.60457c0.05386,0.06485 0.13246,0.10003 0.21215,0.10003c0.04287,0 0.08574,-0.00989 0.12531,-0.03078c0.11487,-0.05881 0.17258,-0.19017 0.1396,-0.31493c-0.06321,-0.23908 -0.09288,-0.44024 -0.09288,-0.6337c0,-1.36359 1.10967,-2.47326 2.47326,-2.47326c1.30863,0 2.38917,1.02888 2.45897,2.343c0.00605,0.11432 0.08244,0.2127 0.19181,0.24733c0.02748,0.00879 0.05551,0.01319 0.08354,0.01319c0.08244,0 0.16269,-0.03792 0.21545,-0.10553c0.42375,-0.53972 1.05086,-0.84915 1.72194,-0.84915c1.21245,0 2.19845,0.98601 2.19845,2.19845c0,0.0643 -0.00934,0.12641 -0.01759,0.18852l-0.01044,0.0775c-0.00879,0.07365 0.01209,0.1473 0.05826,0.20501c0.04617,0.05771 0.11377,0.09453 0.18687,0.10168c1.13,0.11267 1.98135,1.04811 1.98135,2.17537c0,1.21245 -0.98601,2.19845 -2.19845,2.19845l-3.02287,0c-0.15169,0 -0.27481,0.12311 -0.27481,0.27481s0.12311,0.27481 0.27481,0.27481l3.02287,0c1.51528,0 2.74806,-1.23278 2.74806,-2.74806c0,-1.31742 -0.9283,-2.42544 -2.2001,-2.68046c0.0011,-0.02253 0.00165,-0.04507 0.00165,-0.0676c0,-1.51528 -1.23278,-2.74806 -2.74806,-2.74806c-0.64634,0 -1.26026,0.22864 -1.74942,0.63975c-0.32867,-1.32127 -1.51803,-2.28859 -2.92229,-2.28859l0,0z" fill="#472b29"/>
   <path stroke="null" d="m10.99226,9.00774c-0.77111,0 -1.43394,0.54906 -1.60102,1.28664c-0.20171,-0.12201 -0.432,-0.18742 -0.66613,-0.18742c-0.66063,0 -1.20805,0.493 -1.29324,1.1366c-0.11157,-0.02528 -0.21765,-0.03737 -0.32152,-0.03737c-0.84036,0 -1.54496,0.65954 -1.60377,1.50154c-0.00495,0.07585 0.05221,0.1418 0.12751,0.1473c0.0033,0 0.0066,0 0.00989,0c0.07145,0 0.13191,-0.05551 0.13685,-0.12751c0.04892,-0.69856 0.6326,-1.24652 1.32951,-1.24652c0.12586,0 0.25832,0.02308 0.40561,0.0698c0.01209,0.00385 0.02473,0.0055 0.03682,0.0055c0.03023,0 0.06046,-0.01099 0.08574,-0.02968c0.03518,-0.02528 0.05606,-0.07035 0.05606,-0.11432c0,-0.5683 0.46222,-1.03052 1.03052,-1.03052c0.24568,0 0.48641,0.09233 0.67657,0.25997c0.02583,0.02253 0.05826,0.03463 0.09069,0.03463c0.01759,0 0.03463,-0.0033 0.05111,-0.01044c0.04837,-0.01924 0.08134,-0.0643 0.08519,-0.11652c0.05716,-0.71065 0.65569,-1.26686 1.36359,-1.26686c0.11432,0 0.23359,0.01869 0.37484,0.05881c0.01264,0.00385 0.02583,0.0055 0.03847,0.0055c0.05991,0 0.11377,-0.04012 0.13136,-0.10003c0.02089,-0.0731 -0.02143,-0.14895 -0.09453,-0.16983c-0.16598,-0.04727 -0.30943,-0.06925 -0.45013,-0.06925l0,0z" fill="#472b29"/>
   <path stroke="null" d="m18.62254,9.83216c-0.72879,0 -1.37843,0.493 -1.57959,1.19926c-0.02089,0.0731 0.02143,0.14895 0.09453,0.16983c0.01319,0.0033 0.02583,0.00495 0.03792,0.00495c0.05991,0 0.11487,-0.03957 0.13191,-0.10003c0.16763,-0.58809 0.70845,-0.9992 1.31522,-0.9992c0.0643,0 0.12641,0.00769 0.18797,0.01594c0.0066,0.0011 0.01264,0.00165 0.01924,0.00165c0.0665,0 0.12586,-0.05056 0.1352,-0.11927c0.01044,-0.0753 -0.04232,-0.14455 -0.11762,-0.15444c-0.07365,-0.00989 -0.1484,-0.01869 -0.22479,-0.01869l0,0z" fill="#472b29"/>
   <path stroke="null" d="m9.06861,31.54187l-5.49613,0c-0.15169,0 -0.27481,-0.12311 -0.27481,-0.27481s0.12311,-0.27481 0.27481,-0.27481l5.49613,0c0.15169,0 0.27481,0.12311 0.27481,0.27481s-0.12256,0.27481 -0.27481,0.27481z" fill="#fff"/>
   <path stroke="null" d="m10.71745,31.54187l-0.54961,0c-0.15169,0 -0.27481,-0.12311 -0.27481,-0.27481s0.12311,-0.27481 0.27481,-0.27481l0.54961,0c0.15169,0 0.27481,0.12311 0.27481,0.27481s-0.12256,0.27481 -0.27481,0.27481z" fill="#fff"/>
   <path stroke="null" d="m13.46057,32.6411l-4.94157,0c-0.15169,0 -0.27481,-0.12311 -0.27481,-0.27481s0.12311,-0.27481 0.27481,-0.27481l4.94157,0c0.15169,0 0.27481,0.12311 0.27481,0.27481s-0.12311,0.27481 -0.27481,0.27481z" fill="#fff"/>
   <path stroke="null" d="m7.41978,32.6411l-0.54961,0c-0.15169,0 -0.27481,-0.12311 -0.27481,-0.27481s0.12311,-0.27481 0.27481,-0.27481l0.54961,0c0.15169,0 0.27481,0.12311 0.27481,0.27481s-0.12256,0.27481 -0.27481,0.27481z" fill="#fff"/>
   <path stroke="null" d="m5.77094,32.6411l-1.09923,0c-0.15169,0 -0.27481,-0.12311 -0.27481,-0.27481s0.12311,-0.27481 0.27481,-0.27481l1.09923,0c0.15169,0 0.27481,0.12311 0.27481,0.27481s-0.12256,0.27481 -0.27481,0.27481z" fill="#fff"/>
   <path stroke="null" d="m9.06861,33.74032l-1.09923,0c-0.15169,0 -0.27481,-0.12311 -0.27481,-0.27481s0.12311,-0.27481 0.27481,-0.27481l1.09923,0c0.15169,0 0.27481,0.12311 0.27481,0.27481s-0.12311,0.27481 -0.27481,0.27481z" fill="#fff"/>
   <path stroke="null" d="m10.71745,28.79381c-0.09728,0 -0.45233,0 -0.54961,0c-0.15169,0 -0.27481,0.12311 -0.27481,0.27481c0,0.15169 0.12311,0.27481 0.27481,0.27481c0.09728,0 0.45233,0 0.54961,0c0.15169,0 0.27481,-0.12311 0.27481,-0.27481c0,-0.15169 -0.12311,-0.27481 -0.27481,-0.27481z" fill="#fff"/>
   <path stroke="null" d="m10.71745,29.89303c-0.09728,0 -2.65078,0 -2.74806,0c-0.15169,0 -0.27481,0.12311 -0.27481,0.27481c0,0.15169 0.12311,0.27481 0.27481,0.27481c0.09728,0 2.65078,0 2.74806,0c0.15169,0 0.27481,-0.12311 0.27481,-0.27481c0,-0.15169 -0.12311,-0.27481 -0.27481,-0.27481z" fill="#fff"/>
   <path stroke="null" d="m13.46552,30.99226c-0.09728,0 -1.55156,0 -1.64884,0c-0.15169,0 -0.27481,0.12311 -0.27481,0.27481c0,0.15169 0.12311,0.27481 0.27481,0.27481c0.09728,0 1.55156,0 1.64884,0c0.15169,0 0.27481,-0.12311 0.27481,-0.27481c0,-0.15169 -0.12311,-0.27481 -0.27481,-0.27481z" fill="#fff"/>
   <g stroke="null">
    <path stroke="null" d="m42.595,17.25193l-5.49613,0c-0.15169,0 -0.27481,-0.12311 -0.27481,-0.27481s0.12311,-0.27481 0.27481,-0.27481l5.49613,0c0.15169,0 0.27481,0.12311 0.27481,0.27481s-0.12311,0.27481 -0.27481,0.27481z" fill="#fff"/>
    <path stroke="null" d="m44.79346,17.25193l-1.09923,0c-0.15169,0 -0.27481,-0.12311 -0.27481,-0.27481s0.12311,-0.27481 0.27481,-0.27481l1.09923,0c0.15169,0 0.27481,0.12311 0.27481,0.27481s-0.12311,0.27481 -0.27481,0.27481z" fill="#fff"/>
    <path stroke="null" d="m47.54152,18.35116l-5.49613,0c-0.15169,0 -0.27481,-0.12311 -0.27481,-0.27481s0.12311,-0.27481 0.27481,-0.27481l5.49613,0c0.15169,0 0.27481,0.12311 0.27481,0.27481s-0.12256,0.27481 -0.27481,0.27481z" fill="#fff"/>
    <path stroke="null" d="m40.94616,18.35116l-0.54961,0c-0.15169,0 -0.27481,-0.12311 -0.27481,-0.27481s0.12311,-0.27481 0.27481,-0.27481l0.54961,0c0.15169,0 0.27481,0.12311 0.27481,0.27481s-0.12311,0.27481 -0.27481,0.27481z" fill="#fff"/>
    <path stroke="null" d="m39.28084,18.35116l-1.08274,0c-0.15169,0 -0.27481,-0.12311 -0.27481,-0.27481s0.12311,-0.27481 0.27481,-0.27481l1.08274,0c0.15169,0 0.27481,0.12311 0.27481,0.27481s-0.12311,0.27481 -0.27481,0.27481z" fill="#fff"/>
    <path stroke="null" d="m44.24384,16.15271l-2.74806,0c-0.15169,0 -0.27481,-0.12311 -0.27481,-0.27481s0.12311,-0.27481 0.27481,-0.27481l2.74806,0c0.15169,0 0.27481,0.12311 0.27481,0.27481s-0.12256,0.27481 -0.27481,0.27481z" fill="#fff"/>
    <path stroke="null" d="m42.595,19.45039l-1.09923,0c-0.15169,0 -0.27481,-0.12311 -0.27481,-0.27481s0.12311,-0.27481 0.27481,-0.27481l1.09923,0c0.15169,0 0.27481,0.12311 0.27481,0.27481s-0.12311,0.27481 -0.27481,0.27481z" fill="#fff"/>
   </g>
   <g stroke="null">
    <path stroke="null" d="m15.59527,33.35559c-2.02313,0 -3.66867,-1.64554 -3.66867,-3.66867l0,-16.07618c0,-2.02313 1.64554,-3.66867 3.66867,-3.66867l16.07618,0c2.02313,0 3.66867,1.64554 3.66867,3.66867l0,16.07618c0,2.02313 -1.64554,3.66867 -3.66867,3.66867l-16.07618,0z" fill="#472b29"/>
    <path stroke="null" d="m31.67145,10.32681c1.81097,0 3.28394,1.47296 3.28394,3.28394l0,16.07618c0,1.81097 -1.47296,3.28394 -3.28394,3.28394l-16.07618,0c-1.81097,0 -3.28394,-1.47296 -3.28394,-3.28394l0,-16.07618c0,-1.81097 1.47296,-3.28394 3.28394,-3.28394l16.07618,0m0,-0.76946l-16.07618,0c-2.22923,0 -4.0534,1.82417 -4.0534,4.0534l0,16.07618c0,2.22923 1.82417,4.0534 4.0534,4.0534l16.07618,0c2.22923,0 4.0534,-1.82417 4.0534,-4.0534l0,-16.07618c0,-2.22923 -1.82417,-4.0534 -4.0534,-4.0534l0,0z" fill="#472b29"/>
   </g>
   <g stroke="null">
    <path stroke="null" d="m32.42716,17.25193c0,0 -3.84729,0 -4.3969,-4.3969l-3.29768,0l0,7.70777l0,3.8341l-0.02748,1.64884c-0.1385,1.23498 -1.17397,2.19845 -2.44578,2.19845c-1.36579,0 -2.47326,-1.10747 -2.47326,-2.47326s1.10747,-2.47326 2.47326,-2.47326c0.09398,0 0.18357,0.01759 0.27481,0.02748l0,-3.31142c-0.09179,-0.0044 -0.18192,-0.01374 -0.27481,-0.01374c-3.18721,0 -5.77094,2.58373 -5.77094,5.77094c0,3.18721 2.58373,5.77094 5.77094,5.77094c3.09432,0 5.61265,-2.43753 5.7572,-5.49613l0.01374,0l0,-7.01306c1.08823,0.89202 2.51943,1.51693 4.3969,1.51693c0,-1.09923 0,-3.29768 0,-3.29768z" fill="#ee3e54"/>
   </g>
   <g stroke="null">
    <path stroke="null" d="m28.03026,24.94652c-0.07585,0 -0.1374,-0.06156 -0.1374,-0.1374l0,-4.74041c0,-0.07585 0.06156,-0.1374 0.1374,-0.1374s0.1374,0.06156 0.1374,0.1374l0,4.74041c0,0.07585 -0.06156,0.1374 -0.1374,0.1374z" fill="#472b29"/>
   </g>
   <g stroke="null">
    <path stroke="null" d="m22.25932,31.67927c-0.43914,0 -0.87663,-0.04837 -1.30038,-0.14345c-0.0742,-0.01649 -0.12091,-0.09014 -0.10388,-0.16433c0.01649,-0.07365 0.08684,-0.12146 0.16433,-0.10388c0.80683,0.18137 1.66972,0.18137 2.47326,0.0011c0.17807,-0.03902 0.3556,-0.08794 0.52928,-0.14565c0.21875,-0.07255 0.43309,-0.15829 0.6359,-0.25447c1.88957,-0.89257 3.12345,-2.74312 3.22128,-4.82945c0.00385,-0.07365 0.06376,-0.13081 0.1374,-0.13081c0.07585,0 0.14455,0.06156 0.14455,0.1374c0,0.01869 -0.0033,0.03627 -0.00989,0.05331c-0.11872,2.16877 -1.40866,4.08857 -3.37627,5.01797c-0.21325,0.10168 -0.43749,0.19127 -0.66778,0.26711c-0.18192,0.05991 -0.36879,0.11157 -0.55566,0.15279c-0.4199,0.09453 -0.85465,0.14235 -1.29214,0.14235z" fill="#472b29"/>
   </g>
   <g stroke="null">
    <path stroke="null" d="m19.98063,24.94542c-0.01759,0 -0.03572,-0.0033 -0.05386,-0.01099c-0.0698,-0.02968 -0.10278,-0.11047 -0.0731,-0.18027c0.41001,-0.96842 1.35425,-1.59388 2.40566,-1.59388c0.04672,0 0.09233,0.00385 0.1374,0.00934l0,-3.15533c0,-0.07585 0.06156,-0.1374 0.1374,-0.1374s0.1374,0.06156 0.1374,0.1374l0,3.31142c0,0.03902 -0.01649,0.0764 -0.04562,0.10278c-0.02968,0.02583 -0.06815,0.03682 -0.10662,0.03408l-0.08464,-0.01099c-0.05716,-0.00769 -0.11542,-0.01594 -0.17478,-0.01594c-0.94094,0 -1.78569,0.56006 -2.15228,1.4268c-0.02308,0.05111 -0.07365,0.08299 -0.12696,0.08299z" fill="#472b29"/>
   </g>
   <g stroke="null">
    <path stroke="null" d="m32.42716,20.68702c-0.79694,0 -1.55595,-0.11267 -2.25671,-0.33471c-0.07255,-0.02308 -0.11267,-0.10058 -0.08959,-0.17203c0.02308,-0.07255 0.10278,-0.11322 0.17203,-0.08959c0.6337,0.20061 1.31852,0.30888 2.03687,0.32097l0,-3.02782c-0.36274,-0.02418 -1.37678,-0.15224 -2.35674,-0.82607c-0.06266,-0.04287 -0.07859,-0.12861 -0.03518,-0.19127c0.04342,-0.06211 0.12916,-0.0775 0.19127,-0.03518c1.12561,0.77386 2.32651,0.7832 2.3386,0.7832c0.07585,0 0.1374,0.06156 0.1374,0.1374l0,3.29768c-0.00055,0.07585 -0.06211,0.1374 -0.13795,0.1374z" fill="#472b29"/>
   </g>
   <g stroke="null">
    <path stroke="null" d="m21.1601,30.71745c-3.3334,0 -6.04574,-2.71234 -6.04574,-6.04574s2.71234,-6.04574 6.04574,-6.04574c0.06595,0 0.13026,0.0044 0.19511,0.00879l0.09233,0.00605c0.14675,0.0066 0.26217,0.12751 0.26217,0.27426l0,3.31142c0,0.07859 -0.03353,0.15224 -0.09179,0.20501c-0.05056,0.04507 -0.11597,0.0698 -0.18302,0.0698c-0.01044,0 -0.11872,-0.01264 -0.11872,-0.01264c-0.05166,-0.00714 -0.10278,-0.01539 -0.15609,-0.01539c-1.21245,0 -2.19845,0.98601 -2.19845,2.19845s0.98601,2.19845 2.19845,2.19845c1.11352,0 2.04786,-0.83981 2.17207,-1.95442l0.02638,-1.62301l0,-11.53693c0,-0.15169 0.12311,-0.27481 0.27481,-0.27481l3.29768,0c0.1385,0 0.25557,0.10333 0.27261,0.24073c0.51224,4.09462 3.97755,4.15617 4.12485,4.15672c0.15114,0.00055 0.27426,0.12366 0.27426,0.27481l0,3.29768c0,0.15169 -0.12311,0.27481 -0.27481,0.27481c-1.55431,0 -2.93823,-0.41661 -4.1221,-1.23938l0,6.46015c0,0.03518 -0.00714,0.06925 -0.01869,0.10113c-0.19621,3.18611 -2.82666,5.66981 -6.02706,5.66981z" fill="#fff"/>
    <path stroke="null" d="m26.93103,11.75581c0.54961,4.3969 4.3969,4.3969 4.3969,4.3969s0,2.19845 0,3.29768c-1.87748,0 -3.30867,-0.62436 -4.3969,-1.51693l0,7.01306l-0.01374,0c-0.14455,3.0586 -2.66287,5.49613 -5.7572,5.49613c-3.18721,0 -5.77094,-2.58373 -5.77094,-5.77094c0,-3.18721 2.58373,-5.77094 5.77094,-5.77094c0.09288,0 0.18302,0.00934 0.27481,0.01374l0,3.31142c-0.09124,-0.00989 -0.18082,-0.02748 -0.27481,-0.02748c-1.36579,0 -2.47326,1.10747 -2.47326,2.47326s1.10747,2.47326 2.47326,2.47326c1.2718,0 2.30728,-0.96347 2.44578,-2.19845l0.02748,-1.64884l0,-3.8341l0,-7.70777l3.29768,0m0,-0.54961l-3.29768,0c-0.30339,0 -0.54961,0.24623 -0.54961,0.54961l0,7.70777l0,3.8341l-0.02693,1.61201c-0.12037,0.96292 -0.93104,1.68566 -1.89671,1.68566c-1.06075,0 -1.92365,-0.86289 -1.92365,-1.92365s0.86289,-1.92365 1.92365,-1.92365c0.04122,0 0.08079,0.00714 0.12037,0.01264l0.09288,0.01209c0.02034,0.0022 0.04067,0.0033 0.06101,0.0033c0.13466,0 0.26491,-0.04947 0.36659,-0.14015c0.11707,-0.10443 0.18357,-0.25337 0.18357,-0.41001l0,-3.31142c0,-0.29349 -0.23029,-0.53532 -0.52378,-0.54906l-0.08574,-0.0055c-0.07145,-0.0044 -0.14235,-0.00879 -0.2149,-0.00879c-3.4851,0 -6.32055,2.83545 -6.32055,6.32055s2.83545,6.32055 6.32055,6.32055c3.3356,0 6.07872,-2.58043 6.29911,-5.8968c0.01374,-0.04727 0.02143,-0.09728 0.02143,-0.14895l0,-5.95725c1.13055,0.67108 2.41995,1.01074 3.84729,1.01074c0.30339,0 0.54961,-0.24623 0.54961,-0.54961l0,-3.29768c0,-0.30339 -0.24623,-0.54961 -0.54961,-0.54961c-0.1352,-0.0011 -3.37133,-0.072 -3.85169,-3.91544c-0.03408,-0.27481 -0.26821,-0.48146 -0.54522,-0.48146l0,0z" fill="#472b29"/>
   </g>
   <g stroke="null">
    <path stroke="null" d="m31.32794,16.64296c0,-0.29679 0,-0.49025 0,-0.49025s-1.45592,-0.00385 -2.70465,-1.02833c0.88378,1.04976 2.03412,1.40371 2.70465,1.51858z" fill="#83ccb7"/>
    <path stroke="null" d="m19.71242,26.669c0.44958,0.61886 1.17397,1.02558 1.99729,1.02558c1.2718,0 2.30728,-0.96347 2.44578,-2.19845l0.02748,-1.64884l0,-3.8341l0,-7.70777l2.84754,0c-0.03682,-0.17807 -0.07475,-0.3545 -0.09948,-0.54961l-3.29768,0l0,7.70777l0,3.8341l-0.02748,1.64884c-0.1385,1.23498 -1.17397,2.19845 -2.44578,2.19845c-0.54247,0 -1.03987,-0.17972 -1.44768,-0.47596z" fill="#83ccb7"/>
    <path stroke="null" d="m15.93878,25.22132c0,-3.09432 2.43753,-5.61265 5.49613,-5.7572l0,-0.54961c-0.09179,-0.0044 -0.18192,-0.01374 -0.27481,-0.01374c-3.18721,0 -5.77094,2.58373 -5.77094,5.77094c0,1.73348 0.76836,3.28449 1.97806,4.34249c-0.88708,-1.01459 -1.42844,-2.33915 -1.42844,-3.79288z" fill="#83ccb7"/>
   </g>
   <g stroke="null">
    <path stroke="null" d="m24.18297,19.03818c-0.07585,0 -0.1374,-0.06156 -0.1374,-0.1374l0,-6.59536c0,-0.07585 0.06156,-0.1374 0.1374,-0.1374l2.84754,0c0.07585,0 0.1374,0.06156 0.1374,0.1374s-0.06156,0.1374 -0.1374,0.1374l-2.71014,0l0,6.45795c0,0.07585 -0.06156,0.1374 -0.1374,0.1374z" fill="#472b29"/>
    <path stroke="null" d="m24.18297,23.98469c-0.07585,0 -0.1374,-0.06156 -0.1374,-0.1374l0,-3.8341c0,-0.07585 0.06156,-0.1374 0.1374,-0.1374s0.1374,0.06156 0.1374,0.1374l0,3.8341c0,0.07585 -0.06156,0.1374 -0.1374,0.1374z" fill="#472b29"/>
    <path stroke="null" d="m21.70971,27.83198c-0.07585,0 -0.1374,-0.06156 -0.1374,-0.1374s0.06156,-0.1374 0.1374,-0.1374c1.18387,0 2.17647,-0.89257 2.30892,-2.07589l0.01209,-0.78924c0.0011,-0.0753 0.06266,-0.1352 0.1374,-0.1352c0.00055,0 0.00165,0 0.0022,0c0.0764,0.0011 0.1363,0.06376 0.1352,0.1396l-0.01319,0.80189c-0.1484,1.33611 -1.25861,2.33366 -2.58263,2.33366z" fill="#472b29"/>
    <path stroke="null" d="m19.43816,20.05881c-0.05331,0 -0.10388,-0.03133 -0.12586,-0.08299c-0.03023,-0.0698 0.0022,-0.15059 0.072,-0.18027c0.64909,-0.27755 1.33666,-0.43529 2.04456,-0.46882c0.07585,0 0.1396,0.05551 0.144,0.13081c0.0033,0.07585 -0.05551,0.14015 -0.13081,0.144c-0.67492,0.03188 -1.33061,0.18192 -1.94893,0.44629c-0.01814,0.00769 -0.03682,0.01099 -0.05496,0.01099z" fill="#472b29"/>
    <path stroke="null" d="m15.93878,25.35873c-0.07585,0 -0.1374,-0.06156 -0.1374,-0.1374c0,-2.04071 1.03382,-3.90885 2.76455,-4.99763c0.06321,-0.03847 0.14895,-0.02143 0.18962,0.04342c0.04012,0.06376 0.02089,0.14895 -0.04342,0.18962c-1.65049,1.03767 -2.63594,2.81896 -2.63594,4.76459c0,0.07585 -0.06156,0.1374 -0.1374,0.1374z" fill="#472b29"/>
   </g>
   <g stroke="null">
    <path stroke="null" d="m39.84694,30.71745c0,0 0.86124,0 1.92365,0s1.92365,-0.86124 1.92365,-1.92365c0,-0.97886 -0.73373,-1.77745 -1.67907,-1.89891c0.01539,-0.09838 0.03023,-0.19676 0.03023,-0.29954c0,-1.0624 -0.86124,-1.92365 -1.92365,-1.92365c-0.5672,0 -1.07175,0.25007 -1.4235,0.6403c-0.21105,-0.9937 -1.09208,-1.73952 -2.14899,-1.73952c-1.21409,0 -2.19845,0.98436 -2.19845,2.19845c0,0.10498 0.01649,0.20556 0.03078,0.30668c-0.23523,-0.18907 -0.52983,-0.30668 -0.8552,-0.30668c-0.67492,0 -1.23388,0.48751 -1.3493,1.12945c-0.09838,-0.01539 -0.19676,-0.03023 -0.29954,-0.03023c-1.0624,0 -1.92365,0.86124 -1.92365,1.92365s0.86124,1.92365 1.92365,1.92365s4.1221,0 4.1221,0l0,0.27481l3.84729,0l0,-0.27481z" fill="#fdfcef"/>
    <path stroke="null" d="m40.80876,28.24419c-0.07585,0 -0.1374,-0.06156 -0.1374,-0.1374c0,-0.67218 0.54686,-1.21904 1.21904,-1.21904c0.01869,0.00495 0.40506,-0.00055 0.68372,0.07475c0.0731,0.01979 0.11652,0.09508 0.09673,0.16818c-0.01979,0.07365 -0.09508,0.11707 -0.16818,0.09673c-0.24403,-0.06595 -0.60457,-0.06595 -0.61172,-0.06485c-0.52103,0 -0.94478,0.42375 -0.94478,0.94424c0,0.07585 -0.06156,0.1374 -0.1374,0.1374z" fill="#472b29"/>
    <circle stroke="null" fill="#472b29" r="0.2748" cy="30.71745" cx="37.09887"/>
    <path stroke="null" d="m41.77058,30.99226l-1.92365,0c-0.15169,0 -0.27481,-0.12311 -0.27481,-0.27481s0.12311,-0.27481 0.27481,-0.27481l1.92365,0c0.90906,0 1.64884,-0.73978 1.64884,-1.64884c0,-0.82222 -0.61831,-1.52133 -1.43889,-1.6263c-0.07365,-0.00989 -0.14015,-0.04837 -0.18467,-0.10772s-0.06321,-0.13411 -0.05166,-0.2072c0.01264,-0.08464 0.02638,-0.16928 0.02638,-0.25722c0,-0.90906 -0.73978,-1.64884 -1.64884,-1.64884c-0.46717,0 -0.90027,0.19511 -1.21959,0.54961c-0.0687,0.0764 -0.17643,0.10882 -0.27481,0.08134c-0.10003,-0.02693 -0.17643,-0.10717 -0.19786,-0.2083c-0.18742,-0.88158 -0.97831,-1.52188 -1.88023,-1.52188c-1.06075,0 -1.92365,0.86289 -1.92365,1.92365c0,0.07859 0.01154,0.15389 0.02253,0.22974c0.01594,0.11157 -0.03463,0.24073 -0.13301,0.29679c-0.09838,0.05606 -0.21765,0.06485 -0.30558,-0.0055c-0.20061,-0.16104 -0.43639,-0.24623 -0.68317,-0.24623c-0.53093,0 -0.98491,0.37978 -1.07889,0.90356c-0.02638,0.14675 -0.16269,0.24513 -0.31273,0.22259c-0.08464,-0.01319 -0.16928,-0.02693 -0.25722,-0.02693c-0.90906,0 -1.64884,0.73978 -1.64884,1.64884s0.73978,1.64884 1.64884,1.64884l4.1221,0c0.15169,0 0.27481,0.12311 0.27481,0.27481s-0.12311,0.27481 -0.27481,0.27481l-4.1221,0c-1.21245,0 -2.19845,-0.98601 -2.19845,-2.19845s0.98601,-2.19845 2.19845,-2.19845c0.03243,0 0.06376,0.0011 0.09563,0.0033c0.22754,-0.65184 0.84476,-1.10252 1.55321,-1.10252c0.19181,0 0.37868,0.03353 0.55566,0.09893c0.09069,-1.28225 1.16243,-2.29738 2.46721,-2.29738c1.00634,0 1.90496,0.61941 2.28254,1.52463c0.37374,-0.27371 0.82552,-0.4254 1.28994,-0.4254c1.21245,0 2.19845,0.98601 2.19845,2.19845c0,0.02638 -0.00055,0.05221 -0.0022,0.07805c0.95798,0.24623 1.65104,1.11407 1.65104,2.12041c0,1.21245 -0.98601,2.19845 -2.19845,2.19845z" fill="#472b29"/>
    <path stroke="null" d="m38.74771,30.44265c-0.08739,0 -0.46222,0 -0.54961,0c-0.15169,0 -0.27481,0.12311 -0.27481,0.27481c0,0.15169 0.12311,0.27481 0.27481,0.27481c0.08739,0 0.46222,0 0.54961,0c0.15169,0 0.27481,-0.12311 0.27481,-0.27481c0,-0.15169 -0.12311,-0.27481 -0.27481,-0.27481z" fill="#472b29"/>
   </g>
  </g>
  <g stroke="null">
   <g stroke="#fff" fill="white" stroke-width="0.25mm" font-size="9pt" fill-rule="evenodd" stroke-linecap="round" id="svg_4">
    <path stroke="null" vector-effect="non-scaling-stroke" d="m134.51037,28.92221l-18.9159,0.66092a1.85854,1.85854 0 0 1 -0.62901,-0.10005q-0.61579,-0.22038 -0.89794,-0.92551a6.80015,6.80015 0 0 1 -0.05333,-0.16637q-0.06928,-0.22767 -0.08091,-0.3398a0.39723,0.39723 0 0 1 -0.00251,-0.04079q0,-0.19896 0.15794,-0.23998a0.36943,0.36943 0 0 1 0.09276,-0.01071q0.10552,0 0.29924,0.04079a4.43042,4.43042 0 0 1 0.12238,0.02758a2.00736,2.00736 0 0 0 0.19691,0.03601q0.22175,0.03031 0.52326,0.03213a6.51732,6.51732 0 0 0 0.0433,0.00023l7.99937,-0.29627l0.04558,-10.80257l-4.69479,0.29627q-0.80997,0 -1.21837,-0.23793a0.93782,0.93782 0 0 1 -0.17184,-0.12671q-0.38288,-0.35462 -0.52759,-0.70923a1.13199,1.13199 0 0 1 -0.08774,-0.43028q0,-0.27348 0.25069,-0.27348q0.10552,0 0.29924,0.04079a4.43042,4.43042 0 0 1 0.12238,0.02758a2.08736,2.08736 0 0 0 0.21605,0.03897q0.22562,0.0294 0.52463,0.0294l11.00769,-0.7065q0.68371,-0.04558 0.96859,-0.13674a2.16279,2.16279 0 0 1 0.23018,-0.06062q0.15087,-0.03054 0.2826,-0.03054a0.61078,0.61078 0 0 1 0.16204,0.02416q0.15224,0.04216 0.34482,0.15748a2.61769,2.61769 0 0 1 0.0743,0.04626q0.35325,0.2279 0.62673,0.54697q0.2279,0.26573 0.26596,0.46834a0.42572,0.42572 0 0 1 0.00752,0.07863q0,0.42094 -0.68918,0.47586a2.37315,2.37315 0 0 1 -0.04011,0.00273l-6.08499,0.38743l-0.06837,10.82536l7.06497,-0.25069a9.27631,9.27631 0 0 0 0.34026,-0.03099q0.3733,-0.04171 0.60554,-0.10575a3.91559,3.91559 0 0 1 0.17412,-0.04399q0.20762,-0.04718 0.33866,-0.04718a0.45717,0.45717 0 0 1 0.11441,0.01664q0.11144,0.02917 0.26323,0.10939a2.8604,2.8604 0 0 1 0.15794,0.09048a2.88524,2.88524 0 0 1 0.57454,0.46606a3.26128,3.26128 0 0 1 0.07498,0.08091q0.25707,0.2867 0.29103,0.51324a0.45626,0.45626 0 0 1 0.00524,0.06791q0,0.3831 -0.45261,0.48885a1.56501,1.56501 0 0 1 -0.25388,0.03532zm9.25284,-2.3246l-5.40129,0.2279q-0.98682,0 -1.44855,-1.15136a3.58787,3.58787 0 0 1 -0.05561,-0.14768a0.37239,0.37239 0 0 1 -0.01299,-0.05242q-0.0098,-0.05515 -0.0098,-0.1299a0.26346,0.26346 0 0 1 0.01253,-0.08478q0.03988,-0.11737 0.20716,-0.12033a0.49295,0.49295 0 0 1 0.0082,0a0.51369,0.51369 0 0 1 0.06632,0.00501q0.11076,0.01459 0.30106,0.07225a4.43111,4.43111 0 0 1 0.00866,0.00251a1.40206,1.40206 0 0 0 0.17868,0.04034q0.23907,0.03943 0.60759,0.03943l3.85155,-0.15953l-0.31906,-10.93931q-0.05037,-0.62195 -0.15042,-0.95856a1.26395,1.26395 0 0 0 -0.07749,-0.20374a2.24712,2.24712 0 0 1 -0.07703,-0.17047q-0.07202,-0.18027 -0.08113,-0.31542a0.56953,0.56953 0 0 1 -0.00137,-0.03829a0.24659,0.24659 0 0 1 0.14312,-0.23542q0.10666,-0.0547 0.2924,-0.06017a1.44217,1.44217 0 0 1 0.04307,-0.00068a0.95013,0.95013 0 0 1 0.20101,0.02735q0.32886,0.07384 0.96289,0.34869a19.23109,19.23109 0 0 1 0.43142,0.19372l8.34123,-0.54697a2.06867,2.06867 0 0 1 0.53557,0.06655a1.6687,1.6687 0 0 1 0.48999,0.21833a1.6826,1.6826 0 0 1 0.18437,0.13856q0.24864,0.2181 0.24864,0.44259q0,0.25479 -0.05903,0.39154a0.38356,0.38356 0 0 1 -0.02074,0.04148a1.55019,1.55019 0 0 0 -0.04421,0.08113q-0.03897,0.0768 -0.05538,0.1356a0.4223,0.4223 0 0 0 -0.00296,0.01117l-0.43301,10.91652l1.98275,-0.09116a11.10067,11.10067 0 0 0 0.37763,-0.02689q0.52235,-0.04695 0.76188,-0.13264a3.01743,3.01743 0 0 1 0.16865,-0.05515q0.16432,-0.04786 0.28169,-0.05675a0.67687,0.67687 0 0 1 0.05105,-0.00205a0.55016,0.55016 0 0 1 0.14495,0.02165q0.13743,0.0376 0.31154,0.14153a2.37155,2.37155 0 0 1 0.06769,0.04193q0.86603,0.56976 0.86603,1.02556q0,0.41022 -0.75208,0.4558l-11.78255,0.52418a0.03282,0.03282 0 0 0 -0.00889,0.00114q-0.01026,0.00296 -0.01276,0.01322a0.0335,0.0335 0 0 0 -0.00114,0.00843a0.16432,0.16432 0 0 0 0.01504,0.05378q0.05378,0.13127 0.29855,0.51415a20.25414,20.25414 0 0 0 0.11942,0.18415a2.12063,2.12063 0 0 1 0.10894,0.18095q0.09891,0.1862 0.11555,0.33137a0.50184,0.50184 0 0 1 0.00342,0.05743q0,0.20967 -0.19121,0.40339a1.15022,1.15022 0 0 1 -0.08227,0.07521a27.95177,27.95177 0 0 1 -1.3289,1.08345q-0.94078,0.71766 -1.79336,1.21837q-1.37015,0.80472 -2.30455,1.16321a7.37925,7.37925 0 0 1 -0.08843,0.03327a19.13491,19.13491 0 0 1 -0.3341,0.1201q-0.49706,0.17298 -0.73726,0.21765a0.77965,0.77965 0 0 1 -0.13651,0.0155a0.71447,0.71447 0 0 1 -0.13196,-0.01117q-0.21947,-0.04125 -0.23178,-0.23793a0.38356,0.38356 0 0 1 -0.00091,-0.02439q0,-0.28647 0.57568,-0.67983a4.27021,4.27021 0 0 1 0.03966,-0.02666q2.71204,-1.82322 4.23898,-3.55528a9.87661,9.87661 0 0 0 0.24021,-0.28078q0.34846,-0.42458 0.43666,-0.6559a0.38903,0.38903 0 0 0 0.02963,-0.13446a0.15178,0.15178 0 0 0 -0.0016,-0.02416q-0.00684,-0.04216 -0.04057,-0.04421a0.05766,0.05766 0 0 0 -0.00342,0q-0.04399,0 -0.13082,0.06404a0.91731,0.91731 0 0 0 -0.00593,0.00433zm-75.77754,-2.46135l-0.38743,0.2279l0,3.05389l0.11395,2.41577a0.33388,0.33388 0 0 1 -0.05265,0.19121q-0.0882,0.13059 -0.32385,0.16295a1.26258,1.26258 0 0 1 -0.17047,0.01048a2.18308,2.18308 0 0 1 -0.53033,-0.06837a2.87772,2.87772 0 0 1 -0.38128,-0.12535a1.13564,1.13564 0 0 1 -0.20944,-0.10894q-0.1135,-0.07658 -0.17913,-0.17275a0.51802,0.51802 0 0 1 -0.09002,-0.29946l0.04558,-2.00554a2830.62216,2830.62216 0 0 0 -0.00228,-3.83446q-0.01048,-7.65319 -0.06609,-9.63457a0.33388,0.33388 0 0 1 0.05287,-0.19121q0.0882,-0.13059 0.32362,-0.16295a1.26258,1.26258 0 0 1 0.17047,-0.01048a2.18308,2.18308 0 0 1 0.53033,0.06837a2.87772,2.87772 0 0 1 0.38128,0.12535q0.2712,0.10962 0.38857,0.28169a0.51802,0.51802 0 0 1 0.09002,0.29946l-0.09116,2.02833l0,6.03941l4.07945,-2.82599a5.06992,5.06992 0 0 0 0.23064,-0.18073q0.24066,-0.19919 0.5538,-0.49478a19.35484,19.35484 0 0 0 0.10438,-0.09937q0.10666,-0.14928 0.41296,-0.15885a1.37357,1.37357 0 0 1 0.04285,-0.00068a1.77308,1.77308 0 0 1 0.33775,0.03419a2.39252,2.39252 0 0 1 0.30038,0.07977q0.86603,0.31906 0.86603,0.75208a0.19759,0.19759 0 0 1 -0.04171,0.1078q-0.13948,0.20238 -0.74456,0.55312q-0.78626,0.4558 -4.40991,2.98552q0.54697,0.52418 1.42439,1.45858q0.87742,0.9344 1.78903,1.8688q0.91161,0.9344 1.61811,1.66369a6.3056,6.3056 0 0 0 0.48612,0.39632q0.24819,0.18141 0.48589,0.31063a3.20499,3.20499 0 0 0 0.28146,0.13629a0.37285,0.37285 0 0 1 0.11463,0.0768q0.09048,0.09093 0.09048,0.24226a0.3651,0.3651 0 0 1 -0.04171,0.16363q-0.06518,0.13059 -0.23178,0.26938q-0.3945,0.34915 -0.76894,0.46583a1.24116,1.24116 0 0 1 -0.37057,0.05834a0.61875,0.61875 0 0 1 -0.28351,-0.10825q-0.78467,-0.46857 -3.04386,-2.96843a136.20632,136.20632 0 0 0 -0.87309,-0.96152q-1.235,-1.34599 -2.02127,-2.11516zm37.5811,0l-0.38743,0.2279l0,3.05389l0.11395,2.41577a0.33388,0.33388 0 0 1 -0.05265,0.19121q-0.0882,0.13059 -0.32385,0.16295a1.26258,1.26258 0 0 1 -0.17047,0.01048a2.18308,2.18308 0 0 1 -0.53033,-0.06837a2.87772,2.87772 0 0 1 -0.38128,-0.12535a1.13564,1.13564 0 0 1 -0.20944,-0.10894q-0.1135,-0.07658 -0.17913,-0.17275a0.51802,0.51802 0 0 1 -0.09002,-0.29946l0.04558,-2.00554a2830.62216,2830.62216 0 0 0 -0.00228,-3.83446q-0.01048,-7.65319 -0.06609,-9.63457a0.33388,0.33388 0 0 1 0.05287,-0.19121q0.0882,-0.13059 0.32362,-0.16295a1.26258,1.26258 0 0 1 0.17047,-0.01048a2.18308,2.18308 0 0 1 0.53033,0.06837a2.87772,2.87772 0 0 1 0.38128,0.12535q0.2712,0.10962 0.38857,0.28169a0.51802,0.51802 0 0 1 0.09002,0.29946l-0.09116,2.02833l0,6.03941l4.07945,-2.82599a5.06992,5.06992 0 0 0 0.23064,-0.18073q0.24066,-0.19919 0.5538,-0.49478a19.35484,19.35484 0 0 0 0.10438,-0.09937q0.10666,-0.14928 0.41296,-0.15885a1.37357,1.37357 0 0 1 0.04285,-0.00068a1.77308,1.77308 0 0 1 0.33775,0.03419a2.39252,2.39252 0 0 1 0.30038,0.07977q0.86603,0.31906 0.86603,0.75208a0.19759,0.19759 0 0 1 -0.04171,0.1078q-0.13948,0.20238 -0.74456,0.55312q-0.78626,0.4558 -4.40991,2.98552q0.54697,0.52418 1.42439,1.45858q0.87742,0.9344 1.78903,1.8688q0.91161,0.9344 1.61811,1.66369a6.3056,6.3056 0 0 0 0.48612,0.39632q0.24819,0.18141 0.48589,0.31063a3.20499,3.20499 0 0 0 0.28146,0.13629a0.37285,0.37285 0 0 1 0.11463,0.0768q0.09048,0.09093 0.09048,0.24226a0.3651,0.3651 0 0 1 -0.04171,0.16363q-0.06518,0.13059 -0.23178,0.26938q-0.3945,0.34915 -0.76894,0.46583a1.24116,1.24116 0 0 1 -0.37057,0.05834a0.61875,0.61875 0 0 1 -0.28351,-0.10825q-0.78467,-0.46857 -3.04386,-2.96843a136.20632,136.20632 0 0 0 -0.87309,-0.96152q-1.235,-1.34599 -2.02127,-2.11516zm59.36857,0.52418l-0.02279,0.09116a2.06115,2.06115 0 0 1 -0.24112,0.41045q-0.64998,0.90637 -2.78998,2.84855a21.72138,21.72138 0 0 1 -0.53489,0.47244q-1.06089,0.90363 -1.43624,0.91754a0.31223,0.31223 0 0 1 -0.01162,0.00023a0.36464,0.36464 0 0 1 -0.12512,-0.01983q-0.17115,-0.06222 -0.17115,-0.32203q0,-0.22175 0.69077,-0.91845a12.75365,12.75365 0 0 1 0.03852,-0.03874a24.0535,24.0535 0 0 0 2.75807,-3.43996a29.80052,29.80052 0 0 0 1.45812,-2.43992l-2.46135,0.13674a0.93463,0.93463 0 0 1 -0.69168,-0.29035a1.1835,1.1835 0 0 1 -0.0376,-0.04011a3.05936,3.05936 0 0 1 -0.24522,-0.30972a2.24393,2.24393 0 0 1 -0.19919,-0.3512q-0.12216,-0.27257 -0.14358,-0.35143a0.10575,0.10575 0 0 1 -0.00456,-0.02461q0,-0.21514 0.18346,-0.26095a0.46629,0.46629 0 0 1 0.11281,-0.01253l1.00277,0.13674l2.93994,-0.18232l0,-1.66369q0,-0.46834 -0.11805,-0.72724a0.76484,0.76484 0 0 0 -0.03008,-0.05903a1.46017,1.46017 0 0 1 -0.08273,-0.16956q-0.06541,-0.16135 -0.06541,-0.29764a0.28716,0.28716 0 0 1 0.02575,-0.12603q0.05857,-0.12124 0.25024,-0.14289a0.79766,0.79766 0 0 1 0.08865,-0.00456q0.2279,0 0.56976,0.09116q0.59596,0.1454 0.81179,0.38356a0.43666,0.43666 0 0 1 0.12261,0.30015l0,2.34739q0.9344,-0.04558 1.95996,-0.25069q0.68371,0 1.1623,0.68371q0.17275,0.23041 0.2001,0.39609a0.36852,0.36852 0 0 1 0.00501,0.05971q0,0.36464 -0.43301,0.43301l-2.89436,0.18232l0,0.84324l0.29627,0a0.40772,0.40772 0 0 1 0.14859,0.04125q0.39199,0.17024 1.4923,1.04129a16.45957,16.45957 0 0 1 0.46469,0.38082q0.85919,0.73293 0.90067,1.03673a0.2197,0.2197 0 0 1 0.00205,0.02963a0.87264,0.87264 0 0 1 -0.19372,0.54651a1.2505,1.2505 0 0 1 -0.13674,0.14859q-0.26186,0.24386 -0.45922,0.29445a0.39883,0.39883 0 0 1 -0.09914,0.01322a0.30516,0.30516 0 0 1 -0.12284,-0.03419q-0.25639,-0.11965 -0.80632,-0.65659a13.06815,13.06815 0 0 1 -0.03943,-0.03852a21.28836,21.28836 0 0 0 -0.90682,-0.84438a17.35591,17.35591 0 0 0 -0.54036,-0.45467l-0.02279,6.79149a1.87678,1.87678 0 0 1 -0.01686,0.26346q-0.07293,0.51141 -0.46173,0.51141a1.04835,1.04835 0 0 1 -0.34823,-0.06404q-0.1454,-0.05105 -0.30015,-0.14289a2.62384,2.62384 0 0 1 -0.26323,-0.1805a1.10259,1.10259 0 0 1 -0.1397,-0.12626q-0.0686,-0.07452 -0.10711,-0.15133a0.44395,0.44395 0 0 1 -0.04945,-0.20101a4.32627,4.32627 0 0 1 0.03532,-0.54172a5.07242,5.07242 0 0 1 0.03305,-0.22175a2.53131,2.53131 0 0 0 0.02279,-0.24294q0.04558,-0.75413 0.04558,-3.41489a103.55406,103.55406 0 0 0 -0.00091,-0.48612q-0.00752,-1.5878 -0.06746,-1.5878zm-114.68048,4.76316l0.04558,-2.02833l0.02279,-11.82813a1008.20073,1008.20073 0 0 0 -0.80267,0.04877q-2.47707,0.15156 -2.96797,0.19622a4.20571,4.20571 0 0 0 -0.05812,0.0057q-0.40134,0.06974 -0.65568,0.09959a4.33493,4.33493 0 0 1 -0.14198,0.01436a0.65773,0.65773 0 0 1 -0.49797,-0.2254q-0.08296,-0.08911 -0.15361,-0.21354a1.47977,1.47977 0 0 1 -0.00934,-0.01686a2.17943,2.17943 0 0 1 -0.17571,-0.4084a1.62722,1.62722 0 0 1 -0.07498,-0.48042q0,-0.50139 0.43301,-0.50139l1.61811,0.04558a2078.71999,2078.71999 0 0 0 2.15504,-0.11919q6.63378,-0.37103 7.70606,-0.48201a4.0676,4.0676 0 0 0 0.12102,-0.01413q0.41022,0 0.63813,0.4672a2.64412,2.64412 0 0 1 0.13902,0.33912q0.08888,0.27348 0.08888,0.51552a0.98249,0.98249 0 0 1 -0.01686,0.19144q-0.05994,0.30015 -0.3316,0.32955a0.57226,0.57226 0 0 1 -0.06176,0.00319l-1.82322,-0.06837l-3.259,0.18232q0.02279,11.94209 0.09116,14.35785q0,0.32203 -0.39336,0.37627a1.29243,1.29243 0 0 1 -0.1764,0.01117a2.40072,2.40072 0 0 1 -0.73954,-0.12033a2.88433,2.88433 0 0 1 -0.22904,-0.08478q-0.48999,-0.20511 -0.48999,-0.59255zm30.76682,0l0.04558,-2.02833l0.02279,-11.82813a1008.20073,1008.20073 0 0 0 -0.80267,0.04877q-2.47707,0.15156 -2.96797,0.19622a4.20571,4.20571 0 0 0 -0.05812,0.0057q-0.40134,0.06974 -0.65568,0.09959a4.33493,4.33493 0 0 1 -0.14198,0.01436a0.65773,0.65773 0 0 1 -0.49797,-0.2254q-0.08296,-0.08911 -0.15361,-0.21354a1.47977,1.47977 0 0 1 -0.00934,-0.01686a2.17943,2.17943 0 0 1 -0.17571,-0.4084a1.62722,1.62722 0 0 1 -0.07498,-0.48042q0,-0.50139 0.43301,-0.50139l1.61811,0.04558a2078.71999,2078.71999 0 0 0 2.15504,-0.11919q6.63378,-0.37103 7.70606,-0.48201a4.0676,4.0676 0 0 0 0.12102,-0.01413q0.41022,0 0.63813,0.4672a2.64412,2.64412 0 0 1 0.13902,0.33912q0.08888,0.27348 0.08888,0.51552a0.98249,0.98249 0 0 1 -0.01686,0.19144q-0.05994,0.30015 -0.3316,0.32955a0.57226,0.57226 0 0 1 -0.06176,0.00319l-1.82322,-0.06837l-3.259,0.18232q0.02279,11.94209 0.09116,14.35785q0,0.32203 -0.39336,0.37627a1.29243,1.29243 0 0 1 -0.1764,0.01117a2.40072,2.40072 0 0 1 -0.73954,-0.12033a2.88433,2.88433 0 0 1 -0.22904,-0.08478q-0.48999,-0.20511 -0.48999,-0.59255zm89.52006,-0.38743l-0.15953,-8.54634q0,-0.79766 -0.25069,-1.27625q-0.05538,-0.1666 -0.06586,-0.30311a0.80814,0.80814 0 0 1 -0.00251,-0.06153q0,-0.32886 0.37103,-0.36123a0.98249,0.98249 0 0 1 0.08478,-0.00342a0.838,0.838 0 0 1 0.17662,0.02393q0.38174,0.08569 1.23637,0.47746l5.62919,-0.34185a0.88563,0.88563 0 0 1 0.42504,0.11258q0.12489,0.06723 0.24682,0.1748a1.70129,1.70129 0 0 1 0.03464,0.03168a1.59007,1.59007 0 0 1 0.16341,0.17526q0.07521,0.09526 0.11874,0.18848a0.59118,0.59118 0 0 1 0.05971,0.2516a1.79131,1.79131 0 0 1 -0.00661,0.15976q-0.01481,0.16363 -0.06176,0.27325a1.08345,1.08345 0 0 0 -0.02097,0.17457q-0.08729,1.08185 -0.36647,8.7592q0.51552,0.51552 0.58252,0.78945a0.32317,0.32317 0 0 1 0.01003,0.07658q0,0.40726 -0.48133,0.52896a1.64272,1.64272 0 0 1 -0.24796,0.04079l-5.87988,0.15953l0.02279,0.68371a0.82022,0.82022 0 0 1 -0.02826,0.2254q-0.09845,0.34436 -0.5415,0.34436a0.84962,0.84962 0 0 1 -0.17002,-0.01892q-0.16409,-0.0335 -0.37103,-0.1274a2.86906,2.86906 0 0 1 -0.02872,-0.01322a1.45766,1.45766 0 0 1 -0.29035,-0.18073a0.82136,0.82136 0 0 1 -0.32499,-0.66251q0.13674,-1.13951 0.13674,-1.75485zm8.8654,-14.4718l-4.05666,0.27348a10.36591,10.36591 0 0 1 1.04357,0.81202a8.73162,8.73162 0 0 1 0.47199,0.45284a9.56894,9.56894 0 0 1 0.22084,0.23565q0.42208,0.46788 0.42868,0.63653a0.13515,0.13515 0 0 1 0,0.00524a0.45558,0.45558 0 0 1 -0.02119,0.12876q-0.05515,0.1846 -0.25229,0.46378q-0.23406,0.33183 -0.46834,0.37946a0.39313,0.39313 0 0 1 -0.07863,0.00798a0.54605,0.54605 0 0 1 -0.23588,-0.05789q-0.17184,-0.08204 -0.35712,-0.27986a2.25897,2.25897 0 0 1 -0.04512,-0.04968a15.05523,15.05523 0 0 0 -1.52056,-1.45812a17.05006,17.05006 0 0 0 -0.39382,-0.31952a1.03855,1.03855 0 0 1 -0.13515,-0.13355q-0.06814,-0.08204 -0.10256,-0.16705a0.46834,0.46834 0 0 1 -0.03578,-0.17799a0.53648,0.53648 0 0 1 0.08068,-0.28009a0.74843,0.74843 0 0 1 0.07885,-0.10734l-1.18509,0.09116a20.92326,20.92326 0 0 1 -1.12584,1.42371q-0.58913,0.67869 -1.17438,1.21221a11.12893,11.12893 0 0 1 -0.4574,0.39518q-0.48885,0.35735 -0.72952,0.4198a0.36647,0.36647 0 0 1 -0.09093,0.01322a0.45922,0.45922 0 0 1 -0.12626,-0.01573q-0.14153,-0.04057 -0.17913,-0.18506a0.47016,0.47016 0 0 1 -0.01367,-0.11828q0,-0.2279 0.29627,-0.61534a22.44975,22.44975 0 0 0 2.79682,-4.3796a20.70767,20.70767 0 0 0 0.30265,-0.65704q0.18232,-0.31906 0.18232,-0.97998q0,-0.35165 0.26801,-0.40179a0.52554,0.52554 0 0 1 0.09663,-0.00843a0.46469,0.46469 0 0 1 0.0939,0.0114q0.14677,0.03077 0.39815,0.1454a5.01795,5.01795 0 0 1 0.05492,0.02553a3.60861,3.60861 0 0 1 0.38196,0.20374q0.59802,0.37171 0.59802,0.79903a0.48908,0.48908 0 0 1 -0.01573,0.1176q-0.02644,0.10597 -0.09686,0.23747a1.78972,1.78972 0 0 1 -0.02416,0.04376q-0.13674,0.2393 -0.28488,0.51278a90.52807,90.52807 0 0 0 -0.05105,0.09458q-0.10142,0.18756 -0.11988,0.22448a619.84845,619.84845 0 0 0 1.05496,-0.0866q3.45614,-0.28647 3.60564,-0.34641a0.98864,0.98864 0 0 1 0.17845,-0.05333a0.79561,0.79561 0 0 1 0.15201,-0.01504a0.4435,0.4435 0 0 1 0.10484,0.01413q0.10484,0.02553 0.2434,0.09823a2.17031,2.17031 0 0 1 0.08478,0.04718a2.47251,2.47251 0 0 1 0.31131,0.18779q0.35393,0.25457 0.42367,0.55221a0.64952,0.64952 0 0 1 0.01709,0.14882a0.39928,0.39928 0 0 1 -0.20876,0.36669q-0.08045,0.04718 -0.19189,0.0768a1.35967,1.35967 0 0 1 -0.19189,0.0351zm-15.01877,-2.43856l0,-0.2279a0.89315,0.89315 0 0 1 0.0139,-0.165q0.05173,-0.27417 0.29764,-0.28989a0.47928,0.47928 0 0 1 0.03031,-0.00091a0.38014,0.38014 0 0 1 0.07658,0.00934q0.1217,0.02575 0.33638,0.12124a4.88623,4.88623 0 0 1 0.08843,0.04034a3.79047,3.79047 0 0 1 0.62081,0.36897a4.23579,4.23579 0 0 1 0.08569,0.06404a1.08276,1.08276 0 0 1 0.18027,0.17161q0.11555,0.14107 0.14859,0.30129a0.64907,0.64907 0 0 1 0.01299,0.13104a0.57477,0.57477 0 0 1 -0.03396,0.17503q-0.09458,0.28647 -0.45307,0.80951a11.43705,11.43705 0 0 1 -0.17389,0.24613a261.07791,261.07791 0 0 0 0.81726,-0.06039q2.6897,-0.20306 2.98871,-0.29285a5.13874,5.13874 0 0 1 0.14905,-0.04239q0.20853,-0.05584 0.31382,-0.05994a0.41228,0.41228 0 0 1 0.01573,-0.00023a0.35143,0.35143 0 0 1 0.10484,0.018q0.09868,0.03122 0.22722,0.11577a2.02742,2.02742 0 0 1 0.10096,0.07133q0.74456,0.49637 0.75208,0.88107a0.40111,0.40111 0 0 1 0,0.00775a0.36989,0.36989 0 0 1 -0.21035,0.3398q-0.15361,0.08569 -0.41957,0.11509a2.12337,2.12337 0 0 1 -0.0082,0.00091l-3.57807,0.25069a15.25715,15.25715 0 0 1 0.62742,0.4476q1.21859,0.92118 1.21859,1.4212a0.53625,0.53625 0 0 1 -0.05447,0.2279q-0.07475,0.15999 -0.25183,0.33046a1.97113,1.97113 0 0 1 -0.02416,0.02279q-0.26186,0.24386 -0.45922,0.29445a0.39883,0.39883 0 0 1 -0.09914,0.01322a0.3357,0.3357 0 0 1 -0.1413,-0.03806q-0.19941,-0.09504 -0.51141,-0.428a6.17798,6.17798 0 0 1 -0.14495,-0.16067q-0.54697,-0.62673 -1.08254,-1.02556a3.43403,3.43403 0 0 1 -0.20215,-0.16158q-0.33342,-0.29012 -0.33342,-0.48794a0.63061,0.63061 0 0 1 0.03327,-0.20785a0.5513,0.5513 0 0 1 0.10347,-0.17959l-1.00277,0.09116q-1.66369,2.0967 -3.37296,3.21342a9.40416,9.40416 0 0 1 -0.23953,0.15497q-0.36624,0.22836 -0.55038,0.28328a0.35644,0.35644 0 0 1 -0.09891,0.01755a0.45922,0.45922 0 0 1 -0.12626,-0.01573q-0.14153,-0.04057 -0.17913,-0.18506a0.47016,0.47016 0 0 1 -0.01367,-0.11828a0.28374,0.28374 0 0 1 0.02735,-0.10825q0.07338,-0.1707 0.34436,-0.47586a7.42141,7.42141 0 0 1 0.19805,-0.21354a20.17096,20.17096 0 0 0 1.18509,-1.35055q0.5873,-0.72883 1.18441,-1.58597a34.22137,34.22137 0 0 0 0.18301,-0.26551a21.42214,21.42214 0 0 0 0.44145,-0.67163q0.6714,-1.06749 0.81726,-1.65115a1.20013,1.20013 0 0 0 0.04034,-0.2867zm-73.3162,16.83059a3.95411,3.95411 0 0 0 0.59824,0.5358q1.2227,0.88859 3.18494,0.88859a6.15222,6.15222 0 0 0 0.04216,-0.00023q1.32069,-0.00889 2.37725,-0.58594a5.22626,5.22626 0 0 0 1.59167,-1.3738q1.43579,-1.80043 1.43579,-4.17061a10.45662,10.45662 0 0 0 -0.01527,-0.57317q-0.16796,-3.05685 -2.17259,-4.37231a3.92471,3.92471 0 0 0 -1.17962,-0.52851a4.89512,4.89512 0 0 0 -1.25893,-0.1552q-1.41299,0 -2.59809,0.88882a0.33251,0.33251 0 0 0 -0.13013,-0.10689q-0.11008,-0.05265 -0.28009,-0.05265a0.51757,0.51757 0 0 0 -0.19736,0.04376q-0.17981,0.07452 -0.3986,0.27622a3.37501,3.37501 0 0 0 -0.20169,0.2042a4.73604,4.73604 0 0 0 -0.17685,0.20557q-0.19349,0.23816 -0.38333,0.52942a8.98186,8.98186 0 0 0 -0.37422,0.63243q-0.50845,0.87742 -0.79447,1.72864a6.71241,6.71241 0 0 0 -0.36783,2.1457a8.85492,8.85492 0 0 0 0.00068,0.11395q0.01094,0.84962 0.18597,1.57435a4.80145,4.80145 0 0 0 1.11239,2.15185zm-31.17705,0.48999l0.04558,-2.00554a832.73777,832.73777 0 0 0 -0.00433,-2.77471q-0.01276,-3.82876 -0.06404,-5.65768q0,-0.34185 0.54697,-0.34185a2.2127,2.2127 0 0 1 0.50526,0.06131a2.99942,2.99942 0 0 1 0.41775,0.13241q0.48999,0.19372 0.48999,0.55836l-0.04558,2.02833q0,5.99383 0.06837,8.4096a0.2867,0.2867 0 0 1 -0.15999,0.27348q-0.12033,0.06358 -0.33114,0.06814a1.53219,1.53219 0 0 1 -0.03305,0.00023q-0.42663,0 -0.91959,-0.18802a3.68245,3.68245 0 0 1 -0.01481,-0.0057a1.29904,1.29904 0 0 1 -0.20739,-0.10028q-0.29399,-0.1789 -0.29399,-0.45808zm34.82348,-0.72929q1.07114,0 1.91438,-0.58115a4.03889,4.03889 0 0 0 1.13404,-1.20127a4.9571,4.9571 0 0 0 0.22198,-0.39404a4.34974,4.34974 0 0 0 0.35051,-0.99434q0.1103,-0.4811 0.14563,-1.04379a8.76057,8.76057 0 0 0 0.01664,-0.54856q0,-1.54974 -0.7065,-2.62088a2.28449,2.28449 0 0 0 -1.45379,-0.98158a3.76267,3.76267 0 0 0 -0.84802,-0.08957q-1.59532,0 -2.75762,1.51555a5.6007,5.6007 0 0 0 -0.96289,1.87381a5.21783,5.21783 0 0 0 -0.19941,1.44217a6.0736,6.0736 0 0 0 0.13993,1.36741q0.43507,1.8745 2.22159,2.19174a4.48671,4.48671 0 0 0 0.78353,0.0645zm48.72553,-14.42622l0.04558,1.61811l7.77147,-0.52418l0.04558,-1.59532l-7.86263,0.50139zm0.09116,3.05389l0.04558,1.57253l7.58915,-0.4558l0.04558,-1.59532l-7.68031,0.4786zm11.71373,14.57709a2.56641,2.56641 0 0 0 0.14859,-0.15087a1.93535,1.93535 0 0 0 0.12671,-0.15338q0.22653,-0.30676 0.22653,-0.5987a0.57386,0.57386 0 0 0 -0.00661,-0.0866q-0.0351,-0.23087 -0.25707,-0.47973a2.2437,2.2437 0 0 0 -0.21491,-0.20853a54.19678,54.19678 0 0 0 -1.16754,-0.92323q-1.86037,-1.42849 -3.41329,-2.33577a18.52277,18.52277 0 0 0 -0.22312,-0.12831q-0.4786,-0.27029 -0.66935,-0.33205a0.3079,0.3079 0 0 0 -0.08751,-0.01823a0.2238,0.2238 0 0 0 -0.01573,0.00068q-0.1552,0.01094 -0.36738,0.23588a2.36608,2.36608 0 0 0 -0.12968,0.15087a2.64572,2.64572 0 0 0 -0.05743,0.07498q-0.15475,0.2099 -0.21377,0.38447a0.63061,0.63061 0 0 0 -0.03646,0.20147q0,0.31906 0.41022,0.56976q1.54974,0.95719 3.32737,2.41577q0.88882,0.68371 1.42439,1.15091q0.40384,0.35234 0.63266,0.43894a0.37763,0.37763 0 0 0 0.13082,0.02826a0.37148,0.37148 0 0 0 0.14836,-0.03487q0.12763,-0.05606 0.28419,-0.20169zm-11.5542,-8.60605l0.04558,1.75485l7.22451,-0.31906l0.06837,-1.80043l-7.33846,0.36464zm-0.09116,-2.93994l0.04558,1.48137l7.42962,-0.34185l0.04558,-1.59532l-7.52078,0.4558zm28.46501,6.47243l0.04558,2.23344l4.51247,-0.13674l0.06837,-2.27902l-4.62642,0.18232zm-0.11395,-6.44964l0.04558,1.77764l4.80874,-0.25069l0.04558,-1.82322l-4.8999,0.29627zm0.06837,3.16784l0.02279,1.89159l4.672,-0.20511l0.04558,-1.91438l-4.74037,0.2279zm-110.24778,-7.39543q-0.33046,0.35325 -0.87742,0.35325q-0.54697,0 -0.9344,-0.48999a1.97728,1.97728 0 0 1 -0.25069,-0.40384a1.45607,1.45607 0 0 1 -0.13674,-0.61032q0,-0.50139 0.31906,-0.86603a1.04311,1.04311 0 0 1 0.62764,-0.34322a1.52786,1.52786 0 0 1 0.26118,-0.02142a1.08504,1.08504 0 0 1 0.77054,0.31838a1.61537,1.61537 0 0 1 0.16386,0.18301q0.3496,0.45239 0.38379,0.90477a1.30087,1.30087 0 0 1 0.00365,0.098a1.36924,1.36924 0 0 1 -0.07247,0.45375a1.18669,1.18669 0 0 1 -0.25799,0.42367z"/>
   </g>
  </g>
 </g>

</svg>